<svg width="73" height="73" fill="none" xmlns="http://www.w3.org/2000/svg"><path d="M36.5 0C16.378 0 0 16.378 0 36.5S16.378 73 36.5 73 73 56.601 73 36.5C73 16.378 56.622 0 36.5 0zm0 72.376C16.711 72.376.603 56.258.603 36.47.603 16.679 16.711.572 36.5.572c19.789 0 35.897 16.118 35.897 35.897 0 19.778-16.108 35.907-35.897 35.907zm-2.007-7.643l-2.777-.333-.447 3.806 2.777.333.447-3.806zM36.5 1.227c-19.446 0-35.252 15.806-35.252 35.252 0 19.446 15.827 35.252 35.252 35.252 19.425 0 35.252-15.827 35.252-35.252 0-19.456-15.806-35.252-35.252-35.252zM7.966 54.5l1.008-.592-1.04-1.779-1.175.323-.81-1.373 5.355-1.508-.552-.935 1.342-.79 2.63 4.492-5.968 3.504-.79-1.342zm3.223 4.285l-1.07-1.123 5.032-4.784 3.817 4.014-3.443 3.276-2.755-2.891-1.58 1.508zm7.643 6.416l.645-.978-1.716-1.143-.904.8-1.332-.884 4.15-3.702-.905-.603.863-1.29 4.336 2.881-3.837 5.772-1.3-.853zm7.05 3.286l1.873-5.054-2.278-.842-1.872 5.054-1.455-.541 2.412-6.51 5.179 1.924-2.413 6.51-1.445-.541zm9.516 1.778l-5.855-.697.811-6.884 5.855.697-.811 6.884zM11.324 36.47c0-13.872 11.304-25.176 25.176-25.176 13.872 0 25.176 11.304 25.176 25.176-.032 13.88-11.304 25.174-25.176 25.174-13.872 0-25.176-11.293-25.176-25.175zm26.351 33.775l-.811-6.884 5.595-.665.322 2.776-.676.77.822.436.343 2.902-5.595.665zm7.81-1.185l-2.382-6.52 5.106-1.862.53 1.456-3.64 1.331 1.311 3.598 3.64-1.33.53 1.455-5.095 1.872zm10.17-4.877l-2.496-2.475-1.123.738 1.882 2.87-1.3.853-3.806-5.803 1.3-.852 1.071 1.632 2.038-1.341-1.07-1.633 1.3-.852 1.923 2.932-.853.562 2.496 2.474-1.362.895zm6.083-5.387l-.853-.811-1.414 1.497.634 1.03-1.102 1.154-2.932-4.731-.75.79-1.122-1.071 3.587-3.775 5.023 4.784-1.071 1.133zm4.472-6.374l-2.507-1.467-.728 1.248 2.184 2.007-.821 1.404-2.184-2.007-.458.79-3.483-2.038 2.807-4.783 5.99 3.515-.8 1.33zm-1.05-6.396l-2.704-5.781c.187-1.248.26-2.496.26-3.754 0-14.476-11.772-26.247-26.247-26.247S10.233 22.025 10.233 36.5c0 1.404.103 2.787.343 4.17l-2.548 6.01-5.23-4.346a33.294 33.294 0 01-.5-5.855c0-9.088 3.567-17.647 10.045-24.136C18.822 5.855 27.391 2.288 36.47 2.288c9.078 0 17.647 3.567 24.136 10.045C67.093 18.811 70.65 27.38 70.65 36.469c0 1.85-.156 3.67-.447 5.47l-5.044 4.086zm-24.116 19.04l-.072-.623-2.382.28.125 1.061 1.934-.229.395-.488zm-28.93-14.121l-2.64.749.842 1.435 2.287-1.342-.488-.842zm4.66 5.896l-1.685-1.768-1.186 1.134 1.685 1.768 1.185-1.134zm4.221 3.349l-2.048 1.83 1.383.925 1.466-2.215-.8-.54zM36.5 12.084c-13.456 0-24.396 10.96-24.396 24.395 0 13.456 10.96 24.396 24.396 24.396 13.435 0 24.396-10.93 24.396-24.396 0-13.466-10.94-24.395-24.396-24.395zm0 48.157c-13.092 0-23.772-10.67-23.772-23.772 0-13.103 10.68-23.762 23.772-23.762 13.092 0 23.772 10.67 23.772 23.772 0 13.103-10.68 23.762-23.772 23.762zm22.118-2.111l1.144-1.207-1.923-1.83-.666.707 1.445 2.33zm2.517-5.865l1.237-2.1-.81-.48-1.238 2.101.81.479zm-20.31 14.828l-1.933.23.145 1.206 2.382-.281-.094-.78-.5-.375z" fill="#838383"/><path d="M28.43 18.23c.448.02.947.03 1.477.03h.02c3.526.021 5.013-.499 6.5-1.019a20.389 20.389 0 011.976-.613c.447.041.884.093 1.32.166-1.351.198-2.256.51-3.16.832-1.519.53-3.047 1.071-6.646 1.05-.873.01-1.611-.02-2.266-.072.26-.136.52-.26.78-.375z" fill="#838383"/><path d="M26.403 19.27c.915.145 2.027.228 3.504.218h.02c3.526.02 5.013-.5 6.5-1.03 1.425-.5 2.85-.998 5.97-1.04.405.125.8.26 1.185.406h-.52c-3.526-.021-5.013.499-6.5 1.03-1.518.54-3.046 1.07-6.644 1.05-1.768.01-3.037-.115-4.056-.302.187-.114.364-.229.54-.333z" fill="#838383"/><path d="M24.968 20.195c1.143.312 2.589.54 4.94.52h.02c3.525.02 5.012-.5 6.5-1.03 1.517-.53 3.046-1.071 6.644-1.05.998-.01 1.84.031 2.569.093.332.167.655.354.967.541-.915-.145-2.038-.229-3.525-.218h-.021c-3.526-.021-5.013.499-6.5 1.019-1.518.53-3.046 1.07-6.644 1.05-2.631.02-4.16-.26-5.377-.624a6.17 6.17 0 00.427-.301z" fill="#838383"/><path d="M23.824 21.068c1.362.468 2.89.905 6.083.884h.02c3.526.02 5.013-.5 6.5-1.03 1.518-.53 3.047-1.07 6.645-1.05 2.631-.02 4.15.26 5.376.624.312.24.624.479.926.739-1.425-.5-2.933-.968-6.291-.947h-.021c-3.526-.02-5.013.5-6.5 1.02-1.518.54-3.046 1.07-6.644 1.05-3.463.02-5.002-.468-6.458-.978.125-.104.239-.208.364-.312z" fill="#838383"/><path d="M22.826 21.952c.197.062.395.135.582.208 1.487.52 2.974 1.05 6.5 1.03h.02c3.525.02 5.012-.5 6.5-1.03 1.517-.53 3.046-1.071 6.644-1.05 3.608-.021 5.127.51 6.645 1.05.333.114.655.229 1.009.343l.561.593c-.634-.166-1.164-.354-1.705-.54-1.487-.52-2.974-1.051-6.5-1.03h-.02c-3.526-.021-5.013.499-6.5 1.019-1.518.54-3.046 1.07-6.644 1.05-3.609.02-5.127-.51-6.645-1.05-.26-.094-.52-.177-.78-.27.104-.105.218-.219.333-.323z" fill="#838383"/><path d="M21.89 22.888c.55.156 1.04.322 1.518.489 1.487.52 2.974 1.05 6.5 1.03h.02c3.525.02 5.012-.5 6.5-1.03 1.517-.53 3.046-1.071 6.644-1.05 3.608-.021 5.127.509 6.645 1.05.728.26 1.456.51 2.413.707.124.156.26.322.374.489-1.227-.198-2.08-.5-2.933-.801-1.487-.52-2.974-1.05-6.499-1.03h-.02c-3.526-.02-5.013.5-6.5 1.02-1.518.54-3.047 1.07-6.645 1.05-3.608.02-5.127-.51-6.645-1.05a21.805 21.805 0 00-1.695-.541c.115-.104.219-.219.323-.333z" fill="#838383"/><path d="M21.006 23.907c.956.198 1.684.447 2.412.707 1.487.52 2.974 1.05 6.5 1.03h.02c3.515.02 5.013-.5 6.49-1.02h.01c1.518-.53 3.046-1.07 6.645-1.05 3.608-.02 5.126.51 6.644 1.05.957.333 1.924.676 3.432.864.104.145.198.301.291.447-1.747-.187-2.797-.551-3.858-.926-1.487-.52-2.974-1.05-6.5-1.03h-.02c-3.525-.02-5.012.5-6.5 1.03h-.01c-1.518.53-3.036 1.071-6.634 1.04-3.608.02-5.127-.51-6.645-1.05-.76-.27-1.529-.54-2.558-.728a7.2 7.2 0 01.28-.364z" fill="#838383"/><path d="M20.174 24.999c1.393.197 2.308.53 3.234.853 1.487.52 2.974 1.05 6.5 1.03h.02c3.515.02 5.012-.5 6.489-1.02h.01c1.518-.53 3.047-1.071 6.645-1.05 3.608-.021 5.127.51 6.645 1.05 1.123.395 2.236.79 4.232.946.084.146.156.281.23.427-2.206-.146-3.401-.572-4.597-.988-1.487-.52-2.974-1.05-6.5-1.03h-.02c-3.526-.02-5.013.5-6.5 1.03h-.01c-1.518.53-3.036 1.07-6.634 1.04-3.609.02-5.127-.51-6.645-1.05-.947-.333-1.893-.666-3.36-.853.084-.136.178-.26.26-.385z" fill="#838383"/><path d="M19.425 26.132c1.82.177 2.901.562 3.983.936h.01c1.487.52 2.974 1.04 6.49 1.02h.02c3.515.02 5.012-.5 6.489-1.02h.01c1.518-.53 3.037-1.07 6.645-1.05 3.608-.02 5.127.51 6.645 1.05h.01c1.227.437 2.465.863 4.867.988.062.135.125.28.187.427-2.6-.105-3.9-.562-5.2-1.02h-.01c-1.487-.52-2.974-1.05-6.499-1.03h-.02c-3.526-.02-5.013.5-6.5 1.03h-.01c-1.519.53-3.037 1.072-6.635 1.04-3.598.021-5.116-.51-6.634-1.04h-.01c-1.093-.384-2.185-.77-4.077-.936.083-.124.166-.26.24-.395z" fill="#838383"/><path d="M18.77 27.318c2.236.145 3.442.572 4.648.998h.01c1.488.52 2.975 1.04 6.49 1.02h.02c3.515.02 5.013-.5 6.49-1.02h.01c1.518-.53 3.036-1.071 6.645-1.05 3.608-.021 5.126.51 6.644 1.05h.01c1.321.468 2.642.926 5.398 1.009l.156.416c-2.933-.073-4.316-.551-5.688-1.04h-.01c-1.488-.52-2.975-1.05-6.5-1.03h-.02c-3.526-.02-5.013.5-6.5 1.03h-.01c-1.519.53-3.037 1.07-6.635 1.04-3.598.02-5.116-.51-6.635-1.04h-.01c-1.206-.427-2.413-.853-4.71-.978.062-.145.124-.28.197-.405z" fill="#838383"/><path d="M18.198 28.514c2.61.104 3.92.561 5.22 1.03h.01c1.488.52 2.975 1.039 6.49 1.018h.02c3.515.021 5.013-.499 6.49-1.019h.01c1.518-.53 3.036-1.07 6.645-1.05 3.608-.02 5.126.51 6.644 1.05h.01c1.384.489 2.777.978 5.834 1.02.042.134.084.27.125.415-3.213-.031-4.658-.54-6.093-1.04h-.01c-1.488-.52-2.975-1.05-6.5-1.03h-.02c-3.526-.02-5.013.5-6.5 1.03h-.01c-1.519.53-3.037 1.071-6.635 1.04-3.598.021-5.116-.51-6.635-1.04h-.01c-1.3-.457-2.6-.915-5.251-1.008a4.95 4.95 0 01.166-.416z" fill="#838383"/><path d="M17.71 29.73c2.942.073 4.325.552 5.698 1.04h.01c1.487.52 2.974 1.04 6.49 1.02h.02c3.515.02 5.012-.5 6.489-1.02h.01c1.518-.53 3.037-1.07 6.645-1.05 3.608-.02 5.127.51 6.645 1.05h.01c1.435.51 2.88 1.009 6.177 1.02l.094.415c-3.432 0-4.919-.52-6.406-1.04h-.01c-1.487-.52-2.974-1.05-6.5-1.019h-.02c-3.526-.02-5.013.5-6.5 1.02h-.01c-1.518.53-3.036 1.07-6.634 1.04-3.598.02-5.117-.51-6.635-1.04h-.01c-1.373-.479-2.746-.968-5.71-1.02.053-.145.094-.28.146-.416z" fill="#838383"/><path d="M17.314 30.957c3.213.032 4.659.541 6.094 1.05h.01c1.487.52 2.974 1.04 6.49 1.02h.02c3.515.02 5.012-.5 6.489-1.02h.01c1.518-.53 3.037-1.07 6.645-1.05 3.608-.02 5.127.51 6.645 1.05h.01c1.477.52 2.954 1.04 6.427 1.02l.073.416c-3.598.02-5.117-.51-6.635-1.04h-.01c-1.487-.52-2.974-1.05-6.5-1.03h-.02c-3.526-.02-5.013.5-6.5 1.03h-.01c-1.518.53-3.036 1.07-6.634 1.04-3.598.02-5.117-.51-6.635-1.04h-.01c-1.425-.5-2.85-.998-6.073-1.03l.114-.416z" fill="#838383"/><path d="M17.002 32.184c3.432 0 4.93.52 6.416 1.05h.01c1.488.52 2.975 1.04 6.49 1.02h.02c3.515.02 5.013-.5 6.49-1.02h.01c1.518-.54 3.036-1.07 6.645-1.05 3.608-.02 5.126.51 6.644 1.05h.01c1.488.52 2.975 1.04 6.5 1.02.042 0 .073.01.104.031l.031.322c-.041.032-.083.063-.145.063-3.598.02-5.117-.51-6.635-1.04h-.01c-1.487-.52-2.974-1.05-6.5-1.03h-.02c-3.526-.02-5.013.5-6.5 1.03h-.01c-1.518.53-3.036 1.071-6.634 1.04-3.598.02-5.117-.51-6.635-1.04h-.01c-1.467-.52-2.933-1.03-6.364-1.03.03-.145.062-.28.093-.416z" fill="#838383"/><path d="M16.763 33.828c-.02 0-.031 0-.052-.01l.062-.407c3.598-.02 5.127.51 6.645 1.05 1.487.52 2.974 1.051 6.5 1.03h.02c3.526.021 5.013-.499 6.5-1.03 1.518-.53 3.046-1.07 6.645-1.05 3.608-.02 5.126.51 6.644 1.05 1.487.52 2.974 1.051 6.51 1.03a.21.21 0 01.208.208.209.209 0 01-.208.208c-3.608.021-5.127-.51-6.645-1.05-1.487-.52-2.974-1.05-6.5-1.03h-.02c-3.525-.02-5.012.5-6.5 1.02-1.517.53-3.046 1.07-6.644 1.05-3.608.02-5.127-.51-6.645-1.05-1.497-.52-2.984-1.04-6.52-1.02z" fill="#838383"/><path d="M16.763 35.055a.232.232 0 01-.177-.094l.021-.25a.205.205 0 01.146-.062c3.608-.02 5.126.51 6.644 1.05 1.488.52 2.975 1.05 6.5 1.03h.02c3.526.02 5.013-.5 6.5-1.03 1.518-.53 3.047-1.07 6.645-1.05 3.608-.02 5.126.51 6.645 1.05 1.487.52 2.974 1.05 6.51 1.03.114 0 .207.093.207.208a.209.209 0 01-.208.208c-3.608.02-5.126-.51-6.645-1.05-1.487-.52-2.974-1.05-6.499-1.02h-.02c-3.526-.02-5.013.5-6.5 1.02-1.518.53-3.047 1.07-6.645 1.05-3.608.02-5.127-.51-6.645-1.05-1.476-.541-2.963-1.061-6.499-1.04z" fill="#838383"/><path d="M16.763 36.292a.209.209 0 01-.208-.208.21.21 0 01.208-.208c3.608-.02 5.127.51 6.645 1.05 1.487.52 2.974 1.05 6.5 1.03h.02c3.525.02 5.012-.5 6.5-1.03 1.517-.53 3.046-1.07 6.644-1.05 3.608-.02 5.127.51 6.645 1.05 1.487.52 2.974 1.05 6.51 1.03a.23.23 0 01.176.093l-.02.25a.205.205 0 01-.146.062c-3.608.021-5.127-.51-6.655-1.05-1.487-.52-2.974-1.05-6.5-1.03h-.02c-3.526-.02-5.013.5-6.5 1.02-1.518.53-3.046 1.07-6.644 1.05-3.609.02-5.127-.51-6.645-1.05-1.487-.51-2.974-1.04-6.51-1.009z" fill="#838383"/><path d="M16.763 37.52a.209.209 0 01-.208-.209.21.21 0 01.208-.208c3.608-.02 5.127.51 6.645 1.05 1.487.52 2.974 1.05 6.5 1.02h.02c3.525.02 5.012-.5 6.5-1.02 1.517-.53 3.046-1.07 6.644-1.05 3.608-.02 5.127.51 6.645 1.05 1.487.52 2.974 1.05 6.51 1.02a.1.1 0 01.052.01l-.063.406c-3.598.02-5.126-.51-6.645-1.05-1.487-.52-2.974-1.051-6.499-1.03h-.02c-3.526-.021-5.013.499-6.5 1.019-1.518.54-3.047 1.07-6.645 1.05-3.608.02-5.127-.51-6.645-1.05-1.476-.51-2.963-1.03-6.499-1.009z" fill="#838383"/><path d="M16.763 38.746c-.042 0-.083-.01-.104-.031l-.031-.322c.041-.032.083-.063.145-.063 3.609-.02 5.127.51 6.645 1.05 1.487.52 2.974 1.05 6.5 1.03h.02c3.526.02 5.013-.5 6.5-1.03 1.518-.53 3.046-1.07 6.645-1.05 3.608-.02 5.126.51 6.644 1.05 1.467.52 2.933 1.03 6.365 1.03-.032.135-.053.27-.084.416-3.431 0-4.929-.52-6.416-1.05-1.487-.52-2.974-1.05-6.5-1.03h-.02c-3.525-.02-5.012.5-6.5 1.02-1.517.54-3.046 1.07-6.644 1.05-3.608.02-5.127-.51-6.645-1.05-1.497-.52-2.984-1.04-6.52-1.02z" fill="#838383"/><path d="M16.763 39.568c3.608-.021 5.127.51 6.645 1.05 1.487.52 2.974 1.05 6.5 1.03h.02c3.525.02 5.012-.5 6.5-1.03 1.517-.53 3.046-1.071 6.644-1.05 3.608-.021 5.127.51 6.645 1.05 1.425.5 2.85.998 6.073 1.03l-.114.405c-3.214-.031-4.66-.54-6.105-1.05-1.487-.52-2.974-1.05-6.499-1.02h-.02c-3.526-.02-5.013.5-6.5 1.02-1.518.53-3.047 1.07-6.645 1.05-3.608.02-5.127-.51-6.645-1.05-1.476-.52-2.953-1.04-6.437-1.02l-.062-.415z" fill="#838383"/><path d="M16.992 40.795c3.442 0 4.929.52 6.416 1.05 1.487.52 2.974 1.05 6.5 1.03h.02c3.525.02 5.012-.5 6.5-1.03 1.517-.53 3.046-1.071 6.644-1.05 3.608-.021 5.127.51 6.645 1.05 1.373.478 2.745.967 5.709 1.02-.042.134-.094.27-.146.405-2.943-.073-4.326-.552-5.698-1.04-1.487-.52-2.974-1.05-6.5-1.03h-.02c-3.526-.02-5.013.5-6.5 1.03-1.518.53-3.046 1.07-6.644 1.05-3.609.02-5.127-.51-6.645-1.05-1.446-.51-2.88-1.009-6.188-1.03-.03-.125-.062-.27-.093-.405z" fill="#838383"/><path d="M17.304 42.032c3.213.031 4.658.54 6.104 1.05 1.487.52 2.974 1.05 6.5 1.03h.02c3.525.02 5.012-.5 6.5-1.03 1.517-.53 3.046-1.07 6.644-1.05 3.608-.02 5.127.51 6.645 1.05 1.3.458 2.6.916 5.251 1.01a7.41 7.41 0 01-.176.405c-2.61-.104-3.91-.562-5.22-1.03-1.488-.52-2.975-1.05-6.5-1.03h-.02c-3.526-.02-5.013.5-6.5 1.02-1.518.53-3.047 1.07-6.645 1.05-3.608.02-5.127-.51-6.645-1.05-1.393-.489-2.787-.978-5.844-1.02a5.93 5.93 0 00-.114-.405z" fill="#838383"/><path d="M17.71 43.27c2.942.072 4.325.55 5.708 1.04 1.487.52 2.974 1.05 6.5 1.019h.02c3.515.02 5.013-.5 6.49-1.02h.01c1.518-.53 3.046-1.07 6.645-1.05 3.608-.02 5.126.51 6.644 1.05 1.207.427 2.413.853 4.711.978-.062.135-.135.27-.198.395-2.235-.145-3.442-.572-4.648-.988-1.487-.52-2.974-1.05-6.5-1.03h-.02c-3.525-.02-5.012.5-6.5 1.03h-.01c-1.518.53-3.036 1.071-6.634 1.04-3.608.021-5.127-.51-6.645-1.05-1.32-.468-2.652-.936-5.418-1.009l-.156-.405z" fill="#838383"/><path d="M18.208 44.517c2.6.115 3.91.572 5.21 1.02 1.487.52 2.974 1.05 6.5 1.03h.02c3.515.02 5.013-.5 6.49-1.02h.01c1.518-.53 3.046-1.071 6.645-1.05 3.608-.021 5.126.51 6.644 1.05 1.092.385 2.184.77 4.077.936-.073.135-.156.26-.23.395-1.819-.177-2.9-.562-3.982-.936-1.487-.52-2.974-1.05-6.5-1.03h-.02c-3.525-.02-5.012.5-6.5 1.03h-.01c-1.518.53-3.036 1.071-6.634 1.04-3.608.02-5.127-.51-6.645-1.05-1.237-.437-2.475-.874-4.877-.988-.073-.146-.135-.291-.198-.427z" fill="#838383"/><path d="M18.811 45.776c2.205.145 3.401.572 4.597.988h.01c1.487.52 2.974 1.04 6.49 1.019h.02c3.515.02 5.012-.5 6.489-1.02h.01c1.518-.53 3.037-1.07 6.645-1.05 3.608-.02 5.127.51 6.645 1.05h.01c.947.333 1.883.666 3.349.853-.083.125-.177.26-.26.385-1.383-.197-2.309-.52-3.224-.842h-.01c-1.487-.52-2.974-1.05-6.5-1.03h-.02c-3.526-.02-5.013.5-6.5 1.03h-.01c-1.518.53-3.036 1.07-6.634 1.04-3.598.02-5.117-.51-6.635-1.04h-.01c-1.123-.395-2.236-.79-4.233-.947-.072-.145-.156-.29-.229-.436z" fill="#838383"/><path d="M19.56 47.076c1.747.187 2.808.55 3.858.925h.01c1.488.52 2.975 1.04 6.49 1.02h.02c3.515.02 5.013-.5 6.49-1.02h.01c1.518-.53 3.036-1.07 6.645-1.05 3.608-.02 5.126.51 6.644 1.05h.01c.76.27 1.519.53 2.548.728a8.55 8.55 0 01-.29.364c-.947-.198-1.675-.447-2.403-.707h-.01c-1.487-.52-2.974-1.05-6.5-1.03h-.02c-3.526-.02-5.013.5-6.5 1.03h-.01c-1.518.53-3.036 1.071-6.634 1.04-3.598.02-5.117-.51-6.635-1.04h-.01c-.957-.333-1.924-.676-3.432-.863-.094-.146-.187-.302-.28-.447z" fill="#838383"/><path d="M20.486 48.428c1.227.197 2.08.499 2.932.8h.01c1.488.52 2.975 1.04 6.49 1.02h.02c3.515.02 5.013-.5 6.49-1.02h.01c1.518-.53 3.036-1.07 6.645-1.05 3.608-.02 5.126.51 6.644 1.05h.01c.531.187 1.061.375 1.685.53l-.312.344c-.55-.156-1.03-.323-1.507-.489h-.01c-1.488-.52-2.975-1.05-6.5-1.03h-.02c-3.526-.02-5.013.5-6.5 1.03h-.01c-1.519.53-3.037 1.071-6.635 1.04-3.598.02-5.116-.51-6.635-1.04h-.01c-.728-.26-1.456-.51-2.413-.707a4.06 4.06 0 01-.384-.478z" fill="#838383"/><path d="M21.713 49.914c.634.167 1.165.354 1.705.541h.01c1.488.52 2.975 1.04 6.49 1.02h.02c3.515.02 5.013-.5 6.49-1.02h.01c1.518-.53 3.036-1.07 6.645-1.05 3.608-.02 5.126.51 6.644 1.05h.01c.26.094.51.177.78.27a9.58 9.58 0 01-.332.323l-.582-.198h-.01c-1.488-.52-2.975-1.05-6.5-1.03h-.02c-3.526-.02-5.013.5-6.5 1.03h-.01c-1.519.53-3.037 1.072-6.635 1.04-3.598.021-5.116-.51-6.635-1.04h-.01c-.333-.114-.655-.228-1.009-.343a14.72 14.72 0 01-.561-.593z" fill="#838383"/><path d="M23.626 51.766c1.425.499 2.933.967 6.291.946h.021c3.515.02 5.013-.5 6.49-1.02h.01c1.518-.53 3.036-1.07 6.645-1.05 3.462-.02 5.001.468 6.468.978-.125.104-.24.208-.364.312-1.363-.468-2.891-.894-6.084-.884h-.02c-3.526-.02-5.013.5-6.5 1.03h-.01c-1.518.53-3.037 1.07-6.635 1.04-2.63.02-4.149-.26-5.376-.625-.333-.228-.634-.478-.936-.727z" fill="#838383"/><path d="M26.382 53.72c.915.146 2.038.23 3.525.23h.02c3.516.02 5.013-.5 6.49-1.02h.01c1.518-.53 3.037-1.07 6.645-1.05 2.631-.02 4.16.26 5.376.624-.135.104-.28.208-.426.312-1.144-.312-2.59-.54-4.94-.52h-.02c-3.526-.02-5.013.499-6.5 1.03h-.01c-1.518.53-3.036 1.07-6.634 1.04a26.76 26.76 0 01-2.569-.094c-.322-.188-.645-.364-.967-.551z" fill="#838383"/><path d="M29.408 55.176h.52c3.525.021 5.012-.499 6.5-1.03 1.517-.53 3.046-1.07 6.644-1.05 1.768-.01 3.036.115 4.056.302a9.234 9.234 0 01-.541.322c-.915-.145-2.028-.228-3.505-.218h-.02c-3.526-.02-5.013.5-6.5 1.02-1.424.498-2.849.998-5.969 1.05-.395-.115-.79-.25-1.185-.396z" fill="#838383"/><path d="M33.276 56.216c1.352-.197 2.257-.51 3.162-.832 1.518-.53 3.046-1.07 6.645-1.05.873-.01 1.611.02 2.277.073-.26.125-.52.25-.78.364a32.056 32.056 0 00-1.487-.031h-.02c-3.526-.021-5.013.499-6.5 1.019-.614.218-1.227.426-1.976.613a18.309 18.309 0 01-1.32-.156z" fill="#838383"/><path d="M36.5 56.986c-11.293 0-20.486-9.193-20.486-20.486 0-11.293 9.193-20.486 20.486-20.486 11.293 0 20.486 9.193 20.486 20.486 0 11.293-9.193 20.486-20.486 20.486zm0-39.942c-10.732 0-19.456 8.724-19.456 19.456S25.768 55.956 36.5 55.956 55.956 47.232 55.956 36.5c0-10.721-8.724-19.456-19.456-19.456zM7.685 20.902l4.492 2.09-.301.645-1.747-.811c-.51-.25-.968-.479-1.425-.728l-.021.02c.302.302.634.645.978.988l.831.874-.301.655-1.217-.094c-.478-.03-.967-.073-1.383-.104v.031c.479.198.957.396 1.477.624l1.747.812-.302.644-4.482-2.09.312-.665 2.174.083c.301.01.81.062 1.05.083l.01-.031a17.75 17.75 0 01-.738-.749l-1.466-1.612.312-.665zm3.931-.562c-.479.364-1.092.343-1.706-.073-.832-.572-.998-1.362-.468-2.131l.728-1.072 4.087 2.787-.406.604-1.476-1.01-.25.365.915 1.84-.447.666-.977-1.976zm.207-1.279l-1.497-1.019-.312.458c-.28.416-.177.8.312 1.143.489.333.905.292 1.185-.114l.313-.468zm2.007-1.019l-1.507-1.362c-.75-.676-.77-1.456-.177-2.111.613-.676 1.372-.718 2.132-.083l-.479.53c-.457-.354-.821-.343-1.144.01-.28.312-.27.707.177 1.103l1.508 1.362c.437.395.832.374 1.123.052.323-.364.302-.738-.083-1.154l.478-.53c.687.696.728 1.455.104 2.131-.603.655-1.393.718-2.131.052zm2.756-7.477l3.172 3.806-.551.468-1.394-1.664-1.092.905 1.394 1.664-.551.468-3.172-3.806.551-.468 1.352 1.622 1.092-.905-1.352-1.622.551-.468zm5.2 1.279l-1.123.697.332.967-.644.406-1.55-4.867.666-.416 3.691 3.536-.634.395-.738-.718zm-.479-.488l-.967-.957c-.229-.24-.551-.603-.717-.8l-.021.01c.104.239.301.675.405.998l.437 1.29.863-.541zm2.382-1.56c-.604.062-1.113-.281-1.415-.957-.416-.925-.145-1.685.707-2.07l1.176-.53 2.038 4.513-.655.302-.739-1.633-.405.188-.177 2.038-.728.332.198-2.183zm.842-.978l-.749-1.653-.51.229c-.457.208-.571.592-.332 1.133.24.53.613.718 1.071.52l.52-.229zm7.383-4.668l.978 4.855-.697.136-.385-1.893c-.093-.562-.187-1.071-.26-1.58l-.031-.011c-.062.416-.146.894-.218 1.373l-.208 1.185-.707.146-.656-1.02c-.26-.405-.52-.82-.738-1.174l-.02.02c.124.5.249 1.009.374 1.56l.384 1.893-.696.135-.978-4.856.728-.146 1.227 1.8c.166.259.427.685.551.893l.031-.01c.032-.24.104-.738.167-1.04l.437-2.132.717-.135zm3.972 3.69l-1.33.063-.188 1.009-.759.031 1.05-5.002.78-.031 1.477 4.887-.749.032-.28-.988zm-.187-.654l-.374-1.31a14.54 14.54 0 01-.229-1.05h-.02c-.021.259-.073.737-.136 1.07l-.25 1.342 1.01-.052zm5.283-3.026l-.458 4.929-.717-.063.197-2.163-1.414-.125-.197 2.163-.718-.062.458-4.929.717.062-.197 2.1 1.414.126.197-2.1.718.062zm4.368.894L43.29 8.6c-.436.738-.842.946-1.58.78l-.177-.042.146-.624.197.042c.375.083.583-.073.843-.52l.093-.166-.457-3.692.748.166.26 2.538 1.248-2.195.738.167zm1.05 5.459l-.104-.041c-.947-.364-1.362-1.238-.947-2.309l.396-1.009c.426-1.081 1.33-1.445 2.267-1.081l.103.042.188-.49.665.26-.187.49.104.041c.946.364 1.362 1.248.936 2.33l-.395 1.008c-.427 1.082-1.32 1.425-2.267 1.06l-.104-.04-.198.509-.665-.26.208-.51zm.25-.634l1.216-3.12-.135-.052c-.551-.218-1.03-.03-1.32.718l-.396 1.008c-.28.728-.062 1.186.489 1.404l.145.042zm.8.312c.561.218 1.03.041 1.32-.697l.396-1.009c.291-.748.073-1.206-.489-1.424l-.125-.052-1.216 3.12.114.062zm4.16 1.893l-1.144-.666-.697.749-.655-.385 3.577-3.64.676.395-1.404 4.909-.655-.375.301-.987zm.208-.656l.395-1.31c.104-.322.27-.77.374-1.009l-.02-.01c-.167.208-.469.582-.697.822l-.936.998.884.51zm2.912 1.394l-.552.177-1.03 1.32-.561-.437 3.036-3.91.562.437-1.32 1.695.613-.26 1.757-.624.666.52-2.454.822-.416 3.213-.655-.51.353-2.443zm5.552 2.194l-.738-.738-3.026 3.015-.52-.52 3.026-3.015-.728-.739.478-.478 1.986 2.007-.478.468zm3.006 2.662l-3.838 1.445c-.8.302-1.248.198-1.716-.395l-.114-.145.51-.395.124.156c.24.301.5.312.978.124l.177-.072 1.986-3.151.468.603-1.383 2.142 2.35-.915.458.603zm.832 4.409c-.895.53-1.675.333-2.174-.51l-.302-.52-1.497.885-.364-.624 4.264-2.517.675 1.144c.49.853.27 1.633-.603 2.142zm-.375-.634c.52-.312.655-.697.385-1.165l-.302-.51-1.601.937.301.51c.281.477.666.55 1.217.228zm-.603 4.222l-.52-1.217-1.009.187-.301-.696 5.043-.801.312.717-4.045 3.12-.302-.686.822-.624zm.551-.406l1.092-.81c.27-.198.676-.458.905-.594l-.01-.02a13.2 13.2 0 01-1.051.25l-1.342.238.406.936zM7.726 29.314c-.052 0-.093-.03-.114-.083l-.458-1.414c-.01-.042-.041-.042-.052 0l-.457 1.414c-.01.042-.063.083-.115.083H5.033c-.052 0-.052.021-.02.052l1.206.874c.041.031.062.083.041.135l-.457 1.414c-.01.042 0 .063.041.031l1.206-.873c.042-.031.104-.031.136 0l1.206.873c.041.032.062.01.041-.03l-.457-1.415c-.01-.041 0-.104.042-.135l1.206-.874c.041-.03.031-.052-.021-.052H7.726zm58.827 0c-.052 0-.094-.03-.115-.083l-.457-1.414c-.01-.042-.042-.042-.052 0l-.458 1.414c-.01.042-.062.083-.114.083H63.87c-.052 0-.052.021-.021.052l1.206.874c.042.031.063.083.042.135l-.458 1.414c-.01.042 0 .063.042.031l1.206-.873c.042-.031.104-.031.135 0l1.207.873c.041.032.062.01.041-.03l-.457-1.415c-.01-.041 0-.104.041-.135l1.207-.874c.041-.03.03-.052-.021-.052h-1.487zM4.076 37.623c0-1.196 1.352-1.695 1.352-2.454 0-.229-.145-.426-.416-.426-.26 0-.416.176-.426.51h-.489c.031-.625.375-.978.905-.978.603 0 .925.426.925.883 0 .988-1.33 1.54-1.33 2.35h1.362v.469H4.076v-.354zm2.558-.613v-1.695c0-.635.375-1.03.968-1.03.603 0 .967.395.967 1.03v1.695c0 .634-.375 1.019-.967 1.019-.593 0-.968-.396-.968-1.02zm1.436 0v-1.695c0-.354-.167-.552-.479-.552-.301 0-.468.198-.468.552v1.695c0 .353.167.55.468.55.312-.01.479-.197.479-.55zm57.661.967h-.51v-2.964l-.55.385v-.572l.675-.5h.385v3.65zm2.808-1.103V37c0 .645-.385 1.03-.978 1.03-.592 0-.977-.385-.977-1.03v-.125c0-.353.145-.644.395-.8a.966.966 0 01-.343-.75v-.082c0-.593.354-.967.915-.967s.915.374.915.967v.083a.95.95 0 01-.343.749c.26.156.416.457.416.8zm-.5 0c0-.353-.176-.54-.478-.54-.301 0-.478.187-.478.54V37c0 .354.177.54.478.54.302 0 .479-.186.479-.54v-.125zm-.904-1.539c0 .343.156.53.426.53s.427-.187.427-.53v-.083c0-.333-.156-.499-.427-.499-.27 0-.426.166-.426.5v.082zm-52.223 5.938a.42.42 0 01-.489-.322.42.42 0 01.323-.489.414.414 0 01.488.322.402.402 0 01-.322.49zm-1.217-2.558l-.03-.385.737-.052c.104-.01.27 0 .27 0s-.166-.062-.28-.114l-.77-.385-.03-.395 1.58-.104.031.385-.738.052c-.104.01-.27 0-.27 0s.166.062.28.114l.77.385.03.385-1.58.114zm-.104-1.882l.01-.385.635.01.01-.572-.634-.01.01-.385 1.581.032-.01.384-.624-.01-.01.572.623.01-.01.385-1.58-.031zm.052-1.883l.042-.384.634.062.052-.572-.634-.062.041-.385 1.581.146-.041.384-.614-.062-.052.572.614.062-.042.385-1.58-.145zm1.529-2.277l.062-.333-.644-.124c-.063-.01-.115-.032-.115-.032s.042.032.073.073l.062.115-.28.176-.312-.499.062-.332 1.227.25.063-.334.322.063-.208 1.03-.312-.053zm.166-1.466a.466.466 0 00.219-.28c.041-.136-.01-.24-.094-.26-.125-.032-.197.072-.25.238l-.03.104-.209.032-.187-.27a.847.847 0 01-.104-.167s0 .052-.031.145l-.094.364-.322-.083.26-.967.229.063.27.405c.115-.218.333-.312.54-.25.26.073.469.323.375.708a.777.777 0 01-.343.468l-.229-.25zm.624-1.113c-.55-.187-.437-.873-.644-.946-.104-.031-.177.031-.208.114-.032.094.01.208.083.281l-.27.208a.607.607 0 01-.146-.634c.083-.25.312-.468.634-.354.468.156.354.79.54.884l.22-.645.311.104-.353 1.04a.685.685 0 00-.167-.052zm-.072-1.809a.409.409 0 01-.333.02c-.208-.093-.364-.322-.219-.665.115-.27.354-.437.635-.322.145.062.25.229.28.28a.366.366 0 01.375-.041c.218.094.374.364.218.728-.145.354-.447.447-.676.354-.197-.073-.26-.27-.28-.354zm-.042-.603c-.083-.031-.156 0-.198.093-.041.094 0 .156.063.177.093.042.187-.042.301-.145-.041-.032-.083-.094-.166-.125zm.676.478c.041-.104.02-.198-.073-.24-.083-.03-.187.074-.312.188.02.052.062.125.146.156.083.042.197-.01.239-.104zm-.073-1.05c-.406-.208-.665-.5-.458-.895.208-.395.593-.374.999-.166.405.208.665.5.468.905-.198.405-.603.353-1.009.156zm.354-.718c-.23-.114-.437-.166-.5-.03-.062.134.094.27.323.384.229.114.436.166.51.031.072-.135-.105-.26-.333-.385zm.353-.665c-.395-.229-.624-.541-.395-.926.229-.384.613-.332 1.009-.093.395.229.634.54.405.936-.229.395-.634.312-1.019.083zm.406-.686c-.219-.136-.416-.198-.5-.063-.083.135.073.27.292.406.218.135.426.197.499.072.083-.135-.073-.28-.291-.415z" fill="#838383"/><path d="M18.073 24.541l-.447-1.05.27-.395.728.499.104-.156.26.187-.104.156.312.219-.218.311-.312-.218-.395.582-.198-.135zm.323-.624l-.292-.197c-.072-.052-.135-.115-.135-.115s.063.084.094.156l.166.406.167-.25zm.27-1.871a.958.958 0 01.27-.23l.198.292a.519.519 0 00-.177.146c-.114.145-.094.301-.01.426a.44.44 0 01.093-.208c.208-.26.53-.24.749-.063a.536.536 0 01.083.76c-.197.25-.593.353-.988.03-.332-.28-.52-.769-.218-1.153zm.894.655c-.093-.073-.229-.094-.332.041-.053.073-.084.146-.032.188.146.114.333.093.395.01.073-.083.042-.177-.03-.24zm.229-.728c-.333-.302-.5-.655-.198-.988.302-.333.666-.198.999.114.332.312.51.666.208.999-.302.332-.676.176-1.009-.125zm.53-.582c-.187-.177-.374-.281-.468-.167-.104.114.021.28.208.458.188.176.375.28.479.166.104-.114-.021-.28-.219-.457zm.531-.551c-.312-.333-.458-.697-.125-.999.322-.312.676-.146.998.177.312.333.458.697.135 1.008-.343.302-.696.136-1.008-.187zm.572-.552c-.177-.187-.354-.301-.458-.197-.104.104 0 .28.177.467.177.188.353.313.468.209.104-.104-.01-.292-.187-.479zm1.653-1.393a.411.411 0 01.083-.572.413.413 0 01.572.083.413.413 0 01-.083.572.403.403 0 01-.572-.083zm1.799-2.174l.343-.187.302.53.135-.072-.01-.697.364-.198-.01.874.79.5-.375.207-.603-.395-.135.073.312.561-.343.187-.77-1.383zm1.498-.811l1.216-.561.655 1.435-.353.166-.52-1.144-.51.24.52 1.143-.353.167-.655-1.446zm1.715-.759l1.259-.457.54 1.487-.364.135-.426-1.175-.53.187.426 1.175-.364.135-.54-1.487zm2.704.416l.322-.083-.156-.645a.64.64 0 00-.03-.114s-.011.052-.042.093l-.073.104-.27-.176.322-.49.322-.082.302 1.216.332-.083.084.322-1.02.25-.093-.312zm1.393-.478a.5.5 0 00.344.083c.145-.02.208-.115.197-.198-.02-.124-.156-.145-.322-.114l-.104.02-.114-.166.155-.28c.063-.104.104-.167.104-.167s-.052.021-.145.042l-.375.041-.062-.322.978-.177.041.24-.25.426a.47.47 0 01.458.385c.052.27-.093.561-.478.634-.187.031-.406.01-.572-.104l.145-.343zm1.28.093c-.063-.582.603-.759.572-.988-.01-.114-.105-.145-.188-.135-.104.01-.176.104-.218.198l-.312-.156a.608.608 0 01.52-.406c.26-.03.551.083.593.416.052.489-.572.655-.562.863l.676-.083.042.333-1.092.125c-.01-.063-.031-.115-.031-.167zm1.591-.842c-.084-.073-.156-.166-.156-.291-.01-.229.135-.468.51-.479.29-.01.54.136.56.437.011.156-.093.323-.135.375.115.072.198.166.198.322.01.24-.177.489-.561.51-.385.02-.593-.208-.614-.468-.01-.208.135-.354.198-.406zm.395.52c.114-.01.187-.062.187-.166 0-.094-.146-.136-.302-.208-.03.041-.083.114-.072.197-.01.104.083.177.187.177zm.135-.821c0-.094-.073-.146-.177-.136-.104 0-.145.063-.135.136 0 .104.125.155.26.207a.294.294 0 00.052-.207zm.78.301c.01-.457.166-.811.613-.8.447.01.593.374.583.831-.01.458-.167.822-.614.811-.447-.01-.593-.384-.582-.842zm.79.02c.01-.26-.031-.457-.187-.467-.156 0-.198.197-.208.457-.01.26.031.468.187.468.156.01.208-.197.208-.457zm.728.49l.333.03.052-.654c0-.063.01-.125.01-.125s-.02.041-.073.083l-.104.073-.197-.26.457-.364.333.031-.104 1.248.333.031-.031.333-1.05-.094.041-.332zm1.383-.333c.073-.447.27-.78.707-.718.447.073.53.447.468.895-.073.447-.27.79-.717.727-.437-.072-.52-.457-.458-.904zm.79.114c.042-.25.021-.457-.124-.489-.156-.02-.23.177-.26.427-.042.26-.031.468.124.489.146.03.219-.167.26-.427zm.739.135c.104-.447.322-.759.759-.665.437.104.499.478.405.925-.104.447-.322.77-.759.676-.437-.104-.499-.499-.405-.936zm.78.167c.052-.25.062-.458-.094-.489-.145-.031-.24.156-.291.406-.052.25-.063.468.093.499.146.03.23-.156.292-.416zm.613.634l.322.094.188-.635c.02-.062.041-.114.041-.114s-.03.042-.083.062l-.114.052-.146-.29.52-.26.323.093-.354 1.196.322.093-.093.323-1.009-.302.083-.312zm2.735.447a.421.421 0 01.54-.218.421.421 0 01.22.54.417.417 0 01-.541.219.4.4 0 01-.219-.54zm3.453.832a.81.81 0 01.29 1.123.807.807 0 01-1.133.281.812.812 0 01-.28-1.134c.228-.395.706-.52 1.123-.27zm-.666 1.092c.208.125.468.052.614-.187a.437.437 0 00-.136-.614c-.208-.125-.468-.052-.603.167-.135.239-.083.52.125.634zm1.716-.385l.79.562-.197.27-.479-.333-.728 1.02-.312-.23.926-1.289zm1.092.791l.51.415c.238.198.26.5.062.75-.198.249-.51.29-.75.103l-.207-.166-.312.385-.302-.24.999-1.247zm-.032.956c.105.084.219.052.292-.041.072-.094.083-.208-.021-.291l-.156-.125-.27.332.155.125zm1.259.063l.28.27-.436.458.416.395.436-.458.281.27-1.092 1.155-.28-.27.426-.448-.416-.395-.426.447-.281-.27 1.092-1.154zm.842 2.61l.218.26.5-.427c.041-.041.093-.072.093-.072s-.041.01-.104.01l-.125-.02.032-.323.582.062.218.25-.946.821.218.26-.25.219-.686-.801.25-.24zm.863 1.009l.208.27.53-.395c.052-.031.094-.073.094-.073s-.052.01-.104 0l-.125-.02.052-.323.583.093.197.27-.998.76.208.27-.26.198-.634-.843.25-.207zm1.331.935c.021-.114.063-.218.177-.29.187-.126.468-.115.676.186.166.25.156.541-.083.697a.648.648 0 01-.385.073c0 .125-.042.25-.177.343-.197.135-.51.104-.728-.218-.208-.323-.125-.624.083-.76.156-.103.364-.051.437-.03zm-.239.603c.062.094.156.125.24.073.072-.052.04-.197.02-.364a.311.311 0 00-.208.032c-.094.062-.114.176-.052.26zm.77-.29c.072-.053.083-.136.03-.219-.051-.083-.124-.094-.186-.052-.084.062-.073.187-.042.333.042-.01.125-.01.198-.063zm-.26 1.06l.166.291.572-.333.104-.062s-.052 0-.104-.01l-.125-.042.094-.312.561.166.167.292-1.082.624.166.29-.29.167-.52-.915.29-.156zm.842 1.217c-.031.104-.042.25.02.353.063.125.167.167.24.135.114-.052.104-.187.031-.343l-.052-.104.135-.156.312.073c.115.031.198.063.198.063s-.031-.042-.073-.136l-.166-.343.301-.145.437.894-.218.104-.479-.125a.471.471 0 01-.239.551c-.24.115-.572.063-.749-.291a.776.776 0 01-.052-.572l.354.042zm.26 1.248c.54-.219.894.374 1.112.28.105-.041.115-.145.084-.218-.042-.094-.146-.146-.25-.156l.073-.343a.63.63 0 01.53.385c.104.239.073.55-.239.686-.457.187-.79-.364-.988-.312l.26.634-.312.125-.416-1.009c.052-.02.104-.052.146-.072zm2.142 1.57a.822.822 0 01.042.353l-.344.01a.553.553 0 00-.02-.218c-.063-.176-.198-.239-.354-.239a.533.533 0 01.125.187c.104.312-.094.583-.354.666a.527.527 0 01-.676-.343c-.104-.302.021-.687.51-.853.405-.135.915-.02 1.071.437zm-1.03.395c.105-.031.198-.135.146-.302-.031-.083-.073-.145-.145-.124-.177.062-.26.228-.219.332.031.094.125.125.218.094zm.489.593c.437-.115.822-.063.936.374.115.437-.197.666-.634.78-.437.114-.832.062-.947-.374-.114-.437.209-.666.645-.78zm.198.759c.25-.063.437-.156.395-.302-.042-.145-.25-.135-.5-.073-.249.063-.436.156-.405.312.042.146.26.136.51.063zm.177.738c.447-.083.831-.01.915.437.083.447-.25.655-.697.738-.447.083-.832.01-.915-.437-.083-.447.25-.655.697-.738zm.145.78c.25-.052.447-.125.416-.28-.031-.157-.239-.157-.489-.115-.25.052-.447.125-.426.28.02.157.25.167.5.115zm-.166.926a.484.484 0 00-.104.343c.02.145.093.218.187.208.125-.01.156-.146.135-.312l-.01-.115.177-.104.27.177c.104.063.166.114.166.114s-.02-.051-.03-.145l-.042-.375.332-.041.115.988-.24.031-.405-.28a.468.468 0 01-.416.436c-.27.031-.562-.125-.603-.52a.782.782 0 01.145-.562l.323.157zm-.177 1.268c.582-.031.728.645.946.635.115-.01.156-.094.146-.177-.01-.104-.094-.187-.177-.229l.177-.302a.61.61 0 01.374.541c.01.26-.125.551-.457.562-.489.02-.624-.614-.822-.614l.031.686-.332.021-.052-1.092a.47.47 0 01.166-.03zm.988 2.028a.603.603 0 01.145.094s-.01-.01 0-.094l.01-.624.334.01-.021 1.134h-.27l-1.3-.686.01-.406 1.092.572zm-.655.925a.486.486 0 00-.167.312c-.01.104.052.23.177.24.125.01.208-.094.219-.24a.41.41 0 00-.042-.218l.094-.198.821.125-.062.884-.333-.02.041-.552-.145-.02c-.031 0-.062-.011-.062-.011.01.02.01.083.01.114-.031.375-.28.552-.562.53-.322-.02-.54-.28-.52-.623a.73.73 0 01.25-.52l.28.197zm-.011 2.683a.41.41 0 01.323.49c-.042.228-.26.363-.489.322-.229-.042-.364-.26-.322-.49a.411.411 0 01.488-.322zm-36.24 12.729a.412.412 0 11.635.53.412.412 0 11-.635-.53zm1.831 1.996c.29-.145.488-.395.644-.634l.198-.312.905.572-.676 1.06.145.094-.343.54-.291-.186.166-.26-.77-.49-.166.26-.301-.186.343-.541.146.083zm.748.468l.5-.78-.27-.166-.043.062c-.135.208-.364.489-.603.624l.416.26zm1.425-.603l.873.468-.155.291-.53-.291-.136.25.426.228-.156.291-.426-.228-.146.26.562.301-.156.291-.905-.488.749-1.373zm1.144 1.175l.218-.478.967.436-.655 1.446-.353-.156.51-1.144-.282-.125-.083.177c-.322.707-.655.884-1.07.697l.145-.323c.197.063.364-.01.603-.53zm1.892.239l.385.135-.031 1.675-.374-.136.02-.343-.467-.166-.209.28-.374-.135 1.05-1.31zm.01 1.009l.022-.322c.01-.104.03-.281.03-.281l-.155.239-.187.26.29.104zm1.093-.624l.956.27-.093.323-.582-.167-.073.27.468.136-.094.322-.468-.135-.083.291.613.177-.093.322-.988-.28.437-1.529zm1.352.374l.415.084.094.696c.01.104.031.27.031.27s.073-.145.136-.239l.363-.613.416.083-.187 1.58-.385-.072.094-.707c.01-.115.052-.26.052-.26s-.083.156-.135.239l-.25.416-.322-.062-.073-.479c-.01-.104-.031-.28-.031-.28s-.02.145-.052.26l-.187.686-.385-.073.405-1.529zm2.537.437l.988.094-.031.332-.604-.052-.03.292.478.041-.032.333-.478-.042-.031.302.634.062-.031.333-1.02-.093.157-1.602zm1.331 1.373c.166-.281.208-.593.218-.874l.01-.374 1.072.02-.021 1.259h.177l-.01.645-.344-.01.01-.313-.914-.02-.01.312-.354-.01.01-.646.156.01zm.884.02l.02-.925-.311-.01v.072c0 .25-.052.604-.188.843l.479.02zm1.081-.062a.306.306 0 00.177.073c.063 0 .104-.031.125-.094l-.676-1.164.426-.021.291.551c.063.114.094.208.094.208s.02-.104.052-.218l.166-.583.406-.02-.406 1.206c-.062.187-.176.436-.447.447a.573.573 0 01-.364-.104l.156-.28zm1.914-1.362l.385-.063.114.728c.02.094.02.27.02.27s.042-.176.084-.29l.312-.801.385-.063.25 1.56-.386.063-.114-.728c-.02-.094-.02-.27-.02-.27s-.042.176-.084.29l-.322.801-.385.063-.24-1.56zm2.027.78c.094.052.24.104.364.073.136-.032.188-.104.167-.219-.021-.093-.094-.135-.219-.104l-.187.042-.072-.302.156-.03c.114-.032.166-.115.145-.199-.02-.093-.104-.145-.218-.114a.563.563 0 00-.291.198l-.209-.24a.797.797 0 01.49-.311c.228-.052.53.02.592.322a.374.374 0 01-.125.385c.156.02.281.114.323.28.072.302-.146.53-.437.604a.783.783 0 01-.624-.104l.145-.281zm1.654-1.581l.395-.145.437.55c.062.084.166.22.166.22s-.01-.167-.01-.271l-.01-.707.395-.146.655 1.445-.364.125-.281-.655c-.052-.114-.094-.25-.094-.25s.01.177.01.281v.49l-.311.114-.312-.375a6.312 6.312 0 00-.177-.218s.062.135.094.25l.197.686-.364.135-.426-1.529zm2.381.239c.01-.083.01-.114.01-.114-.207-.02-.343-.146-.426-.322a.476.476 0 01.073-.552.754.754 0 01.26-.156l.5-.228.654 1.445-.353.156-.219-.489-.124.063-.052.613-.396.177.073-.593zm.385-.55l-.166-.365-.115.052c-.083.042-.135.073-.156.115-.02.041-.01.104.01.156.063.124.157.156.271.104l.156-.063zm1.05-1.373a.819.819 0 01.624-.084l-.02.343a.608.608 0 00-.427.053c-.28.156-.291.405-.177.613.115.208.354.354.624.208.135-.073.229-.229.281-.374l.312.156a.857.857 0 01-.437.54c-.447.24-.894.084-1.123-.322-.218-.426-.093-.894.343-1.133zm1.103-.614l.343-.218 1.31 1.04-.333.218-.26-.229-.416.27.104.333-.332.219-.416-1.633zm.81.593l-.238-.208c-.084-.073-.198-.198-.198-.198s.062.167.094.26l.093.312.25-.166zm1.706-1.414a.412.412 0 11.634-.53.412.412 0 01-.052.582.422.422 0 01-.582-.052zm-3.296-34.317H26.84c-.51.291-1.83.749-2.35 1.061-.427.25-1.841 1.653-2.018 1.83v5.19h5.646l-5.99 22.866c.677.333 2.819 2.538 3.068 2.777.115.104 3.983 1.861 4.035 1.892l1.508-5.657h10.763v6.084h1.934c.135-.198 1.83-.936 2.496-1.144.104-.031 2.703-1.643 3.66-2.517v-30.49a59.67 59.67 0 00-2.516-1.892zm-5.574 21.87h-8.683l3.619-13.8h5.064v13.8z" fill="#838383"/></svg>