<svg width="64" height="64" fill="none" xmlns="http://www.w3.org/2000/svg"><g clip-path="url(#clip0)"><path d="M19.895 54.693L16.75 60.25h-6.438l4.376-7.73 5.207 2.173zm14.71 0l3.145 5.557h6.438l-4.375-7.73-5.208 2.173z" fill="#fff"/><path d="M27.25 55.75c14.36 0 26-11.64 26-26s-11.64-26-26-26-26 11.64-26 26 11.64 26 26 26z" fill="#4CAE09"/><path d="M27.25 47.75c9.941 0 18-8.059 18-18s-8.059-18-18-18-18 8.059-18 18 8.059 18 18 18z" fill="#FFFB99"/><path d="M27.25 39.75c5.523 0 10-4.477 10-10s-4.477-10-10-10-10 4.477-10 10 4.477 10 10 10z" fill="#4CAE09"/><path d="M50.49 24.51l-5.24 5.24 5.24 5.24h12.26l-5.24-5.24 5.24-5.24H50.49z" fill="#fff"/><path d="M39.11 17.923a1.246 1.246 0 001.768 0 1.25 1.25 0 000-1.768l-.017-.017a1.25 1.25 0 10-1.767 1.768l.017.017z" fill="#292929"/><path d="M59.277 29.75l4.357-4.357a1.25 1.25 0 00-.884-2.134h-9.032a27.153 27.153 0 00-7.2-12.778C41.373 5.335 34.529 2.5 27.25 2.5S13.128 5.335 7.981 10.481C2.835 15.628 0 22.471 0 29.75c0 7.279 2.834 14.122 7.981 19.269a27.446 27.446 0 005.01 3.962l-3.766 6.653a1.25 1.25 0 001.088 1.866h6.437c.45 0 .866-.242 1.088-.634L20.5 56.16c2.179.553 4.442.839 6.749.839 2.307 0 4.57-.286 6.75-.839l2.662 4.705a1.25 1.25 0 001.088.634h6.438a1.25 1.25 0 001.087-1.866l-3.765-6.653a27.448 27.448 0 005.009-3.962 27.158 27.158 0 007.2-12.778h9.031a1.25 1.25 0 00.884-2.134l-4.357-4.357zm-2.286-1.25h-8.723l2.74-2.74h8.724l-2.74 2.74zM16.021 59h-3.565l2.721-4.807c.934.463 1.893.872 2.873 1.222L16.021 59zm26.023 0h-3.565l-2.03-3.585c.982-.35 1.94-.76 2.874-1.222L42.043 59zm2.707-11.75a24.862 24.862 0 01-5.48 4.146c-.025.012-.05.023-.074.037a.408.408 0 00-.044.028 24.429 24.429 0 01-4.792 2.007c-.066.013-.13.032-.195.056a24.86 24.86 0 01-6.916.976 24.86 24.86 0 01-6.916-.976 1.239 1.239 0 00-.195-.056 24.425 24.425 0 01-4.792-2.007c-.015-.01-.029-.02-.044-.028-.024-.014-.049-.025-.073-.037a24.861 24.861 0 01-5.48-4.145A24.588 24.588 0 012.5 29.75a24.588 24.588 0 017.25-17.5A24.588 24.588 0 0127.25 5a24.588 24.588 0 0117.5 7.25 24.664 24.664 0 016.388 11.01h-.647c-.332 0-.65.131-.884.365l-3.318 3.318a19.26 19.26 0 00-2.179-6.492 1.25 1.25 0 00-2.188 1.208A16.597 16.597 0 0143.94 28.5h-5.512a11.163 11.163 0 00-3.224-6.705A11.176 11.176 0 0027.25 18.5c-3.005 0-5.83 1.17-7.955 3.295A11.177 11.177 0 0016 29.75c0 3.005 1.17 5.83 3.295 7.955A11.176 11.176 0 0027.25 41c3.005 0 5.83-1.17 7.955-3.295A11.163 11.163 0 0038.429 31h5.506c-.298 3.907-1.947 7.7-4.841 10.594A16.64 16.64 0 0127.25 46.5a16.64 16.64 0 01-11.844-4.906A16.64 16.64 0 0110.5 29.75a16.64 16.64 0 014.906-11.844c5.248-5.248 13.445-6.41 19.935-2.828a1.25 1.25 0 001.208-2.188 19.389 19.389 0 00-11.871-2.218 19.074 19.074 0 00-11.04 5.466A19.123 19.123 0 008 29.75c0 5.142 2.002 9.976 5.638 13.612A19.124 19.124 0 0027.25 49c5.142 0 9.976-2.002 13.612-5.638a19.07 19.07 0 005.432-10.8l3.313 3.313c.234.234.552.366.884.366h.647a24.67 24.67 0 01-6.387 11.01zM31.333 27.394a1.25 1.25 0 00-1.708-.457l-3 1.732a1.25 1.25 0 000 2.165l3 1.732A1.25 1.25 0 0031.402 31h4.509a8.683 8.683 0 01-2.474 4.937A8.692 8.692 0 0127.25 38.5a8.693 8.693 0 01-6.187-2.563A8.693 8.693 0 0118.5 29.75a8.69 8.69 0 012.563-6.187A8.693 8.693 0 0127.25 21a8.69 8.69 0 016.187 2.563 8.683 8.683 0 012.474 4.937h-4.509a1.247 1.247 0 00-.07-1.107zm19.675 6.348L48.268 31h8.723l2.741 2.74h-8.724z" fill="#292929"/></g><defs><clipPath id="clip0"><path fill="#fff" d="M0 0h64v64H0z"/></clipPath></defs></svg>