<svg width="64" height="64" fill="none" xmlns="http://www.w3.org/2000/svg"><path d="M51.2 6.4H12.8a4.267 4.267 0 00-4.267 4.267v48a4.267 4.267 0 004.267 4.266h38.4a4.267 4.267 0 004.267-4.266v-48A4.267 4.267 0 0051.2 6.4z" fill="#4CAE09"/><path d="M49.067 10.666h-5.334V12.8H20.267v-2.134h-5.334A2.133 2.133 0 0012.8 12.8v43.733c0 1.179.954 2.134 2.133 2.134h34.134a2.133 2.133 0 002.133-2.134V12.8a2.133 2.133 0 00-2.133-2.134z" fill="#FFF2C4"/><circle cx="23" cy="48" r="3" fill="#fff"/><circle cx="41" cy="39" r="3" fill="#fff"/><path d="M38.305 4.267a3.587 3.587 0 01-2.887-1.468A4.234 4.234 0 0032 1.067a4.233 4.233 0 00-3.418 1.732 3.588 3.588 0 01-2.887 1.468h-2.73a2.699 2.699 0 00-2.698 2.698V12.8h23.466V6.965a2.699 2.699 0 00-2.698-2.698h-2.73z" fill="#C97B20"/><path d="M33.072 9.6h-2.144a1.062 1.062 0 01-1.061-1.061V6.395c0-.586.476-1.062 1.061-1.062h2.144c.586 0 1.061.476 1.061 1.062v2.144c0 .585-.475 1.061-1.06 1.061z" fill="#fff"/><path d="M26.667 28.8c-.273 0-.546-.105-.754-.313l-8.534-8.533a1.065 1.065 0 111.508-1.508l8.534 8.533a1.065 1.065 0 01-.754 1.821z" fill="#292929"/><path d="M18.133 28.8a1.065 1.065 0 01-.754-1.82l8.534-8.534a1.065 1.065 0 111.508 1.508l-8.534 8.534a1.064 1.064 0 01-.754.312zm27.734 25.6c-.273 0-.546-.105-.754-.313l-4.267-4.266a1.065 1.065 0 111.508-1.508l4.267 4.266a1.065 1.065 0 01-.754 1.82z" fill="#292929"/><path d="M41.6 54.4a1.065 1.065 0 01-.754-1.82l4.267-4.268a1.065 1.065 0 111.508 1.508l-4.267 4.267a1.064 1.064 0 01-.754.313zm-18.133-2.133A4.27 4.27 0 0119.2 48a4.27 4.27 0 014.267-4.267A4.27 4.27 0 0127.733 48a4.27 4.27 0 01-4.266 4.267zm0-6.4A2.136 2.136 0 0021.333 48c0 1.176.957 2.133 2.134 2.133A2.136 2.136 0 0025.6 48a2.136 2.136 0 00-2.133-2.133zm17.067-2.134a4.27 4.27 0 01-4.267-4.266 4.27 4.27 0 014.267-4.267 4.27 4.27 0 014.266 4.267 4.27 4.27 0 01-4.266 4.266zm0-6.4a2.136 2.136 0 00-2.134 2.134c0 1.176.957 2.133 2.134 2.133a2.136 2.136 0 002.133-2.133 2.136 2.136 0 00-2.133-2.134zM23.466 38.4a1.066 1.066 0 110-2.133c8.235 0 14.934-6.699 14.934-14.934a1.066 1.066 0 112.133 0c0 9.41-7.656 17.067-17.067 17.067z" fill="#292929"/><path d="M43.733 26.667c-.273 0-.546-.105-.754-.313l-3.512-3.512-3.513 3.512a1.065 1.065 0 11-1.508-1.508l4.267-4.267a1.065 1.065 0 011.508 0l4.267 4.267a1.065 1.065 0 01-.755 1.82zm.001-12.8H20.267A1.066 1.066 0 0119.2 12.8V6.965A3.77 3.77 0 0122.966 3.2h2.73c.793 0 1.551-.386 2.028-1.034A5.334 5.334 0 0132 0c1.68 0 3.278.81 4.276 2.166a2.533 2.533 0 002.03 1.034h2.729A3.77 3.77 0 0144.8 6.965V12.8c0 .59-.478 1.067-1.066 1.067zm-22.4-2.134h21.333V6.965c0-.899-.733-1.632-1.632-1.632h-2.73c-1.468 0-2.87-.71-3.746-1.901A3.15 3.15 0 0032 2.133c-1.018 0-1.95.473-2.558 1.299a4.675 4.675 0 01-3.747 1.901h-2.73c-.899 0-1.631.733-1.631 1.632v4.768z" fill="#292929"/><path d="M51.2 64H12.8a5.34 5.34 0 01-5.333-5.333v-48A5.34 5.34 0 0112.8 5.333h7.467c.588 0 1.066.477 1.066 1.067v5.333h21.334V6.4c0-.59.478-1.067 1.066-1.067H51.2a5.34 5.34 0 015.333 5.334v48A5.34 5.34 0 0151.2 64zM12.8 7.467a3.204 3.204 0 00-3.2 3.2v48c0 1.764 1.436 3.2 3.2 3.2h38.4c1.764 0 3.2-1.436 3.2-3.2v-48c0-1.765-1.436-3.2-3.2-3.2h-6.4V12.8c0 .59-.478 1.067-1.066 1.067H20.267A1.066 1.066 0 0119.2 12.8V7.467h-6.4z" fill="#292929"/><path d="M49.067 59.733H14.933a3.204 3.204 0 01-3.2-3.2V12.8c0-1.764 1.436-3.2 3.2-3.2h5.334c.588 0 1.066.477 1.066 1.066v1.067h21.334v-1.067c0-.59.478-1.066 1.066-1.066h5.334c1.764 0 3.2 1.436 3.2 3.2v43.733c0 1.764-1.436 3.2-3.2 3.2zm-34.134-48c-.587 0-1.066.478-1.066 1.067v43.733c0 .589.479 1.067 1.066 1.067h34.134c.587 0 1.066-.478 1.066-1.067V12.8c0-.589-.479-1.067-1.066-1.067H44.8V12.8c0 .59-.478 1.066-1.067 1.066H20.267A1.066 1.066 0 0119.2 12.8v-1.067h-4.267z" fill="#292929"/><path d="M33.072 10.667h-2.144A2.13 2.13 0 0128.8 8.539V6.395a2.13 2.13 0 012.128-2.128h2.144A2.13 2.13 0 0135.2 6.395v2.144a2.13 2.13 0 01-2.128 2.128zm0-2.134V9.6 8.533zm-.005-2.138l-2.139.005.006 2.139 2.134-.006-.001-2.138z" fill="#292929"/></svg>