<svg width="64" height="64" fill="none" xmlns="http://www.w3.org/2000/svg"><path d="M14.305 27.273h26.523v12.958H14.305V27.273z" fill="#FEA02C"/><path d="M23.445 35.197v-3.96H18.29v2.272l5.156 1.688z" fill="#FF5D5D"/><path d="M14.665 57.903a54.036 54.036 0 0116.904-17.309l.26-.363a54.062 54.062 0 00-28.657-8.216v28.813h9.707l1.786-2.925z" fill="#4CAE09"/><path d="M12.879 60.828l1.786-2.926a54.082 54.082 0 0146.163-25.907v28.832h-47.95z" fill="#75D52A"/><path d="M14.305 27.273l6.562-6.601 6.563 6.601H14.305z" fill="#FE8F8D"/><path d="M40.828 27.273l-6.562-6.601H20.867l6.563 6.601h13.398z" fill="#FF5D5D"/><path d="M49.742 28.644c-8.748-7.034-8.748-18.439 0-25.472 8.748 7.033 8.748 18.438 0 25.472zM9.5 26.629c-6.614-5.318-6.614-13.94 0-19.258 6.614 5.318 6.614 13.94 0 19.258zm14.793 19.38c-6.435-3.394-13.68-5.264-21.121-5.264v9.434a35.8 35.8 0 0114.631 3.148" fill="#75D52A"/><path d="M23.158 60.828c8.357-12.446 22.615-20.103 37.67-20.103v9.434c-9.63 0-18.847 3.955-25.524 10.669H23.158z" fill="#4CAE09"/><path d="M60.828 48.987c-9.787 0-19.393 4.015-26.354 11.014a1.171 1.171 0 101.661 1.653c6.525-6.56 15.525-10.323 24.693-10.323a1.172 1.172 0 100-2.344zM36.39 47.902a1.171 1.171 0 00-1.626-.315 46.253 46.253 0 00-12.58 12.587 1.172 1.172 0 001.946 1.307A43.91 43.91 0 0136.076 49.53c.536-.362.677-1.09.315-1.627zm24.438-8.349a46.09 46.09 0 00-15.412 2.66 1.171 1.171 0 10.782 2.21 43.752 43.752 0 0114.63-2.526 1.172 1.172 0 100-2.343z" fill="#292929"/><path d="M18.79 53.96c7.71-10.053 18.87-17.032 31.185-19.648l.006-.001a52.23 52.23 0 0110.847-1.143 1.172 1.172 0 000-2.344c-3.332 0-6.651.305-9.914.902v-2.53c4.235-3.586 6.56-8.284 6.56-13.287 0-5.174-2.485-10.02-6.998-13.65a1.173 1.173 0 00-1.469 0c-4.512 3.63-6.998 8.476-6.998 13.65 0 5.003 2.325 9.701 6.56 13.287v3.009a55.482 55.482 0 00-6.57 1.93v-6.861c0-.322-.13-.614-.34-.826l-6.562-6.602a1.173 1.173 0 00-.832-.345H20.867c-.312 0-.611.124-.83.345l-6.563 6.602c-.21.212-.341.504-.341.826v4.476a54.966 54.966 0 00-2.461-.395v-4.177c3.203-2.756 4.96-6.349 4.96-10.177 0-4-1.917-7.743-5.398-10.542a1.172 1.172 0 00-1.468 0C5.285 9.257 3.368 13 3.368 17c0 3.828 1.757 7.421 4.96 10.176v3.909a55.409 55.409 0 00-5.156-.242 1.172 1.172 0 100 2.343c9.37 0 18.536 2.48 26.616 7.183a55.315 55.315 0 00-5.536 4.3c-6.546-3.336-13.82-5.096-21.08-5.096a1.172 1.172 0 000 2.344c6.606 0 13.225 1.536 19.239 4.453a55.393 55.393 0 00-4.984 5.517 36.658 36.658 0 00-14.255-2.88 1.172 1.172 0 000 2.343c4.394 0 8.691.834 12.795 2.474a54.74 54.74 0 00-2.303 3.468l-1.785 2.925a1.171 1.171 0 102 1.221l1.786-2.925a52.007 52.007 0 013.01-4.404c.042-.046.08-.096.115-.15zm25.563-38.051c0-4.166 1.906-8.111 5.389-11.203 3.483 3.092 5.389 7.037 5.389 11.203 0 3.67-1.482 7.17-4.217 10.066V17a1.172 1.172 0 10-2.344 0v8.974c-2.736-2.896-4.217-6.396-4.217-10.066zM5.712 17c0-2.99 1.338-5.828 3.788-8.084 2.45 2.255 3.788 5.095 3.788 8.084 0 2.47-.915 4.839-2.616 6.86v-7.798a1.172 1.172 0 10-2.344 0v7.798C6.627 21.839 5.712 19.47 5.712 17zm32.299 9.101H27.917l-4.232-4.258h10.093l4.233 4.258zm-17.144-3.767l3.746 3.767h-7.49l3.744-3.767zm-5.39 6.11h10.78v7.453c-.543-.25-1.09-.492-1.64-.724V31.24c0-.647-.524-1.172-1.172-1.172H18.29c-.647 0-1.172.525-1.172 1.172v1.393a55.954 55.954 0 00-1.64-.402v-3.784zm6.796 5.805a54.66 54.66 0 00-2.812-.952v-.888h2.812v1.84zm6.329 2.795v-8.6h11.055v6.6a55.015 55.015 0 00-7.673 3.907 55.537 55.537 0 00-3.383-1.907z" fill="#292929"/><path d="M49.742 13.719c.308 0 .61-.126.828-.344a1.18 1.18 0 00.344-.828c0-.309-.125-.61-.344-.829a1.18 1.18 0 00-.828-.343c-.308 0-.611.125-.828.343a1.18 1.18 0 00-.344.829 1.176 1.176 0 001.172 1.172zM39.57 44.805a1.18 1.18 0 00-.343.828c0 .31.125.61.343.829.218.218.52.343.828.343.309 0 .611-.125.829-.343a1.18 1.18 0 00.343-.829c0-.308-.125-.61-.343-.828a1.179 1.179 0 00-.829-.344c-.308 0-.61.126-.828.344z" fill="#292929"/></svg>