<svg width="64" height="64" fill="none" xmlns="http://www.w3.org/2000/svg"><g clip-path="url(#clip0)"><path fill-rule="evenodd" clip-rule="evenodd" d="M32 12.358l5.864 4.299c2.436 1.785 5.483-1.17 3.475-3.717l-7.184-9.112c-.579-.734-1.322-1.195-2.155-1.195-.833 0-1.576.461-2.154 1.195l-7.185 9.112c-2.008 2.547 1.04 5.502 3.475 3.717L32 12.358z" fill="#9EE013"/><path fill-rule="evenodd" clip-rule="evenodd" d="M35.799 22.164c0-2.098-1.7-3.799-3.799-3.799-5.039.2-5.037 7.398 0 7.597 2.098 0 3.799-1.7 3.799-3.798z" fill="#FFDCD5"/><path fill-rule="evenodd" clip-rule="evenodd" d="M10.608 27.9l5.9-4.249c2.451-1.764.582-5.576-2.46-4.453L3.162 23.215c-.877.324-1.545.888-1.803 1.68-.257.792-.048 1.641.471 2.418l6.446 9.649c1.801 2.697 5.554.711 4.608-2.156L10.608 27.9z" fill="#86DB70"/><path fill-rule="evenodd" clip-rule="evenodd" d="M21.108 27.317c-4.855-1.366-7.076 5.48-2.348 7.226a3.799 3.799 0 002.348-7.226zm5.668 14.725a3.799 3.799 0 00-5.306.84c-2.8 4.194 3.024 8.424 6.146 4.465a3.799 3.799 0 00-.84-5.305z" fill="#FFDCD5"/><path fill-rule="evenodd" clip-rule="evenodd" d="M26.05 53.017l-7.27.03-2.218-6.924c-.921-2.875-5.124-2.276-4.996.965l.457 11.594c.036.934.366 1.744 1.04 2.233.674.49 1.546.553 2.445.3l11.169-3.149c3.121-.88 2.393-5.062-.627-5.05z" fill="#A0E5A5"/><path fill-rule="evenodd" clip-rule="evenodd" d="M37.224 42.042a3.799 3.799 0 104.466 6.146c3.96-3.125-.274-8.946-4.465-6.146z" fill="#FFDCD5"/><path fill-rule="evenodd" clip-rule="evenodd" d="M45.221 53.048l-7.27-.031c-3.02-.013-3.749 4.17-.627 5.05l11.168 3.148c.9.254 1.771.19 2.445-.3.674-.49 1.004-1.299 1.04-2.233l.458-11.594c.127-3.24-4.076-3.84-4.996-.965l-2.218 6.925z" fill="#61AE25"/><path fill-rule="evenodd" clip-rule="evenodd" d="M40.454 32.104a3.799 3.799 0 004.786 2.44c4.732-1.75 2.504-8.593-2.347-7.226a3.799 3.799 0 00-2.44 4.786z" fill="#FFDCD5"/><path fill-rule="evenodd" clip-rule="evenodd" d="M53.392 27.9l-2.276 6.906c-.946 2.867 2.807 4.853 4.608 2.156l6.446-9.649c.52-.777.728-1.626.47-2.418-.257-.792-.925-1.356-1.801-1.68l-10.887-4.017c-3.042-1.123-4.911 2.689-2.46 4.453l5.9 4.25z" fill="#0BF5A1"/><path d="M26.875 17.665L32 13.908l5.125 3.757a3.95 3.95 0 002.34.79c.991 0 1.962-.397 2.714-1.176 1.353-1.4 1.411-3.503.142-5.113l-7.185-9.112c-1.696-2.216-4.575-2.216-6.272 0l-7.184 9.112c-1.27 1.61-1.211 3.712.142 5.113 1.361 1.41 3.44 1.569 5.053.386zm-3.232-3.951l7.185-9.112c.725-.95 1.622-.948 2.345 0l7.185 9.112c.746.946.206 1.639.023 1.829-.368.38-1.053.637-1.777.106l-5.864-4.3a1.25 1.25 0 00-1.479 0l-5.864 4.3c-.723.53-1.409.274-1.776-.106-.184-.19-.724-.883.022-1.829z" fill="#292929"/><path d="M37.049 22.164A5.054 5.054 0 0032 17.115c-6.698.277-6.696 9.82 0 10.097a5.054 5.054 0 005.049-5.048zM32 24.712a2.551 2.551 0 01-2.549-2.548c.14-3.381 4.958-3.38 5.097 0A2.551 2.551 0 0132 24.712zM12.143 39.101c1.762-.859 2.555-2.786 1.929-4.687l-1.99-6.035 5.157-3.713c1.624-1.17 2.116-3.195 1.195-4.925-.914-1.72-2.896-2.425-4.819-1.716a1.25 1.25 0 10.866 2.346c1.13-.417 1.622.31 1.746.544.248.466.28 1.198-.449 1.722l-5.9 4.249a1.25 1.25 0 00-.457 1.406l2.277 6.905c.28.852-.175 1.425-.65 1.657-.237.116-1.063.415-1.732-.586l-6.446-9.65c-.232-.346-.476-.86-.321-1.336.154-.477.654-.75 1.046-.894a1.25 1.25 0 10-.866-2.345c-1.287.475-2.196 1.35-2.558 2.466-.363 1.115-.142 2.358.62 3.498l6.446 9.65c.79 1.183 2.004 1.831 3.26 1.83a3.75 3.75 0 001.646-.386z" fill="#292929"/><path d="M15.133 29.37a5.015 5.015 0 00.303 3.852c2.01 3.964 7.892 3.552 9.3-.732a5.055 5.055 0 00-3.242-6.361 5.055 5.055 0 00-6.361 3.241zm2.377.773a2.551 2.551 0 013.211-1.637 2.552 2.552 0 011.637 3.212 2.551 2.551 0 01-3.211 1.636 2.53 2.53 0 01-1.483-1.267 2.531 2.531 0 01-.154-1.944zm8.554 21.624h-.02l-6.354.027-1.938-6.052c-.61-1.906-2.384-2.999-4.315-2.658-1.918.338-3.2 2.005-3.12 4.053l.457 11.595c.054 1.37.606 2.506 1.554 3.195.983.727 2.323.84 3.52.491l11.168-3.148c4.415-1.228 3.58-7.476-.952-7.503zm.274 5.096l-11.169 3.15c-.402.113-.966.186-1.371-.108-.405-.295-.51-.854-.527-1.272l-.456-11.594c-.047-1.204.797-1.447 1.057-1.493.607-.087 1.216.13 1.5.959l2.217 6.924a1.25 1.25 0 001.19.87h.005l7.271-.032h.009c.891 0 1.293.608 1.367 1.13.037.261.066 1.14-1.093 1.467z" fill="#292929"/><path d="M23.753 40.128a5.015 5.015 0 00-3.294 2.02c-1.64 2.162-1.112 5.502 1.117 7.051 2.172 1.643 5.5 1.11 7.052-1.117 1.64-2.162 1.111-5.502-1.117-7.052a5.014 5.014 0 00-3.758-.902zm3.307 4.588a2.53 2.53 0 01-.455 1.897c-.4.55-.991.913-1.663 1.019a2.531 2.531 0 01-1.897-.455 2.53 2.53 0 01-1.02-1.664 2.53 2.53 0 01.456-1.896c.4-.55.991-.913 1.663-1.02a2.534 2.534 0 011.897.456c.55.4.913.99 1.02 1.663zm23.503-1.633c-1.93-.34-3.705.753-4.315 2.659l-1.938 6.052-6.355-.027h-.018c-4.535.027-5.365 6.276-.953 7.502l11.169 3.149c1.197.35 2.536.236 3.52-.491.948-.69 1.5-1.825 1.554-3.196l.457-11.594c.08-2.048-1.203-3.715-3.12-4.054zm.622 3.955l-.456 11.595c-.017.417-.121.977-.526 1.271-.405.294-.97.22-1.372.108l-11.168-3.149c-1.16-.327-1.13-1.205-1.093-1.466.073-.522.475-1.13 1.366-1.13h.009l7.27.03h.006a1.25 1.25 0 001.19-.868l2.218-6.925c.274-.855.98-1.05 1.5-.959.26.046 1.104.29 1.056 1.493z" fill="#292929"/><path d="M40.247 40.128a5.017 5.017 0 00-3.757.903 5.015 5.015 0 00-2.019 3.294c-.688 4.433 4.312 7.502 7.954 4.874a5.054 5.054 0 001.117-7.052 5.016 5.016 0 00-3.295-2.019zm.709 7.049c-.551.4-1.225.562-1.897.455a2.532 2.532 0 01-1.663-1.019 2.532 2.532 0 01-.456-1.897 2.532 2.532 0 011.02-1.663 2.534 2.534 0 011.896-.455 2.532 2.532 0 011.663 1.019 2.551 2.551 0 01-.563 3.56zM63.83 24.509c-.362-1.116-1.271-1.991-2.559-2.466l-10.886-4.018c-1.923-.71-3.904-.004-4.819 1.715-.92 1.731-.429 3.756 1.195 4.926l5.157 3.713-1.99 6.035c-.626 1.9.167 3.828 1.929 4.687 1.76.856 3.77.255 4.907-1.445l6.446-9.649c.762-1.14.982-2.383.62-3.498zm-2.7 2.11l-6.445 9.649c-.67 1.001-1.495.702-1.732.586-.476-.232-.93-.805-.65-1.657l2.276-6.906a1.25 1.25 0 00-.456-1.405l-5.9-4.249c-.73-.524-.697-1.256-.45-1.723.249-.499.913-.878 1.747-.543l10.886 4.017c.392.145.892.417 1.046.893.155.477-.09.99-.321 1.338z" fill="#292929"/><path d="M48.565 33.222c.612-1.201.72-2.57.303-3.852a5.016 5.016 0 00-2.51-2.938 5.017 5.017 0 00-3.852-.303 5.055 5.055 0 00-3.241 6.362 5.016 5.016 0 002.51 2.938 5.016 5.016 0 003.851.303 5.016 5.016 0 002.939-2.51zm-6.922-1.504a2.551 2.551 0 011.636-3.211 2.532 2.532 0 011.944.153 2.531 2.531 0 011.267 1.483 2.53 2.53 0 01-.153 1.945 2.532 2.532 0 01-1.483 1.266 2.552 2.552 0 01-3.212-1.636zM8.605 22.457c1.658-.066 1.657-2.435 0-2.5h-.001c-1.659.066-1.656 2.434 0 2.5z" fill="#292929"/></g><defs><clipPath id="clip0"><path fill="#fff" d="M0 0h64v64H0z"/></clipPath></defs></svg>