<svg width="73" height="73" viewBox="0 0 73 73" fill="none" xmlns="http://www.w3.org/2000/svg">
<path d="M36.5 0C16.3782 0 0 16.3782 0 36.5C0 56.6218 16.3782 73 36.5 73C56.6218 73 73 56.601 73 36.5C73 16.3782 56.6218 0 36.5 0ZM36.5 72.3761C16.711 72.3761 0.603134 56.2578 0.603134 36.4688C0.603134 16.6798 16.711 0.571937 36.5 0.571937C56.289 0.571937 72.3969 16.6902 72.3969 36.4688C72.3969 56.2474 56.289 72.3761 36.5 72.3761ZM34.493 64.7329L31.7165 64.4001L31.2694 68.2061L34.0459 68.5389L34.493 64.7329ZM36.5 1.22707C17.0541 1.22707 1.24786 17.0333 1.24786 36.4792C1.24786 55.9251 17.0749 71.7313 36.5 71.7313C55.9251 71.7313 71.7521 55.9043 71.7521 36.4792C71.7521 17.0229 55.9459 1.22707 36.5 1.22707ZM7.96553 54.5004L8.97422 53.9077L7.93433 52.1295L6.75926 52.4519L5.94815 51.0792L11.3036 49.5714L10.7524 48.6355L12.0939 47.8452L14.7248 52.3375L8.75584 55.8419L7.96553 54.5004ZM11.1892 58.7848L10.1181 57.6617L15.1511 52.8782L18.9675 56.8922L15.5255 60.1678L12.7698 57.2769L11.1892 58.7848ZM18.8323 65.2009L19.4771 64.2234L17.7613 63.0795L16.8566 63.8802L15.5255 62.9963L19.6746 59.2943L18.7699 58.6912L19.633 57.4017L23.9694 60.2822L20.1322 66.0536L18.8323 65.2009ZM25.8828 68.4869L27.7546 63.433L25.4772 62.5907L23.6054 67.6446L22.1496 67.1038L24.5621 60.5942L29.7407 62.5179L27.3282 69.0276L25.8828 68.4869ZM35.3977 70.2651L29.5432 69.5684L30.3543 62.6843L36.2088 63.3811L35.3977 70.2651ZM11.3244 36.4688C11.3244 22.5967 22.6279 11.2932 36.5 11.2932C50.3721 11.2932 61.6756 22.5967 61.6756 36.4688C61.6444 50.3513 50.3721 61.6444 36.5 61.6444C22.6279 61.6444 11.3244 50.3513 11.3244 36.4688ZM37.6751 70.2443L36.864 63.3603L42.4585 62.6947L42.7809 65.4712L42.105 66.2407L42.9265 66.6775L43.2697 69.5788L37.6751 70.2443ZM45.4846 69.0588L43.1033 62.5387L48.2091 60.6773L48.7395 62.1332L45.0999 63.4642L46.4101 67.0623L50.0497 65.7312L50.5801 67.187L45.4846 69.0588ZM55.6547 64.1818L53.159 61.7068L52.0359 62.4452L53.9181 65.3152L52.6182 66.1679L48.8122 60.3654L50.1121 59.5127L51.1832 61.1453L53.2214 59.8038L52.1503 58.1712L53.4501 57.3185L55.3739 60.251L54.5212 60.8125L57.0169 63.2875L55.6547 64.1818ZM61.738 58.7952L60.8853 57.984L59.4711 59.4815L60.1054 60.511L59.0031 61.6652L56.0707 56.9338L55.3219 57.7241L54.1989 56.653L57.7865 52.8782L62.8091 57.6617L61.738 58.7952ZM66.2095 52.4207L63.7034 50.9544L62.9755 52.2023L65.1593 54.2093L64.3378 55.6131L62.154 53.6061L61.6964 54.3964L58.2128 52.3583L61.0205 47.5748L67.0103 51.0896L66.2095 52.4207ZM65.1593 46.0254L62.4556 40.2436C62.6427 38.9957 62.7155 37.7479 62.7155 36.4896C62.7155 22.0144 50.944 10.2429 36.4688 10.2429C21.9936 10.2429 10.2325 22.0248 10.2325 36.5C10.2325 37.9038 10.3365 39.2869 10.5756 40.6699L8.02792 46.6805L2.79729 42.3338C2.45413 40.41 2.29815 38.455 2.29815 36.4792C2.29815 27.3906 5.86496 18.8323 12.3434 12.3434C18.8219 5.85456 27.3906 2.28775 36.4688 2.28775C45.547 2.28775 54.1157 5.85456 60.6046 12.333C67.0934 18.8115 70.6499 27.3802 70.6499 36.4688C70.6499 38.3198 70.4939 40.1396 70.2027 41.9386L65.1593 46.0254ZM41.0443 65.0657L40.9715 64.4417L38.5902 64.7225L38.715 65.7832L40.6491 65.5544L41.0443 65.0657ZM12.1147 50.944L9.47336 51.6927L10.3157 53.1278L12.6034 51.7863L12.1147 50.944ZM16.7734 56.8402L15.0887 55.0724L13.9033 56.2058L15.5879 57.9736L16.7734 56.8402ZM20.9953 60.1886L18.9467 62.0188L20.3298 62.9443L21.796 60.7293L20.9953 60.1886ZM36.5 12.0835C23.0439 12.0835 12.1043 23.0439 12.1043 36.4792C12.1043 49.9353 23.0647 60.8749 36.5 60.8749C49.9353 60.8749 60.8957 49.9457 60.8957 36.4792C60.8957 23.0127 49.9561 12.0835 36.5 12.0835ZM36.5 60.2406C23.4078 60.2406 12.7282 49.5714 12.7282 36.4688C12.7282 23.3662 23.4078 12.7074 36.5 12.7074C49.5922 12.7074 60.2718 23.3766 60.2718 36.4792C60.2718 49.5818 49.5922 60.2406 36.5 60.2406ZM58.6184 58.1296L59.7623 56.9234L57.8385 55.0932L57.1729 55.8003L58.6184 58.1296ZM61.1349 52.2647L62.3724 50.1641L61.5613 49.6858L60.3238 51.7863L61.1349 52.2647ZM40.8259 67.0934L38.8917 67.3222L39.0373 68.5285L41.4187 68.2477L41.3251 67.4678L40.8259 67.0934Z" fill="#838383"/>
<path d="M28.4305 18.2292C28.8776 18.25 29.3768 18.2604 29.9071 18.2604H29.9279C33.4531 18.2812 34.9402 17.7613 36.4272 17.2413C37.0407 17.0229 37.6543 16.815 38.403 16.6278C38.8501 16.6694 39.2869 16.7214 39.7236 16.7942C38.3718 16.9917 37.4671 17.3037 36.5624 17.6261C35.0442 18.1564 33.5155 18.6972 29.9175 18.6764C29.044 18.6868 28.3057 18.6556 27.6506 18.6036C27.9105 18.4684 28.1705 18.3436 28.4305 18.2292Z" fill="#838383"/>
<path d="M26.4027 19.2691C27.3178 19.4147 28.4305 19.4979 29.9071 19.4875H29.9279C33.4531 19.5083 34.9402 18.9883 36.4272 18.458C37.8518 17.9588 39.2765 17.4597 42.3962 17.4181C42.8017 17.5429 43.1969 17.6781 43.5816 17.8236H43.0617C39.5365 17.8028 38.0494 18.3228 36.5624 18.8531C35.0442 19.3939 33.5155 19.9242 29.9175 19.9034C28.1497 19.9138 26.8811 19.789 25.862 19.6019C26.0491 19.4875 26.2259 19.3731 26.4027 19.2691Z" fill="#838383"/>
<path d="M24.9677 20.1946C26.1115 20.5066 27.557 20.7353 29.9071 20.7145H29.9279C33.4531 20.7353 34.9402 20.2154 36.4272 19.685C37.9454 19.1547 39.4741 18.614 43.0721 18.6348C44.0704 18.6244 44.9127 18.666 45.6406 18.7283C45.9734 18.8947 46.2957 19.0819 46.6077 19.2691C45.6926 19.1235 44.5695 19.0403 43.0825 19.0507H43.0617C39.5365 19.0299 38.0494 19.5499 36.5624 20.0698C35.0442 20.6001 33.5155 21.1409 29.9175 21.1201C27.2866 21.1409 25.758 20.8601 24.5413 20.4962C24.6869 20.4026 24.8325 20.2986 24.9677 20.1946Z" fill="#838383"/>
<path d="M23.8238 21.0681C25.186 21.536 26.7147 21.9728 29.9071 21.952H29.9279C33.4531 21.9728 34.9402 21.4528 36.4272 20.9225C37.9454 20.3922 39.4741 19.8514 43.0721 19.8722C45.703 19.8514 47.2212 20.1322 48.4483 20.4962C48.7603 20.7353 49.0722 20.9745 49.3738 21.2345C47.9491 20.7353 46.4413 20.2674 43.0825 20.2882H43.0617C39.5365 20.2674 38.0494 20.7873 36.5624 21.3073C35.0442 21.848 33.5155 22.3783 29.9175 22.3575C26.4547 22.3783 24.9157 21.8896 23.4598 21.3801C23.5846 21.2761 23.699 21.1721 23.8238 21.0681Z" fill="#838383"/>
<path d="M22.8255 21.952C23.0231 22.0144 23.2207 22.0872 23.4078 22.16C24.8949 22.6799 26.3819 23.2103 29.9071 23.1895H29.9279C33.4531 23.2103 34.9402 22.6903 36.4272 22.16C37.9454 21.6296 39.4741 21.0889 43.0721 21.1097C46.6805 21.0889 48.1987 21.6192 49.7169 22.16C50.0497 22.2744 50.3721 22.3887 50.7256 22.5031C50.9128 22.7007 51.1 22.8983 51.2872 23.0959C50.6529 22.9295 50.1225 22.7423 49.5818 22.5551C48.0947 22.0352 46.6077 21.5048 43.0825 21.5256H43.0617C39.5365 21.5048 38.0494 22.0248 36.5624 22.5447C35.0442 23.0855 33.5155 23.6158 29.9175 23.595C26.3091 23.6158 24.7909 23.0855 23.2726 22.5447C23.0127 22.4511 22.7527 22.3679 22.4927 22.2744C22.5967 22.1704 22.7111 22.056 22.8255 21.952Z" fill="#838383"/>
<path d="M21.8896 22.8879C22.4407 23.0439 22.9295 23.2103 23.4078 23.3766C24.8949 23.8966 26.3819 24.4269 29.9071 24.4061H29.9279C33.4531 24.4269 34.9402 23.907 36.4272 23.3766C37.9454 22.8463 39.4741 22.3056 43.0721 22.3264C46.6805 22.3056 48.1987 22.8359 49.717 23.3766C50.4449 23.6366 51.1728 23.8862 52.1295 24.0838C52.2543 24.2397 52.3895 24.4061 52.5038 24.5725C51.2768 24.3749 50.4241 24.0734 49.5714 23.7718C48.0843 23.2519 46.5973 22.7215 43.0721 22.7423H43.0513C39.5261 22.7215 38.039 23.2415 36.552 23.7614C35.0338 24.3021 33.5051 24.8325 29.9071 24.8117C26.2987 24.8325 24.7805 24.3021 23.2623 23.7614C22.7319 23.5742 22.1912 23.387 21.5672 23.2207C21.6816 23.1167 21.7856 23.0023 21.8896 22.8879Z" fill="#838383"/>
<path d="M21.0057 23.907C21.9624 24.1046 22.6903 24.3541 23.4182 24.6141C24.9053 25.134 26.3923 25.6644 29.9175 25.6436H29.9383C33.4531 25.6644 34.9506 25.1444 36.4272 24.6245H36.4376C37.9558 24.0942 39.4845 23.5534 43.0825 23.5742C46.6909 23.5534 48.2091 24.0838 49.7274 24.6245C50.684 24.9573 51.6511 25.3004 53.159 25.4876C53.263 25.6332 53.3566 25.7892 53.4501 25.9348C51.7031 25.7476 50.6528 25.3836 49.5922 25.0093C48.1051 24.4893 46.6181 23.959 43.0929 23.9798H43.0721C39.5469 23.959 38.0598 24.4789 36.5728 25.0093H36.5624C35.0442 25.5396 33.5259 26.0803 29.9279 26.0491C26.3195 26.0699 24.8013 25.5396 23.283 24.9989C22.5239 24.7285 21.7544 24.4581 20.7249 24.2709C20.8081 24.1566 20.9017 24.0318 21.0057 23.907Z" fill="#838383"/>
<path d="M20.1738 24.9989C21.5672 25.1964 22.4823 25.5292 23.4078 25.8516C24.8949 26.3715 26.3819 26.9019 29.9071 26.8811H29.9279C33.4427 26.9019 34.9402 26.3819 36.4168 25.862H36.4272C37.9454 25.3316 39.4741 24.7909 43.0721 24.8117C46.6805 24.7909 48.1987 25.3212 49.717 25.862C50.84 26.2571 51.9527 26.6523 53.9493 26.8083C54.0325 26.9538 54.1053 27.089 54.1781 27.2346C51.9735 27.089 50.7776 26.6627 49.5818 26.2467C48.0947 25.7268 46.6077 25.1964 43.0825 25.2172H43.0617C39.5365 25.1964 38.0494 25.7164 36.5624 26.2467H36.552C35.0338 26.7771 33.5155 27.3178 29.9175 27.2866C26.3091 27.3074 24.7909 26.7771 23.2726 26.2363C22.3264 25.9036 21.3801 25.5708 19.9138 25.3836C19.997 25.2484 20.0906 25.1236 20.1738 24.9989Z" fill="#838383"/>
<path d="M19.4251 26.1323C21.2449 26.3091 22.3264 26.6939 23.4078 27.0682H23.4182C24.9053 27.5882 26.3923 28.1081 29.9071 28.0873H29.9279C33.4427 28.1081 34.9402 27.5882 36.4168 27.0682H36.4272C37.9454 26.5379 39.4637 25.9972 43.0721 26.0179C46.6805 25.9972 48.1987 26.5275 49.717 27.0682H49.7274C50.9544 27.505 52.1919 27.9313 54.594 28.0561C54.6564 28.1913 54.7188 28.3369 54.7812 28.4825C52.1815 28.3785 50.8816 27.9209 49.5818 27.4634H49.5714C48.0843 26.9434 46.5973 26.4131 43.0721 26.4339H43.0513C39.5261 26.4131 38.039 26.933 36.552 27.4634H36.5416C35.0234 27.9937 33.5051 28.5345 29.9071 28.5033C26.3091 28.5241 24.7909 27.9937 23.2726 27.4634H23.2623C22.1704 27.0786 21.0785 26.6939 19.1859 26.5275C19.2691 26.4027 19.3523 26.2675 19.4251 26.1323Z" fill="#838383"/>
<path d="M18.7699 27.3178C21.0057 27.4634 22.212 27.8897 23.4182 28.3161H23.4286C24.9157 28.836 26.4027 29.356 29.9175 29.3352H29.9383C33.4531 29.356 34.9506 28.836 36.4272 28.3161H36.4376C37.9558 27.7858 39.4741 27.245 43.0825 27.2658C46.6909 27.245 48.2091 27.7754 49.7274 28.3161H49.7377C51.0584 28.784 52.3791 29.2416 55.1348 29.3248L55.2907 29.7407C52.3583 29.6679 50.9752 29.1896 49.6026 28.7009H49.5922C48.1051 28.1809 46.6181 27.6506 43.0929 27.6714H43.0721C39.5469 27.6506 38.0598 28.1705 36.5728 28.7009H36.5624C35.0442 29.2312 33.5259 29.7719 29.9279 29.7407C26.3299 29.7615 24.8117 29.2312 23.2934 28.7009H23.283C22.0768 28.2745 20.8705 27.8481 18.5724 27.7234C18.6348 27.5778 18.6972 27.4426 18.7699 27.3178Z" fill="#838383"/>
<path d="M18.198 28.5137C20.8081 28.6177 22.1184 29.0752 23.4182 29.5432H23.4286C24.9157 30.0631 26.4027 30.583 29.9175 30.5623H29.9383C33.4531 30.583 34.9506 30.0631 36.4272 29.5432H36.4376C37.9558 29.0128 39.4741 28.4721 43.0825 28.4929C46.6909 28.4721 48.2091 29.0024 49.7274 29.5432H49.7377C51.1208 30.0319 52.5142 30.5207 55.5715 30.5623C55.6131 30.6974 55.6547 30.8326 55.6963 30.9782C52.483 30.947 51.0376 30.4375 49.6026 29.9383H49.5922C48.1051 29.4184 46.6181 28.888 43.0929 28.9088H43.0721C39.5469 28.888 38.0598 29.408 36.5728 29.9383H36.5624C35.0442 30.4687 33.5259 31.0094 29.9279 30.9782C26.3299 30.999 24.8117 30.4687 23.2934 29.9383H23.283C21.9832 29.4808 20.6833 29.0232 18.0316 28.9296C18.0836 28.784 18.1356 28.6489 18.198 28.5137Z" fill="#838383"/>
<path d="M17.7093 29.7303C20.6521 29.8031 22.0352 30.2815 23.4078 30.7702H23.4182C24.9053 31.2902 26.3923 31.8101 29.9071 31.7893H29.9279C33.4427 31.8101 34.9402 31.2902 36.4168 30.7702H36.4272C37.9454 30.2399 39.4637 29.6991 43.0721 29.7199C46.6805 29.6991 48.1987 30.2295 49.717 30.7702H49.7274C51.1624 31.2798 52.6078 31.7789 55.9043 31.7893L55.9979 32.2053C52.5662 32.2053 51.0792 31.6853 49.5922 31.1654H49.5818C48.0947 30.6454 46.6077 30.1151 43.0825 30.1463H43.0617C39.5365 30.1255 38.0494 30.6454 36.5624 31.1654H36.552C35.0338 31.6957 33.5155 32.2365 29.9175 32.2053C26.3195 32.2261 24.8013 31.6957 23.283 31.1654H23.2726C21.9 30.687 20.5273 30.1983 17.5637 30.1463C17.6157 30.0007 17.6573 29.8655 17.7093 29.7303Z" fill="#838383"/>
<path d="M17.3141 30.9574C20.5273 30.9886 21.9728 31.4981 23.4078 32.0077H23.4182C24.9053 32.5276 26.3923 33.0476 29.9071 33.0268H29.9279C33.4427 33.0476 34.9402 32.5276 36.4168 32.0077H36.4272C37.9454 31.4773 39.4637 30.9366 43.0721 30.9574C46.6805 30.9366 48.1987 31.4669 49.717 32.0077H49.7274C51.204 32.5276 52.6806 33.0476 56.1538 33.0268L56.2266 33.4427C52.6286 33.4635 51.1104 32.9332 49.5922 32.4029H49.5818C48.0947 31.8829 46.6077 31.3526 43.0825 31.3734H43.0617C39.5365 31.3526 38.0494 31.8725 36.5624 32.4029H36.552C35.0338 32.9332 33.5155 33.4739 29.9175 33.4427C26.3195 33.4635 24.8013 32.9332 23.283 32.4029H23.2726C21.848 31.9037 20.4234 31.4046 17.1997 31.3734L17.3141 30.9574Z" fill="#838383"/>
<path d="M17.0021 32.1845C20.4338 32.1845 21.9312 32.7044 23.4182 33.2348H23.4286C24.9157 33.7547 26.4027 34.2746 29.9175 34.2538H29.9383C33.4531 34.2746 34.9506 33.7547 36.4272 33.2348H36.4376C37.9558 32.694 39.4741 32.1637 43.0825 32.1845C46.6909 32.1637 48.2091 32.694 49.7274 33.2348H49.7377C51.2248 33.7547 52.7118 34.2746 56.237 34.2538C56.2786 34.2538 56.3098 34.2642 56.341 34.285L56.3722 34.6074C56.3306 34.6386 56.289 34.6698 56.2266 34.6698C52.6286 34.6906 51.1104 34.1603 49.5922 33.6299H49.5818C48.0947 33.11 46.6077 32.5796 43.0825 32.6004H43.0617C39.5365 32.5796 38.0494 33.0996 36.5624 33.6299H36.552C35.0338 34.1603 33.5155 34.701 29.9175 34.6698C26.3195 34.6906 24.8013 34.1603 23.283 33.6299H23.2726C21.8064 33.11 20.3402 32.6004 16.9085 32.6004C16.9397 32.4548 16.9709 32.3197 17.0021 32.1845Z" fill="#838383"/>
<path d="M16.763 33.8275C16.7422 33.8275 16.7318 33.8275 16.711 33.8171C16.7318 33.6819 16.7526 33.5467 16.7734 33.4115C20.3714 33.3907 21.9 33.9211 23.4182 34.4618C24.9053 34.9818 26.3923 35.5121 29.9175 35.4913H29.9383C33.4635 35.5121 34.9506 34.9922 36.4376 34.4618C37.9558 33.9315 39.4845 33.3907 43.0825 33.4115C46.6909 33.3907 48.2091 33.9211 49.7274 34.4618C51.2144 34.9818 52.7014 35.5121 56.237 35.4913C56.3514 35.4913 56.445 35.5849 56.445 35.6993C56.445 35.8137 56.3514 35.9073 56.237 35.9073C52.6286 35.9281 51.1104 35.3977 49.5922 34.857C48.1051 34.337 46.6181 33.8067 43.0929 33.8275H43.0721C39.5469 33.8067 38.0598 34.3266 36.5728 34.8466C35.0546 35.3769 33.5259 35.9177 29.9279 35.8969C26.3195 35.9177 24.8013 35.3873 23.283 34.8466C21.7856 34.3266 20.2986 33.8067 16.763 33.8275Z" fill="#838383"/>
<path d="M16.763 35.0546C16.6902 35.0546 16.6278 35.013 16.5862 34.961L16.607 34.7114C16.6486 34.6698 16.7006 34.649 16.7526 34.649C20.361 34.6282 21.8792 35.1585 23.3974 35.6993C24.8845 36.2192 26.3715 36.7496 29.8967 36.7288H29.9175C33.4427 36.7496 34.9298 36.2296 36.4168 35.6993C37.935 35.1689 39.4637 34.6282 43.0617 34.649C46.6701 34.6282 48.1883 35.1585 49.7066 35.6993C51.1936 36.2192 52.6806 36.7496 56.2162 36.7288C56.3306 36.7288 56.4242 36.8224 56.4242 36.9368C56.4242 37.0511 56.3306 37.1447 56.2162 37.1447C52.6078 37.1655 51.0896 36.6352 49.5714 36.0944C48.0843 35.5745 46.5973 35.0442 43.0721 35.0754H43.0513C39.5261 35.0546 38.039 35.5745 36.552 36.0944C35.0338 36.6248 33.5051 37.1655 29.9071 37.1447C26.2987 37.1655 24.7805 36.6352 23.2623 36.0944C21.7856 35.5537 20.2986 35.0338 16.763 35.0546Z" fill="#838383"/>
<path d="M16.763 36.292C16.6486 36.292 16.555 36.1984 16.555 36.084C16.555 35.9697 16.6486 35.8761 16.763 35.8761C20.3714 35.8553 21.8896 36.3856 23.4078 36.9264C24.8949 37.4463 26.3819 37.9766 29.9071 37.9558H29.9279C33.4531 37.9766 34.9402 37.4567 36.4272 36.9264C37.9454 36.396 39.4741 35.8553 43.0721 35.8761C46.6805 35.8553 48.1987 36.3856 49.717 36.9264C51.204 37.4463 52.691 37.9766 56.2266 37.9558C56.2994 37.9558 56.3618 37.9974 56.4034 38.0494L56.3826 38.299C56.341 38.3406 56.289 38.3614 56.237 38.3614C52.6286 38.3822 51.1104 37.8518 49.5818 37.3111C48.0947 36.7912 46.6077 36.2608 43.0825 36.2816H43.0617C39.5365 36.2608 38.0494 36.7808 36.5624 37.3007C35.0442 37.8311 33.5155 38.3718 29.9175 38.351C26.3091 38.3718 24.7909 37.8415 23.2726 37.3007C21.7856 36.7912 20.2986 36.2608 16.763 36.292Z" fill="#838383"/>
<path d="M16.763 37.5191C16.6486 37.5191 16.555 37.4255 16.555 37.3111C16.555 37.1967 16.6486 37.1031 16.763 37.1031C20.3714 37.0823 21.8896 37.6127 23.4078 38.1534C24.8949 38.6734 26.3819 39.2037 29.9071 39.1725H29.9279C33.4531 39.1933 34.9402 38.6734 36.4272 38.1534C37.9454 37.6231 39.4741 37.0823 43.0721 37.1031C46.6805 37.0823 48.1987 37.6127 49.717 38.1534C51.204 38.6734 52.691 39.2037 56.2266 39.1725C56.2474 39.1725 56.2578 39.1725 56.2786 39.1829L56.2162 39.5885C52.6182 39.6093 51.0896 39.0789 49.5714 38.5382C48.0843 38.0182 46.5973 37.4879 43.0721 37.5087H43.0513C39.5261 37.4879 38.039 38.0078 36.552 38.5278C35.0338 39.0685 33.5051 39.5989 29.9071 39.5781C26.2987 39.5989 24.7805 39.0685 23.2623 38.5278C21.7856 38.0182 20.2986 37.4983 16.763 37.5191Z" fill="#838383"/>
<path d="M16.763 38.7462C16.7214 38.7462 16.6798 38.7358 16.659 38.715L16.6278 38.3926C16.6694 38.3614 16.711 38.3302 16.7734 38.3302C20.3818 38.3094 21.9 38.8397 23.4182 39.3805C24.9053 39.9004 26.3923 40.4308 29.9175 40.41H29.9383C33.4635 40.4308 34.9506 39.9108 36.4376 39.3805C37.9558 38.8501 39.4845 38.3094 43.0825 38.3302C46.6909 38.3094 48.2091 38.8397 49.7274 39.3805C51.1936 39.9004 52.6598 40.41 56.0915 40.41C56.0603 40.5452 56.0395 40.6803 56.0083 40.8259C52.5766 40.8259 51.0792 40.306 49.5922 39.7756C48.1051 39.2557 46.6181 38.7254 43.0929 38.7462H43.0721C39.5469 38.7254 38.0598 39.2453 36.5728 39.7652C35.0546 40.306 33.5259 40.8363 29.9279 40.8155C26.3195 40.8363 24.8013 40.306 23.283 39.7652C21.7856 39.2453 20.2986 38.7254 16.763 38.7462Z" fill="#838383"/>
<path d="M16.763 39.5677C20.3714 39.5469 21.8896 40.0772 23.4078 40.618C24.8949 41.1379 26.3819 41.6682 29.9071 41.6474H29.9279C33.4531 41.6682 34.9402 41.1483 36.4272 40.618C37.9454 40.0876 39.4741 39.5469 43.0721 39.5677C46.6805 39.5469 48.1987 40.0772 49.717 40.618C51.1416 41.1171 52.5662 41.6162 55.7899 41.6474L55.6755 42.053C52.4623 42.0218 51.0168 41.5122 49.5714 41.0027C48.0843 40.4828 46.5973 39.9524 43.0721 39.9836H43.0513C39.5261 39.9628 38.039 40.4828 36.552 41.0027C35.0338 41.533 33.5051 42.0738 29.9071 42.053C26.2987 42.0738 24.7805 41.5434 23.2623 41.0027C21.7856 40.4828 20.309 39.9628 16.8254 39.9836L16.763 39.5677Z" fill="#838383"/>
<path d="M16.9917 40.7947C20.4338 40.7947 21.9208 41.3147 23.4078 41.845C24.8949 42.365 26.3819 42.8953 29.9071 42.8745H29.9279C33.4531 42.8953 34.9402 42.3754 36.4272 41.845C37.9454 41.3147 39.4741 40.7739 43.0721 40.7947C46.6805 40.7739 48.1987 41.3043 49.717 41.845C51.0896 42.3234 52.4622 42.8121 55.4259 42.8641C55.3843 42.9993 55.3323 43.1345 55.2803 43.2697C52.3375 43.1969 50.9544 42.7185 49.5818 42.2298C48.0947 41.7098 46.6077 41.1795 43.0825 41.2003H43.0617C39.5365 41.1795 38.0494 41.6994 36.5624 42.2298C35.0442 42.7601 33.5155 43.3009 29.9175 43.2801C26.3091 43.3009 24.7909 42.7705 23.2726 42.2298C21.8272 41.7202 20.3922 41.2211 17.0853 41.2003C17.0541 41.0755 17.0229 40.9299 16.9917 40.7947Z" fill="#838383"/>
<path d="M17.3037 42.0322C20.517 42.0634 21.9624 42.5729 23.4078 43.0825C24.8949 43.6024 26.3819 44.1328 29.9071 44.112H29.9279C33.4531 44.1328 34.9402 43.6128 36.4272 43.0825C37.9454 42.5521 39.4741 42.0114 43.0721 42.0322C46.6805 42.0114 48.1987 42.5417 49.717 43.0825C51.0168 43.54 52.3167 43.9976 54.9684 44.0912C54.9164 44.2264 54.854 44.3615 54.7916 44.4967C52.1815 44.3927 50.8816 43.9352 49.5714 43.4672C48.0843 42.9473 46.5973 42.417 43.0721 42.4377H43.0513C39.5261 42.417 38.039 42.9369 36.552 43.4568C35.0338 43.9872 33.5051 44.5279 29.9071 44.5071C26.2987 44.5279 24.7805 43.9976 23.2623 43.4568C21.8688 42.9681 20.4754 42.4793 17.4181 42.4377C17.3869 42.3026 17.3453 42.1674 17.3037 42.0322Z" fill="#838383"/>
<path d="M17.7093 43.2697C20.6521 43.3424 22.0352 43.8208 23.4182 44.3095C24.9053 44.8295 26.3923 45.3598 29.9175 45.3286H29.9383C33.4531 45.3494 34.9506 44.8295 36.4272 44.3095H36.4376C37.9558 43.7792 39.4845 43.2385 43.0825 43.2593C46.6909 43.2385 48.2091 43.7688 49.7274 44.3095C50.9336 44.7359 52.1399 45.1623 54.438 45.287C54.3756 45.4222 54.3028 45.5574 54.2405 45.6822C52.0047 45.5366 50.7984 45.1103 49.5922 44.6943C48.1051 44.1744 46.6181 43.644 43.0929 43.6648H43.0721C39.5469 43.644 38.0598 44.164 36.5728 44.6943H36.5624C35.0442 45.2246 33.5259 45.7654 29.9279 45.7342C26.3195 45.755 24.8013 45.2246 23.283 44.6839C21.9624 44.216 20.6313 43.748 17.8652 43.6752C17.8132 43.54 17.7613 43.4048 17.7093 43.2697Z" fill="#838383"/>
<path d="M18.2084 44.5175C20.8081 44.6319 22.1184 45.0895 23.4182 45.5366C24.9053 46.0566 26.3923 46.5869 29.9175 46.5661H29.9383C33.4531 46.5869 34.9506 46.067 36.4272 45.547H36.4376C37.9558 45.0167 39.4845 44.4759 43.0825 44.4967C46.6909 44.4759 48.2091 45.0063 49.7274 45.547C50.8192 45.9318 51.9111 46.3165 53.8037 46.4829C53.7309 46.6181 53.6477 46.7429 53.5749 46.8781C51.7551 46.7013 50.6736 46.3165 49.5922 45.9422C48.1051 45.4222 46.6181 44.8919 43.0929 44.9127H43.0721C39.5469 44.8919 38.0598 45.4118 36.5728 45.9422H36.5624C35.0442 46.4725 33.5259 47.0132 29.9279 46.982C26.3195 47.0028 24.8013 46.4725 23.283 45.9318C22.0456 45.495 20.8081 45.0583 18.406 44.9439C18.3332 44.7983 18.2708 44.6527 18.2084 44.5175Z" fill="#838383"/>
<path d="M18.8115 45.7758C21.0161 45.9214 22.212 46.3477 23.4078 46.7637H23.4182C24.9053 47.2836 26.3923 47.8036 29.9071 47.7828H29.9279C33.4427 47.8036 34.9402 47.2836 36.4168 46.7637H36.4272C37.9454 46.2333 39.4637 45.6926 43.0721 45.7134C46.6805 45.6926 48.1987 46.2229 49.717 46.7637H49.7274C50.6736 47.0964 51.6095 47.4292 53.0758 47.6164C52.9926 47.7412 52.899 47.8764 52.8158 48.0011C51.4328 47.8036 50.5073 47.4812 49.5922 47.1588H49.5818C48.0947 46.6389 46.6077 46.1085 43.0825 46.1293H43.0617C39.5365 46.1085 38.0494 46.6285 36.5624 47.1588H36.552C35.0338 47.6892 33.5155 48.2299 29.9175 48.1987C26.3195 48.2195 24.8013 47.6892 23.283 47.1588H23.2726C22.1496 46.7637 21.0369 46.3685 19.0403 46.2125C18.9675 46.067 18.8843 45.9214 18.8115 45.7758Z" fill="#838383"/>
<path d="M19.5603 47.0756C21.3073 47.2628 22.3679 47.6268 23.4182 48.0011H23.4286C24.9157 48.5211 26.4027 49.041 29.9175 49.0202H29.9383C33.4531 49.041 34.9506 48.5211 36.4272 48.0011H36.4376C37.9558 47.4708 39.4741 46.9301 43.0825 46.9509C46.6909 46.9301 48.2091 47.4604 49.7274 48.0011H49.7377C50.4969 48.2715 51.256 48.5315 52.2855 48.7291C52.1919 48.8538 52.0983 48.9682 51.9943 49.093C51.048 48.8954 50.3201 48.6459 49.5922 48.3859H49.5818C48.0947 47.866 46.6077 47.3356 43.0825 47.3564H43.0617C39.5365 47.3356 38.0494 47.8556 36.5624 48.3859H36.552C35.0338 48.9162 33.5155 49.457 29.9175 49.4258C26.3195 49.4466 24.8013 48.9162 23.283 48.3859H23.2726C22.316 48.0531 21.3489 47.71 19.841 47.5228C19.7474 47.3772 19.6538 47.2212 19.5603 47.0756Z" fill="#838383"/>
<path d="M20.4858 48.4275C21.7128 48.6251 22.5655 48.9266 23.4182 49.2282H23.4286C24.9157 49.7481 26.4027 50.2681 29.9175 50.2473H29.9383C33.4531 50.2681 34.9506 49.7481 36.4272 49.2282H36.4376C37.9558 48.6979 39.4741 48.1571 43.0825 48.1779C46.6909 48.1571 48.2091 48.6875 49.7274 49.2282H49.7377C50.2681 49.4154 50.7984 49.6026 51.4224 49.7585C51.3184 49.8729 51.2144 49.9873 51.1104 50.1017C50.5593 49.9457 50.0809 49.7793 49.6026 49.613H49.5922C48.1051 49.093 46.6181 48.5627 43.0929 48.5835H43.0721C39.5469 48.5627 38.0598 49.0826 36.5728 49.613H36.5624C35.0442 50.1433 33.5259 50.684 29.9279 50.6528C26.3299 50.6736 24.8117 50.1433 23.2934 49.613H23.283C22.5551 49.353 21.8272 49.1034 20.8705 48.9058C20.7249 48.7499 20.6001 48.5939 20.4858 48.4275Z" fill="#838383"/>
<path d="M21.7128 49.9145C22.3472 50.0809 22.8775 50.2681 23.4182 50.4553H23.4286C24.9157 50.9752 26.4027 51.4952 29.9175 51.4744H29.9383C33.4531 51.4952 34.9506 50.9752 36.4272 50.4553H36.4376C37.9558 49.9249 39.4741 49.3842 43.0825 49.405C46.6909 49.3842 48.2091 49.9145 49.7274 50.4553H49.7377C49.9977 50.5489 50.2473 50.632 50.5177 50.7256C50.4033 50.84 50.2993 50.944 50.1849 51.048L49.6026 50.8504H49.5922C48.1051 50.3305 46.6181 49.8001 43.0929 49.8209H43.0721C39.5469 49.8001 38.0598 50.3201 36.5728 50.8504H36.5624C35.0442 51.3808 33.5259 51.9215 29.9279 51.8903C26.3299 51.9111 24.8117 51.3808 23.2934 50.8504H23.283C22.9503 50.736 22.6279 50.6217 22.2744 50.5073C22.0768 50.3097 21.8896 50.1121 21.7128 49.9145Z" fill="#838383"/>
<path d="M23.6262 51.7655C25.0509 52.2647 26.5587 52.7326 29.9175 52.7118H29.9383C33.4531 52.7326 34.9506 52.2127 36.4272 51.6927H36.4376C37.9558 51.1624 39.4741 50.6217 43.0825 50.6424C46.5453 50.6217 48.0843 51.1104 49.5506 51.6199C49.4258 51.7239 49.3114 51.8279 49.1866 51.9319C47.8244 51.464 46.2957 51.0376 43.1033 51.048H43.0825C39.5573 51.0272 38.0702 51.5471 36.5832 52.0775H36.5728C35.0546 52.6078 33.5363 53.1486 29.9383 53.1174C27.3074 53.1382 25.7892 52.8574 24.5621 52.4934C24.2293 52.2647 23.9278 52.0151 23.6262 51.7655Z" fill="#838383"/>
<path d="M26.3819 53.7205C27.297 53.8661 28.4201 53.9493 29.9071 53.9493H29.9279C33.4427 53.9701 34.9402 53.4501 36.4168 52.9302H36.4272C37.9454 52.3999 39.4637 51.8591 43.0721 51.8799C45.703 51.8591 47.2316 52.1399 48.4483 52.5038C48.3131 52.6078 48.1675 52.7118 48.0219 52.8158C46.8781 52.5038 45.4326 52.2751 43.0825 52.2959H43.0617C39.5365 52.2751 38.0494 52.795 36.5624 53.3254H36.552C35.0338 53.8557 33.5155 54.3964 29.9175 54.3652C28.9192 54.3756 28.0769 54.334 27.349 54.2717C27.0266 54.0845 26.7043 53.9077 26.3819 53.7205Z" fill="#838383"/>
<path d="M29.408 55.1763H29.9279C33.4531 55.1971 34.9402 54.6772 36.4272 54.1469C37.9454 53.6165 39.4741 53.0758 43.0721 53.0966C44.8399 53.0862 46.1085 53.211 47.1276 53.3981C46.9509 53.5125 46.7741 53.6165 46.5869 53.7205C45.6718 53.5749 44.5591 53.4917 43.0825 53.5021H43.0617C39.5365 53.4813 38.0494 54.0013 36.5624 54.5212C35.1377 55.0204 33.7131 55.5195 30.5934 55.5715C30.1983 55.4571 29.8031 55.3219 29.408 55.1763Z" fill="#838383"/>
<path d="M33.2764 56.2162C34.6282 56.0187 35.5329 55.7067 36.4376 55.3843C37.9558 54.854 39.4845 54.3132 43.0825 54.334C43.956 54.3236 44.6943 54.3548 45.3598 54.4068C45.0999 54.5316 44.8399 54.6564 44.5799 54.7708C44.1328 54.75 43.6336 54.7396 43.0929 54.7396H43.0721C39.5469 54.7188 38.0598 55.2387 36.5728 55.7587C35.9593 55.9771 35.3457 56.185 34.597 56.3722C34.1499 56.341 33.7131 56.2786 33.2764 56.2162Z" fill="#838383"/>
<path d="M36.5 56.9858C25.2068 56.9858 16.0142 47.7932 16.0142 36.5C16.0142 25.2068 25.2068 16.0142 36.5 16.0142C47.7932 16.0142 56.9858 25.2068 56.9858 36.5C56.9858 47.7932 47.7932 56.9858 36.5 56.9858ZM36.5 17.0437C25.7684 17.0437 17.0437 25.7684 17.0437 36.5C17.0437 47.2316 25.7684 55.9563 36.5 55.9563C47.2316 55.9563 55.9563 47.2316 55.9563 36.5C55.9563 25.7788 47.2316 17.0437 36.5 17.0437Z" fill="#838383"/>
<path d="M7.68476 20.9017L12.1771 22.9919L11.8755 23.6366L10.1285 22.8255C9.61895 22.5759 9.1614 22.3472 8.70385 22.0976L8.68305 22.1184C8.98462 22.4199 9.31738 22.7631 9.66054 23.1063L10.4924 23.9798L10.1909 24.6349L8.97422 24.5413C8.49587 24.5101 8.00712 24.4685 7.59117 24.4373V24.4685C8.06952 24.6661 8.54786 24.8637 9.06781 25.0924L10.8148 25.9036L10.5132 26.5483L6.03134 24.4581L6.3433 23.7926L8.51667 23.8758C8.81823 23.8862 9.32778 23.9382 9.56695 23.959L9.57735 23.9278C9.40057 23.7614 9.04701 23.4078 8.83903 23.1791L7.37279 21.5672L7.68476 20.9017Z" fill="#838383"/>
<path d="M11.6155 20.3402C11.1372 20.7041 10.5236 20.6833 9.91011 20.2674C9.07821 19.6954 8.91182 18.9051 9.44217 18.1356L10.1701 17.0645L14.2568 19.8514L13.8513 20.4546L12.3746 19.4459L12.1251 19.8098L13.0402 21.6504L12.593 22.316L11.6155 20.3402ZM11.8235 19.0611L10.3261 18.042L10.0141 18.4996C9.73333 18.9155 9.83732 19.3003 10.3261 19.6434C10.8148 19.9762 11.2308 19.9346 11.5115 19.5291L11.8235 19.0611Z" fill="#838383"/>
<path d="M13.8305 18.042L12.3226 16.6798C11.5739 16.0038 11.5531 15.2239 12.1459 14.5688C12.7594 13.8929 13.5185 13.8513 14.2776 14.4856L13.7993 15.016C13.3417 14.6624 12.9778 14.6728 12.6554 15.0264C12.3746 15.3383 12.385 15.7335 12.8322 16.1286L14.34 17.4909C14.7768 17.886 15.1719 17.8652 15.4631 17.5429C15.7855 17.1789 15.7647 16.8046 15.3799 16.3886L15.8583 15.8583C16.5446 16.555 16.5862 17.3141 15.9623 17.99C15.3591 18.6452 14.5688 18.7076 13.8305 18.042Z" fill="#838383"/>
<path d="M16.5862 10.5652L19.7578 14.3712L19.2067 14.8392L17.8132 13.1754L16.7214 14.0801L18.1148 15.7439L17.5637 16.2118L14.392 12.4058L14.9432 11.9379L16.295 13.5601L17.3869 12.6554L16.035 11.0332L16.5862 10.5652Z" fill="#838383"/>
<path d="M21.7856 11.8443L20.6625 12.541L20.9953 13.5081L20.3506 13.9137L18.8011 9.04701L19.4667 8.63105L23.1583 12.1667L22.5239 12.5618L21.7856 11.8443ZM21.3073 11.3556L20.3402 10.3989C20.1114 10.1597 19.789 9.79573 19.6226 9.59815L19.6019 9.60855C19.7058 9.84772 19.9034 10.2845 20.0074 10.6068L20.4442 11.8963L21.3073 11.3556Z" fill="#838383"/>
<path d="M23.6886 9.79573C23.0855 9.85812 22.5759 9.51496 22.2744 8.83903C21.8584 7.91353 22.1288 7.15442 22.9815 6.76966L24.1566 6.23932L26.1947 10.7524L25.5396 11.054L24.8013 9.42137L24.3957 9.60855L24.2189 11.6467L23.491 11.9795L23.6886 9.79573ZM24.5309 8.81823L23.7822 7.16481L23.2726 7.39359C22.8151 7.60157 22.7007 7.98632 22.9399 8.52707C23.1791 9.05741 23.5534 9.24459 24.011 9.04701L24.5309 8.81823Z" fill="#838383"/>
<path d="M31.9141 4.14915L32.8916 9.00541L32.1949 9.1406L31.8101 7.24801C31.7165 6.68647 31.6229 6.17692 31.5501 5.66738L31.5189 5.65698C31.4566 6.07293 31.3734 6.55128 31.3006 7.02963L31.0926 8.2151L30.3855 8.36068L29.7303 7.3416C29.4704 6.93604 29.2104 6.52009 28.992 6.16652L28.9712 6.18732C29.096 6.68647 29.2208 7.19601 29.3456 7.74715L29.7303 9.63974L29.0336 9.77493L28.0561 4.91866L28.784 4.77308L30.0111 6.57208C30.1775 6.83205 30.4375 7.2584 30.5623 7.46638L30.5934 7.45598C30.6246 7.21681 30.6974 6.71766 30.7598 6.4161L31.1966 4.28433L31.9141 4.14915Z" fill="#838383"/>
<path d="M35.8865 7.84074L34.5554 7.90313L34.3682 8.91182L33.6091 8.94302L34.6594 3.94117L35.4393 3.90997L36.916 8.79744L36.1672 8.82863L35.8865 7.84074ZM35.6993 7.18561L35.3249 5.87536C35.2417 5.55299 35.1377 5.08504 35.0962 4.82507H35.0754C35.0546 5.08504 35.0026 5.56339 34.9402 5.89615L34.6906 7.23761L35.6993 7.18561Z" fill="#838383"/>
<path d="M40.9819 4.15954L40.5244 9.0886L39.8068 9.02621L40.0044 6.86325L38.5902 6.73846L38.3926 8.90142L37.6751 8.83903L38.1326 3.90997L38.8501 3.97236L38.6526 6.07293L40.0668 6.19772L40.2644 4.09715L40.9819 4.15954Z" fill="#838383"/>
<path d="M45.3494 5.05385L43.2905 8.59986C42.8537 9.33818 42.4481 9.54615 41.7098 9.37977L41.533 9.33818L41.6786 8.71424L41.8762 8.75584C42.2506 8.83903 42.4585 8.68305 42.7185 8.2359L42.8121 8.06952L42.3546 4.37792L43.1033 4.5443L43.3632 7.08162L44.6111 4.88746L45.3494 5.05385Z" fill="#838383"/>
<path d="M46.3997 10.5132L46.2957 10.4717C45.3494 10.1077 44.9335 9.23419 45.3494 8.16311L45.7446 7.15442C46.1709 6.07293 47.0756 5.70897 48.0115 6.07293L48.1155 6.11453L48.3027 5.62578L48.9682 5.88575L48.7811 6.3745L48.885 6.4161C49.8313 6.78006 50.2473 7.66396 49.8209 8.74544L49.4258 9.75413C48.9994 10.8356 48.1051 11.1788 47.1588 10.8148L47.0548 10.7732L46.8573 11.2828L46.1917 11.0228L46.3997 10.5132ZM46.6493 9.87892L47.866 6.75926L47.7308 6.70726C47.1796 6.48889 46.7013 6.67607 46.4101 7.42479L46.015 8.43348C45.7342 9.1614 45.9526 9.61895 46.5037 9.83732L46.6493 9.87892ZM47.45 10.1909C48.0115 10.4093 48.4795 10.2325 48.7707 9.49416L49.1658 8.48547C49.457 7.73675 49.2386 7.2792 48.6771 7.06083L48.5523 7.00883L47.3356 10.1285L47.45 10.1909Z" fill="#838383"/>
<path d="M51.6095 12.0835L50.4657 11.4179L49.7689 12.1667L49.1138 11.7819L52.691 8.14231L53.367 8.53746L51.9631 13.4457L51.308 13.0714L51.6095 12.0835ZM51.8175 11.4283L52.2127 10.1181C52.3167 9.79573 52.483 9.34858 52.587 9.1094L52.5662 9.099C52.3999 9.30698 52.0983 9.68134 51.8695 9.92051L50.9336 10.9188L51.8175 11.4283Z" fill="#838383"/>
<path d="M54.7292 12.8218L54.1781 12.9986L53.1486 14.3192L52.587 13.8825L55.6235 9.97251L56.185 10.4093L54.8644 12.1043L55.4779 11.8443L57.2353 11.2204L57.9009 11.7403L55.4467 12.5618L55.0308 15.7751L54.3756 15.2655L54.7292 12.8218Z" fill="#838383"/>
<path d="M60.2822 15.016L59.5439 14.2776L56.5178 17.2933L55.9979 16.7734L59.0239 13.7577L58.296 13.0194L58.7744 12.541L60.7605 14.548L60.2822 15.016Z" fill="#838383"/>
<path d="M63.2875 17.6781L59.4503 19.1235C58.6496 19.4251 58.2024 19.3211 57.7345 18.7283L57.6201 18.5828L58.1296 18.1876L58.2544 18.3436C58.4936 18.6452 58.7536 18.6556 59.2319 18.4684L59.4087 18.3956L61.3949 15.2447L61.8628 15.8479L60.4798 17.99L62.8299 17.0749L63.2875 17.6781Z" fill="#838383"/>
<path d="M64.1194 22.0872C63.2251 22.6175 62.4452 22.4199 61.946 21.5776L61.6444 21.0577L60.147 21.9416L59.7831 21.3177L64.0466 18.8011L64.7225 19.945C65.2113 20.7977 64.9929 21.5776 64.1194 22.0872ZM63.745 21.4529C64.265 21.1409 64.4001 20.7561 64.1298 20.2882L63.8282 19.7786L62.2268 20.7145L62.5283 21.2241C62.8091 21.7024 63.1939 21.7752 63.745 21.4529Z" fill="#838383"/>
<path d="M63.1419 25.6748L62.6219 24.4581L61.6132 24.6453L61.3117 23.9486L66.3551 23.1479L66.6671 23.8654L62.6219 26.985L62.3204 26.2987L63.1419 25.6748ZM63.693 25.2692L64.7849 24.4581C65.0553 24.2605 65.4608 24.0006 65.6896 23.8654L65.6792 23.8446C65.4296 23.9174 64.9617 24.0318 64.6289 24.0942L63.2875 24.3333L63.693 25.2692Z" fill="#838383"/>
<path d="M7.72635 29.3144C7.67436 29.3144 7.63276 29.2832 7.61197 29.2312L7.15442 27.817C7.14402 27.7754 7.11282 27.7754 7.10242 27.817L6.64487 29.2312C6.63447 29.2728 6.58248 29.3144 6.53048 29.3144H5.03305C4.98105 29.3144 4.98105 29.3352 5.01225 29.3664L6.21852 30.2399C6.26011 30.2711 6.28091 30.3231 6.26011 30.3751L5.80256 31.7893C5.79217 31.8309 5.80256 31.8517 5.84416 31.8205L7.05043 30.947C7.09202 30.9158 7.15442 30.9158 7.18561 30.947L8.39188 31.8205C8.43348 31.8517 8.45427 31.8309 8.43348 31.7893L7.97593 30.3751C7.96553 30.3335 7.97593 30.2711 8.01752 30.2399L9.22379 29.3664C9.26538 29.3352 9.25499 29.3144 9.20299 29.3144H7.72635Z" fill="#838383"/>
<path d="M66.5527 29.3144C66.5007 29.3144 66.4591 29.2832 66.4383 29.2312L65.9808 27.817C65.9704 27.7754 65.9392 27.7754 65.9288 27.817L65.4712 29.2312C65.4608 29.2728 65.4088 29.3144 65.3568 29.3144H63.8698C63.8178 29.3144 63.8178 29.3352 63.849 29.3664L65.0553 30.2399C65.0969 30.2711 65.1177 30.3231 65.0969 30.3751L64.6393 31.7893C64.6289 31.8309 64.6393 31.8517 64.6809 31.8205L65.8872 30.947C65.9288 30.9158 65.9912 30.9158 66.0224 30.947L67.2286 31.8205C67.2702 31.8517 67.291 31.8309 67.2702 31.7893L66.8127 30.3751C66.8023 30.3335 66.8127 30.2711 66.8543 30.2399L68.0605 29.3664C68.1021 29.3352 68.0917 29.3144 68.0397 29.3144H66.5527Z" fill="#838383"/>
<path d="M4.07635 37.6231C4.07635 36.4272 5.42821 35.9281 5.42821 35.1689C5.42821 34.9402 5.28262 34.7426 5.01225 34.7426C4.75228 34.7426 4.5963 34.9194 4.5859 35.2521H4.09715C4.12835 34.6282 4.47151 34.2746 5.00185 34.2746C5.60499 34.2746 5.92735 34.701 5.92735 35.1585C5.92735 36.1464 4.5963 36.6976 4.5963 37.5087H5.95855V37.9766H4.07635V37.6231Z" fill="#838383"/>
<path d="M6.63447 37.0095V35.3145C6.63447 34.6802 7.00883 34.285 7.60157 34.285C8.2047 34.285 8.56866 34.6802 8.56866 35.3145V37.0095C8.56866 37.6439 8.1943 38.0286 7.60157 38.0286C7.00883 38.0286 6.63447 37.6335 6.63447 37.0095ZM8.06952 37.0095V35.3145C8.06952 34.961 7.90313 34.7634 7.59117 34.7634C7.2896 34.7634 7.12322 34.961 7.12322 35.3145V37.0095C7.12322 37.3631 7.2896 37.5607 7.59117 37.5607C7.90313 37.5503 8.06952 37.3631 8.06952 37.0095Z" fill="#838383"/>
<path d="M65.7312 37.9766H65.2216V35.013L64.6705 35.3977V34.8258L65.3464 34.3266H65.7312V37.9766Z" fill="#838383"/>
<path d="M68.5389 36.8744V36.9991C68.5389 37.6439 68.1541 38.0286 67.5614 38.0286C66.9687 38.0286 66.5839 37.6439 66.5839 36.9991V36.8744C66.5839 36.5208 66.7295 36.2296 66.9791 36.0736C66.7711 35.9073 66.6359 35.6265 66.6359 35.3249V35.2417C66.6359 34.649 66.9895 34.2746 67.551 34.2746C68.1125 34.2746 68.4661 34.649 68.4661 35.2417V35.3249C68.4661 35.6369 68.3309 35.9073 68.1229 36.0736C68.3829 36.2296 68.5389 36.5312 68.5389 36.8744ZM68.0397 36.8744C68.0397 36.5208 67.863 36.3336 67.5614 36.3336C67.2598 36.3336 67.083 36.5208 67.083 36.8744V36.9991C67.083 37.3527 67.2598 37.5399 67.5614 37.5399C67.863 37.5399 68.0397 37.3527 68.0397 36.9991V36.8744ZM67.135 35.3353C67.135 35.6785 67.291 35.8657 67.5614 35.8657C67.8318 35.8657 67.9877 35.6785 67.9877 35.3353V35.2521C67.9877 34.9194 67.8318 34.753 67.5614 34.753C67.291 34.753 67.135 34.9194 67.135 35.2521V35.3353Z" fill="#838383"/>
<path d="M14.912 41.2731C14.6936 41.3147 14.4752 41.1795 14.4232 40.9507C14.3816 40.7323 14.5168 40.514 14.7456 40.462C14.9744 40.4204 15.1823 40.5556 15.2343 40.7843C15.2863 41.0131 15.1407 41.2315 14.912 41.2731Z" fill="#838383"/>
<path d="M13.6953 38.715L13.6641 38.3302L14.4024 38.2782C14.5064 38.2678 14.6728 38.2782 14.6728 38.2782C14.6728 38.2782 14.5064 38.2158 14.392 38.1638L13.6225 37.7791L13.5913 37.3839L15.1719 37.2799L15.2031 37.6647L14.4648 37.7167C14.3608 37.7271 14.1944 37.7167 14.1944 37.7167C14.1944 37.7167 14.3608 37.7791 14.4752 37.8311L15.2447 38.2158L15.2759 38.6006L13.6953 38.715Z" fill="#838383"/>
<path d="M13.5913 36.8328L13.6017 36.448L14.236 36.4584L14.2464 35.8865L13.6121 35.8761L13.6225 35.4913L15.2031 35.5225L15.1927 35.9073L14.5688 35.8969L14.5584 36.4688L15.1823 36.4792L15.1719 36.864L13.5913 36.8328Z" fill="#838383"/>
<path d="M13.6433 34.9506L13.6849 34.5658L14.3192 34.6282L14.3712 34.0563L13.7369 33.9939L13.7785 33.6091L15.3591 33.7547L15.3175 34.1395L14.704 34.0771L14.652 34.649L15.2655 34.7114L15.2239 35.0962L13.6433 34.9506Z" fill="#838383"/>
<path d="M15.1719 32.6732L15.2343 32.3405L14.5896 32.2157C14.5272 32.2053 14.4752 32.1845 14.4752 32.1845C14.4752 32.1845 14.5168 32.2157 14.548 32.2573L14.6104 32.3717L14.3296 32.5484L14.0177 32.0493L14.0801 31.7165L15.3071 31.9661L15.3695 31.6333L15.6919 31.6957L15.4839 32.7252L15.1719 32.6732Z" fill="#838383"/>
<path d="M15.3383 31.207C15.4319 31.155 15.5255 31.051 15.5567 30.9262C15.5983 30.791 15.5463 30.687 15.4631 30.6662C15.3383 30.635 15.2655 30.739 15.2135 30.9054L15.1823 31.0094L14.9744 31.0406L14.7872 30.7702C14.7144 30.6766 14.6832 30.6038 14.6832 30.6038C14.6832 30.6038 14.6832 30.6558 14.652 30.7494L14.5584 31.1134L14.236 31.0302L14.496 30.0631L14.7248 30.1255L14.9952 30.5311C15.1095 30.3127 15.3279 30.2191 15.5359 30.2815C15.7959 30.3543 16.0038 30.6038 15.9103 30.9886C15.8583 31.1758 15.7439 31.3526 15.5671 31.4566L15.3383 31.207Z" fill="#838383"/>
<path d="M15.9623 30.0943C15.4111 29.9071 15.5255 29.2208 15.3175 29.148C15.2135 29.1168 15.1407 29.1792 15.1095 29.2624C15.0783 29.356 15.1199 29.4704 15.1927 29.5432L14.9224 29.7511C14.7872 29.6056 14.6832 29.3872 14.7768 29.1168C14.86 28.8672 15.0887 28.6489 15.4111 28.7632C15.8791 28.9192 15.7647 29.5536 15.9519 29.6472L16.1702 29.0024L16.4822 29.1064L16.1286 30.1463C16.0662 30.1151 16.0142 30.1047 15.9623 30.0943Z" fill="#838383"/>
<path d="M15.8895 28.2849C15.7855 28.3369 15.6815 28.3473 15.5567 28.3057C15.3487 28.2121 15.1927 27.9833 15.3383 27.6402C15.4527 27.3698 15.6919 27.2034 15.9726 27.3178C16.1182 27.3802 16.2222 27.5466 16.2534 27.5986C16.3574 27.5258 16.4822 27.4946 16.6278 27.557C16.8462 27.6506 17.0021 27.9209 16.8462 28.2849C16.7006 28.6385 16.399 28.732 16.1702 28.6385C15.9726 28.5657 15.9103 28.3681 15.8895 28.2849ZM15.8479 27.6818C15.7647 27.6506 15.6919 27.6818 15.6503 27.7754C15.6087 27.8689 15.6503 27.9313 15.7127 27.9521C15.8063 27.9937 15.8999 27.9105 16.0142 27.8066C15.9726 27.7754 15.9311 27.713 15.8479 27.6818ZM16.5238 28.1601C16.5654 28.0561 16.5446 27.9625 16.451 27.9209C16.3678 27.8897 16.2638 27.9937 16.139 28.1081C16.1598 28.1601 16.2014 28.2329 16.2846 28.2641C16.3678 28.3057 16.4822 28.2537 16.5238 28.1601Z" fill="#838383"/>
<path d="M16.451 27.1098C16.0454 26.9019 15.7855 26.6107 15.9934 26.2155C16.2014 25.8204 16.5862 25.8412 16.9917 26.0491C17.3973 26.2571 17.6573 26.5483 17.4597 26.9538C17.2621 27.3594 16.8566 27.3074 16.451 27.1098ZM16.8046 26.3923C16.5758 26.2779 16.3678 26.2259 16.3054 26.3611C16.243 26.4963 16.399 26.6315 16.6278 26.7459C16.8566 26.8603 17.0645 26.9123 17.1373 26.7771C17.2101 26.6419 17.0333 26.5171 16.8046 26.3923Z" fill="#838383"/>
<path d="M17.1581 25.7268C16.763 25.498 16.5342 25.186 16.763 24.8013C16.9917 24.4165 17.3765 24.4685 17.7717 24.7077C18.1668 24.9365 18.406 25.2484 18.1772 25.6436C17.9484 26.0387 17.5429 25.9556 17.1581 25.7268ZM17.5637 25.0405C17.3453 24.9053 17.1477 24.8429 17.0645 24.9781C16.9813 25.1132 17.1373 25.2484 17.3557 25.3836C17.5741 25.5188 17.7821 25.5812 17.8548 25.4564C17.938 25.3212 17.7821 25.1756 17.5637 25.0405Z" fill="#838383"/>
<path d="M18.0732 24.5413L17.6261 23.491L17.8964 23.0959L18.6244 23.595L18.7283 23.439L18.9883 23.6262L18.8843 23.7822L19.1963 24.0006L18.9779 24.3125L18.666 24.0942L18.2708 24.6765L18.0732 24.5413ZM18.3956 23.9174L18.1044 23.7198C18.0316 23.6678 17.9692 23.6054 17.9692 23.6054C17.9692 23.6054 18.0316 23.6886 18.0628 23.7614L18.2292 24.167L18.3956 23.9174Z" fill="#838383"/>
<path d="M18.666 22.0456C18.7387 21.9624 18.8323 21.8688 18.9363 21.8168L19.1339 22.108C19.0923 22.1184 19.0091 22.1912 18.9571 22.2536C18.8427 22.3991 18.8635 22.5551 18.9467 22.6799C18.9467 22.6383 18.9883 22.5343 19.0403 22.4719C19.2483 22.212 19.5707 22.2328 19.789 22.4095C19.997 22.5759 20.0802 22.8983 19.8722 23.1687C19.6746 23.4182 19.2795 23.5222 18.8843 23.1999C18.5516 22.9191 18.3644 22.4303 18.666 22.0456ZM19.5603 22.7007C19.4667 22.6279 19.3315 22.6071 19.2275 22.7423C19.1755 22.8151 19.1443 22.8879 19.1963 22.9295C19.3419 23.0439 19.5291 23.0231 19.5915 22.9399C19.6642 22.8567 19.633 22.7631 19.5603 22.7007Z" fill="#838383"/>
<path d="M19.789 21.9728C19.4563 21.6712 19.2899 21.3177 19.5915 20.9849C19.893 20.6521 20.257 20.7873 20.5897 21.0993C20.9225 21.4113 21.0993 21.7648 20.7977 22.0976C20.4962 22.4303 20.1218 22.2744 19.789 21.9728ZM20.3194 21.3905C20.1322 21.2137 19.945 21.1097 19.8514 21.2241C19.7474 21.3385 19.8722 21.5048 20.0594 21.6816C20.2466 21.8584 20.4338 21.9624 20.5377 21.848C20.6417 21.7336 20.517 21.5672 20.3194 21.3905Z" fill="#838383"/>
<path d="M20.8497 20.8393C20.5377 20.5066 20.3922 20.1426 20.7249 19.841C21.0473 19.5291 21.4009 19.6954 21.7232 20.0178C22.0352 20.3506 22.1808 20.7145 21.8584 21.0265C21.5152 21.3281 21.1617 21.1617 20.8497 20.8393ZM21.4217 20.2882C21.2449 20.101 21.0681 19.9866 20.9641 20.0906C20.8601 20.1946 20.9641 20.3714 21.1409 20.5585C21.3177 20.7457 21.4944 20.8705 21.6088 20.7665C21.7128 20.6625 21.5984 20.4754 21.4217 20.2882Z" fill="#838383"/>
<path d="M23.0751 18.8947C22.9399 18.7076 22.9815 18.458 23.1583 18.3228C23.335 18.1876 23.595 18.2292 23.7302 18.406C23.8654 18.5828 23.8238 18.8427 23.647 18.9779C23.4702 19.1131 23.2103 19.0819 23.0751 18.8947Z" fill="#838383"/>
<path d="M24.8741 16.7214L25.2172 16.5342L25.5188 17.0645L25.654 16.9917L25.6436 16.295L26.0075 16.0974L25.9972 16.9709L26.7875 17.4701L26.4131 17.6781L25.81 17.2829L25.6748 17.3557L25.9868 17.9172L25.6436 18.1044L24.8741 16.7214Z" fill="#838383"/>
<path d="M26.3715 15.9103L27.5882 15.3487L28.2433 16.7838L27.8897 16.9501L27.3698 15.8063L26.8603 16.0454L27.3802 17.1893L27.0266 17.3557L26.3715 15.9103Z" fill="#838383"/>
<path d="M28.0873 15.1511L29.3456 14.6936L29.8863 16.1806L29.5224 16.3158L29.096 15.1407L28.5657 15.3279L28.992 16.503L28.6281 16.6382L28.0873 15.1511Z" fill="#838383"/>
<path d="M30.791 15.5671L31.1134 15.4839L30.9574 14.8392C30.947 14.7768 30.9262 14.7248 30.9262 14.7248C30.9262 14.7248 30.9158 14.7768 30.8846 14.8184L30.8118 14.9224L30.5415 14.7456L30.8638 14.2568L31.1862 14.1736L31.4877 15.3903L31.8205 15.3071L31.9037 15.6295L30.8846 15.8791L30.791 15.5671Z" fill="#838383"/>
<path d="M32.1845 15.0887C32.2781 15.1511 32.4132 15.1927 32.5276 15.1719C32.6732 15.1511 32.7356 15.0575 32.7252 14.9744C32.7044 14.8496 32.5692 14.8288 32.4029 14.86L32.2989 14.8808L32.1845 14.7144L32.3405 14.4336C32.4028 14.3296 32.4444 14.2672 32.4444 14.2672C32.4444 14.2672 32.3925 14.288 32.2989 14.3088L31.9245 14.3504L31.8621 14.0281L32.8396 13.8513L32.8812 14.0905L32.6316 14.5168C32.8708 14.5272 33.0476 14.6832 33.0892 14.9016C33.1412 15.1719 32.9956 15.4631 32.6108 15.5359C32.4236 15.5671 32.2053 15.5463 32.0389 15.4319L32.1845 15.0887Z" fill="#838383"/>
<path d="M33.4635 15.1823C33.4011 14.6 34.0667 14.4232 34.0355 14.1944C34.0251 14.0801 33.9315 14.0489 33.8483 14.0593C33.7443 14.0697 33.6715 14.1632 33.6299 14.2568L33.3179 14.1009C33.3907 13.9137 33.5467 13.7265 33.8379 13.6953C34.0979 13.6641 34.389 13.7785 34.4306 14.1113C34.4826 14.6 33.8587 14.7664 33.8691 14.9744L34.545 14.8912L34.5866 15.2239L33.4947 15.3487C33.4843 15.2863 33.4635 15.2343 33.4635 15.1823Z" fill="#838383"/>
<path d="M35.0546 14.34C34.9714 14.2672 34.8986 14.1736 34.8986 14.0489C34.8882 13.8201 35.0338 13.5809 35.4081 13.5705C35.6993 13.5601 35.9489 13.7057 35.9697 14.0073C35.9801 14.1632 35.8761 14.3296 35.8345 14.3816C35.9489 14.4544 36.0321 14.548 36.0321 14.704C36.0424 14.9432 35.8553 15.1927 35.4705 15.2135C35.0858 15.2343 34.8778 15.0056 34.857 14.7456C34.8466 14.5376 34.9922 14.392 35.0546 14.34ZM35.4497 14.86C35.5641 14.8496 35.6369 14.7976 35.6369 14.6936C35.6369 14.6 35.4913 14.5584 35.3353 14.4856C35.3041 14.5272 35.2521 14.6 35.2625 14.6832C35.2521 14.7872 35.3457 14.86 35.4497 14.86ZM35.5849 14.0385C35.5849 13.9449 35.5121 13.8929 35.4081 13.9033C35.3041 13.9033 35.2625 13.9657 35.2729 14.0385C35.2729 14.1425 35.3977 14.1944 35.5329 14.2464C35.5641 14.2048 35.5953 14.1321 35.5849 14.0385Z" fill="#838383"/>
<path d="M36.3648 14.34C36.3752 13.8825 36.5312 13.5289 36.9783 13.5393C37.4255 13.5497 37.5711 13.9137 37.5607 14.3712C37.5503 14.8288 37.3943 15.1927 36.9472 15.1823C36.5 15.1719 36.3544 14.7976 36.3648 14.34ZM37.1551 14.3608C37.1655 14.1009 37.1239 13.9033 36.9679 13.8929C36.812 13.8929 36.7704 14.0905 36.76 14.3504C36.7496 14.6104 36.7912 14.8184 36.9472 14.8184C37.1031 14.8288 37.1551 14.6208 37.1551 14.3608Z" fill="#838383"/>
<path d="M37.883 14.8496L38.2158 14.8808L38.2678 14.2256C38.2678 14.1632 38.2782 14.1009 38.2782 14.1009C38.2782 14.1009 38.2574 14.1424 38.2054 14.184L38.1014 14.2568L37.9038 13.9969L38.3614 13.6329L38.6942 13.6641L38.5902 14.912L38.9229 14.9432L38.8917 15.2759L37.8415 15.1823L37.883 14.8496Z" fill="#838383"/>
<path d="M39.2661 14.5168C39.3389 14.0697 39.5365 13.7369 39.9732 13.7993C40.4204 13.8721 40.5036 14.2464 40.4412 14.6936C40.3684 15.1407 40.1708 15.4839 39.7236 15.4215C39.2869 15.3487 39.2037 14.964 39.2661 14.5168ZM40.0564 14.6312C40.098 14.3816 40.0772 14.1736 39.9316 14.1425C39.7756 14.1217 39.7029 14.3192 39.6717 14.5688C39.6301 14.8288 39.6405 15.0368 39.7964 15.0576C39.942 15.0887 40.0148 14.8912 40.0564 14.6312Z" fill="#838383"/>
<path d="M40.7947 14.7664C40.8987 14.3192 41.1171 14.0073 41.5538 14.1009C41.9906 14.2048 42.053 14.5792 41.9594 15.0264C41.8554 15.4735 41.637 15.7959 41.2003 15.7023C40.7635 15.5983 40.7011 15.2031 40.7947 14.7664ZM41.5746 14.9328C41.6266 14.6832 41.637 14.4752 41.4811 14.444C41.3355 14.4128 41.2419 14.6 41.1899 14.8496C41.1379 15.0991 41.1275 15.3175 41.2835 15.3487C41.4291 15.3799 41.5123 15.1927 41.5746 14.9328Z" fill="#838383"/>
<path d="M42.1882 15.5671L42.5105 15.6607L42.6977 15.0264C42.7185 14.964 42.7393 14.912 42.7393 14.912C42.7393 14.912 42.7081 14.9536 42.6561 14.9744L42.5417 15.0264L42.3962 14.7352L42.9161 14.4752L43.2385 14.5688L42.8849 15.7647L43.2073 15.8583L43.1137 16.1806L42.105 15.8791L42.1882 15.5671Z" fill="#838383"/>
<path d="M44.9231 16.0142C45.0167 15.8063 45.2558 15.7127 45.4638 15.7959C45.6718 15.8895 45.7654 16.1286 45.6822 16.3366C45.599 16.5446 45.3494 16.6382 45.1415 16.555C44.9231 16.4718 44.8295 16.2222 44.9231 16.0142Z" fill="#838383"/>
<path d="M48.3755 16.8462C48.7811 17.0957 48.8954 17.5741 48.6667 17.9692C48.4275 18.3644 47.9388 18.4996 47.5332 18.25C47.1276 18.0004 47.0132 17.5117 47.2524 17.1165C47.4812 16.7214 47.9595 16.5966 48.3755 16.8462ZM47.71 17.938C47.9179 18.0628 48.1779 17.99 48.3235 17.7509C48.4587 17.5325 48.3963 17.2621 48.1883 17.1373C47.9803 17.0125 47.7204 17.0853 47.5852 17.3037C47.45 17.5429 47.502 17.8236 47.71 17.938Z" fill="#838383"/>
<path d="M49.4258 17.5533L50.2161 18.1148L50.0185 18.3852L49.5402 18.0524L48.8123 19.0715L48.5003 18.8427L49.4258 17.5533Z" fill="#838383"/>
<path d="M50.5177 18.3436L51.0272 18.7595C51.2664 18.9571 51.2872 19.2587 51.0896 19.5083C50.892 19.7578 50.5801 19.7994 50.3409 19.6123L50.1329 19.4459L49.8209 19.8306L49.5194 19.5915L50.5177 18.3436ZM50.4865 19.3003C50.5905 19.3835 50.7048 19.3523 50.7776 19.2587C50.8504 19.1651 50.8608 19.0507 50.7568 18.9675L50.6009 18.8427L50.3305 19.1755L50.4865 19.3003Z" fill="#838383"/>
<path d="M51.7447 19.3627L52.0255 19.633L51.5887 20.0906L52.0047 20.4858L52.4415 20.0282L52.7222 20.2986L51.6303 21.4528L51.3496 21.1825L51.7759 20.7353L51.36 20.3402L50.9336 20.7873L50.6529 20.517L51.7447 19.3627Z" fill="#838383"/>
<path d="M52.587 21.9728L52.8054 22.2328L53.3046 21.8064C53.3461 21.7648 53.3981 21.7336 53.3981 21.7336C53.3981 21.7336 53.3566 21.744 53.2942 21.744L53.1694 21.7232L53.2006 21.4009L53.7829 21.4632L54.0013 21.7128L53.055 22.5343L53.2734 22.7943L53.0238 23.0127L52.3375 22.212L52.587 21.9728Z" fill="#838383"/>
<path d="M53.4501 22.9815L53.6581 23.2519L54.1885 22.8567C54.2405 22.8255 54.2821 22.7839 54.2821 22.7839C54.2821 22.7839 54.2301 22.7943 54.1781 22.7839L54.0533 22.7631L54.1053 22.4407L54.6876 22.5343L54.8852 22.8047L53.8869 23.5638L54.0949 23.8342L53.8349 24.0318L53.2006 23.1895L53.4501 22.9815Z" fill="#838383"/>
<path d="M54.7812 23.9174C54.802 23.803 54.8436 23.699 54.958 23.6262C55.1452 23.5014 55.4259 23.5118 55.6339 23.8134C55.8003 24.063 55.7899 24.3541 55.5507 24.5101C55.4155 24.5933 55.2283 24.5933 55.166 24.5829C55.166 24.7077 55.1244 24.8325 54.9892 24.9261C54.7916 25.0613 54.4796 25.0301 54.2613 24.7077C54.0533 24.3853 54.1365 24.0838 54.3444 23.9486C54.5004 23.8446 54.7084 23.8966 54.7812 23.9174ZM54.542 24.5205C54.6044 24.6141 54.698 24.6453 54.7812 24.5933C54.854 24.5413 54.8228 24.3957 54.802 24.2293C54.75 24.2189 54.6668 24.2189 54.594 24.2605C54.5004 24.3229 54.4796 24.4373 54.542 24.5205ZM55.3115 24.2293C55.3843 24.1774 55.3947 24.0942 55.3427 24.011C55.2907 23.9278 55.2179 23.9174 55.1556 23.959C55.0724 24.0214 55.0828 24.1462 55.114 24.2917C55.1556 24.2813 55.2387 24.2813 55.3115 24.2293Z" fill="#838383"/>
<path d="M55.0516 25.29L55.2179 25.5812L55.7899 25.2484C55.8419 25.2172 55.8939 25.186 55.8939 25.186C55.8939 25.186 55.8419 25.186 55.7899 25.1756L55.6651 25.134L55.7587 24.8221L56.3202 24.9885L56.4866 25.2796L55.4051 25.9036L55.5715 26.1947L55.2803 26.3611L54.7604 25.446L55.0516 25.29Z" fill="#838383"/>
<path d="M55.8939 26.5067C55.8627 26.6107 55.8523 26.7563 55.9147 26.8603C55.9771 26.985 56.0811 27.0266 56.1538 26.9954C56.2682 26.9434 56.2578 26.8083 56.185 26.6523L56.133 26.5483L56.2682 26.3923L56.5802 26.4651C56.6946 26.4963 56.7778 26.5275 56.7778 26.5275C56.7778 26.5275 56.7466 26.4859 56.705 26.3923L56.5386 26.0491L56.8402 25.9036L57.2769 26.7979L57.0585 26.9019L56.5802 26.7771C56.6426 27.0058 56.5386 27.2242 56.341 27.3282C56.1018 27.4426 55.7691 27.3906 55.5923 27.037C55.5091 26.8707 55.4779 26.6523 55.5403 26.4651L55.8939 26.5067Z" fill="#838383"/>
<path d="M56.1538 27.7546C56.6946 27.5362 57.0481 28.1289 57.2665 28.0353C57.3705 27.9937 57.3809 27.8897 57.3497 27.817C57.3081 27.7234 57.2041 27.6714 57.1001 27.661L57.1729 27.3178C57.3705 27.3386 57.5889 27.4426 57.7033 27.7026C57.8073 27.9417 57.7761 28.2537 57.4641 28.3889C57.0065 28.5761 56.6738 28.0249 56.4762 28.0769L56.7362 28.7113L56.4242 28.836L56.0083 27.8274C56.0603 27.8066 56.1123 27.7754 56.1538 27.7546Z" fill="#838383"/>
<path d="M58.296 29.3248C58.3272 29.4288 58.3584 29.564 58.3376 29.6783L57.9944 29.6887C58.0048 29.6472 57.9944 29.5328 57.9736 29.4704C57.9112 29.2936 57.7761 29.2312 57.6201 29.2312C57.6617 29.2624 57.7137 29.3456 57.7449 29.4184C57.8489 29.7303 57.6513 30.0007 57.3913 30.0839C57.1417 30.1671 56.8194 30.0631 56.7154 29.7407C56.6114 29.4392 56.7362 29.0544 57.2249 28.888C57.6305 28.7528 58.14 28.8672 58.296 29.3248ZM57.2665 29.7199C57.3705 29.6887 57.4641 29.5848 57.4121 29.4184C57.3809 29.3352 57.3393 29.2728 57.2665 29.2936C57.0897 29.356 57.0065 29.5224 57.0481 29.6264C57.0793 29.7199 57.1729 29.7511 57.2665 29.7199Z" fill="#838383"/>
<path d="M57.7553 30.3127C58.192 30.1983 58.5768 30.2503 58.6912 30.687C58.8056 31.1238 58.4936 31.3526 58.0568 31.467C57.6201 31.5813 57.2249 31.5293 57.1105 31.0926C56.9962 30.6558 57.3185 30.4271 57.7553 30.3127ZM57.9528 31.0718C58.2024 31.0094 58.3896 30.9158 58.348 30.7702C58.3064 30.6246 58.0984 30.635 57.8489 30.6974C57.5993 30.7598 57.4121 30.8534 57.4433 31.0094C57.4849 31.155 57.7033 31.1446 57.9528 31.0718Z" fill="#838383"/>
<path d="M58.1296 31.8101C58.5768 31.7269 58.9615 31.7997 59.0447 32.2469C59.1279 32.694 58.7952 32.902 58.348 32.9852C57.9009 33.0684 57.5161 32.9956 57.4329 32.5484C57.3497 32.1013 57.6825 31.8933 58.1296 31.8101ZM58.2752 32.59C58.5248 32.538 58.7224 32.4652 58.6912 32.3093C58.66 32.1533 58.452 32.1533 58.2024 32.1949C57.9529 32.2469 57.7553 32.3197 57.7761 32.4756C57.7969 32.6316 58.0256 32.642 58.2752 32.59Z" fill="#838383"/>
<path d="M58.1088 33.5155C58.036 33.5987 57.9944 33.7339 58.0048 33.8587C58.0256 34.0043 58.0984 34.0771 58.192 34.0667C58.3168 34.0563 58.348 33.9211 58.3272 33.7547L58.3168 33.6403L58.4936 33.5363L58.764 33.7131C58.8679 33.7755 58.9303 33.8275 58.9303 33.8275C58.9303 33.8275 58.9095 33.7755 58.8991 33.6819L58.8575 33.3075L59.1903 33.266L59.3047 34.2538L59.0655 34.285L58.66 34.0043C58.6392 34.2434 58.4728 34.4098 58.244 34.441C57.9736 34.4722 57.6825 34.3162 57.6409 33.9211C57.6201 33.7339 57.6617 33.5155 57.7865 33.3595L58.1088 33.5155Z" fill="#838383"/>
<path d="M57.932 34.7842C58.5144 34.753 58.66 35.4289 58.8783 35.4185C58.9927 35.4081 59.0343 35.3249 59.0239 35.2417C59.0135 35.1377 58.9303 35.0546 58.8472 35.013L59.0239 34.7114C59.2111 34.7946 59.3775 34.961 59.3983 35.2521C59.4087 35.5121 59.2735 35.8033 58.9407 35.8137C58.452 35.8345 58.3168 35.2001 58.1192 35.2001L58.1504 35.8865L57.8177 35.9073L57.7657 34.8154C57.8177 34.7946 57.8801 34.7842 57.932 34.7842Z" fill="#838383"/>
<path d="M58.9199 36.812C59.0239 36.864 59.0655 36.9056 59.0655 36.9056C59.0655 36.9056 59.0551 36.8952 59.0655 36.812L59.0759 36.188L59.4087 36.1984L59.3879 37.3319H59.1175L57.8177 36.6456L57.8281 36.24L58.9199 36.812Z" fill="#838383"/>
<path d="M58.2648 37.7375C58.1816 37.8103 58.1088 37.9246 58.0984 38.0494C58.088 38.1534 58.1504 38.2782 58.2752 38.2886C58.4 38.299 58.4832 38.195 58.4936 38.0494C58.504 37.9766 58.4832 37.9038 58.452 37.8311L58.5456 37.6335L59.3671 37.7583L59.3047 38.6422L58.9719 38.6214L59.0135 38.0702L58.8679 38.0494C58.8368 38.0494 58.8056 38.039 58.8056 38.039C58.816 38.0598 58.816 38.1222 58.816 38.1534C58.7848 38.5278 58.5352 38.7046 58.2544 38.6838C57.9321 38.663 57.7137 38.403 57.7345 38.0598C57.7449 37.8623 57.8281 37.6751 57.984 37.5399L58.2648 37.7375Z" fill="#838383"/>
<path d="M58.2544 40.4204C58.4832 40.462 58.6184 40.6803 58.5768 40.9091C58.5352 41.1379 58.3168 41.2731 58.088 41.2315C57.8593 41.1899 57.7241 40.9715 57.7657 40.7427C57.8177 40.514 58.036 40.3684 58.2544 40.4204Z" fill="#838383"/>
<path d="M22.0144 53.1486C22.16 52.9718 22.4199 52.951 22.5967 53.0966C22.7735 53.2422 22.7943 53.5021 22.6487 53.6789C22.5031 53.8557 22.2432 53.8765 22.0664 53.7309C21.8896 53.5853 21.8688 53.3254 22.0144 53.1486Z" fill="#838383"/>
<path d="M23.8446 55.1452C24.1358 54.9996 24.3333 54.75 24.4893 54.5108L24.6869 54.1989L25.5916 54.7708L24.9157 55.8315L25.0613 55.9251L24.7181 56.4658L24.4269 56.2786L24.5933 56.0187L23.8238 55.5299L23.6574 55.7899L23.3558 55.6027L23.699 55.062L23.8446 55.1452ZM24.5933 55.6131L25.0925 54.8332L24.8221 54.6668L24.7805 54.7292C24.6453 54.9372 24.4165 55.2179 24.1774 55.3531L24.5933 55.6131Z" fill="#838383"/>
<path d="M26.0179 55.01L26.8915 55.4779L26.7355 55.7691L26.2051 55.4779L26.0699 55.7275L26.4963 55.9563L26.3403 56.2474L25.914 56.0187L25.7684 56.2786L26.3299 56.5802L26.1739 56.8714L25.2692 56.3826L26.0179 55.01Z" fill="#838383"/>
<path d="M27.1618 56.185L27.3802 55.7067L28.3473 56.1434L27.6922 57.5889L27.3386 57.4329L27.8481 56.289L27.5674 56.1642L27.4842 56.341C27.1618 57.0481 26.8291 57.2249 26.4131 57.0378L26.5587 56.7154C26.7563 56.7778 26.9227 56.705 27.1618 56.185Z" fill="#838383"/>
<path d="M29.0544 56.4242L29.4392 56.5594L29.408 58.2336L29.0336 58.0984L29.0544 57.7553L28.5865 57.5889L28.3785 57.8697L28.0041 57.7345L29.0544 56.4242ZM29.0648 57.4329L29.0856 57.1105C29.096 57.0066 29.1168 56.8298 29.1168 56.8298C29.1168 56.8298 29.0232 56.9754 28.9608 57.0689L28.7736 57.3289L29.0648 57.4329Z" fill="#838383"/>
<path d="M30.1567 56.809L31.1134 57.0793L31.0198 57.4017L30.4375 57.2353L30.3647 57.5057L30.8326 57.6409L30.739 57.9632L30.2711 57.8281L30.1879 58.1192L30.8014 58.296L30.7078 58.6184L29.7199 58.3376L30.1567 56.809Z" fill="#838383"/>
<path d="M31.5085 57.1833L31.9245 57.2665L32.0181 57.9632C32.0285 58.0672 32.0493 58.2336 32.0493 58.2336C32.0493 58.2336 32.1221 58.088 32.1845 57.9944L32.5484 57.3809L32.9644 57.4641L32.7772 59.0447L32.3924 58.9719L32.486 58.2648C32.4964 58.1504 32.538 58.0048 32.538 58.0048C32.538 58.0048 32.4548 58.1608 32.4029 58.244L32.1533 58.66L31.8309 58.5976L31.7581 58.1192C31.7477 58.0152 31.7269 57.8385 31.7269 57.8385C31.7269 57.8385 31.7061 57.984 31.6749 58.0984L31.4877 58.7848L31.103 58.712L31.5085 57.1833Z" fill="#838383"/>
<path d="M34.0459 57.6201L35.0338 57.7137L35.0026 58.0464L34.3994 57.9944L34.3682 58.2856L34.8466 58.3272L34.8154 58.66L34.337 58.6184L34.3058 58.9199L34.9402 58.9823L34.909 59.3151L33.8899 59.2215L34.0459 57.6201Z" fill="#838383"/>
<path d="M35.3769 58.9927C35.5433 58.712 35.5849 58.4 35.5953 58.1192L35.6057 57.7449L36.6768 57.7657L36.656 59.0239H36.8328L36.8224 59.6687L36.4792 59.6583L36.4896 59.3463L35.5745 59.3255L35.5641 59.6375L35.2105 59.6271L35.2209 58.9823L35.3769 58.9927ZM36.2608 59.0135L36.2816 58.088L35.9697 58.0776V58.1504C35.9697 58.4 35.9177 58.7536 35.7825 58.9927L36.2608 59.0135Z" fill="#838383"/>
<path d="M37.3423 58.9511C37.3839 58.9823 37.4463 59.0239 37.5191 59.0239C37.5815 59.0239 37.6231 58.9927 37.6439 58.9303L36.9679 57.7657L37.3943 57.7449L37.6855 58.296C37.7479 58.4104 37.7791 58.504 37.7791 58.504C37.7791 58.504 37.7999 58.4 37.8311 58.2856L37.9974 57.7033L38.403 57.6825L37.9974 58.8887C37.935 59.0759 37.8207 59.3255 37.5503 59.3359C37.4151 59.3463 37.3007 59.3047 37.1863 59.2319L37.3423 58.9511Z" fill="#838383"/>
<path d="M39.2557 57.5889L39.6405 57.5265L39.7548 58.2544C39.7756 58.348 39.7756 58.5248 39.7756 58.5248C39.7756 58.5248 39.8172 58.348 39.8588 58.2336L40.1708 57.4329L40.5556 57.3705L40.8051 58.9303L40.4204 58.9927L40.306 58.2648C40.2852 58.1712 40.2852 57.9944 40.2852 57.9944C40.2852 57.9944 40.2436 58.1712 40.202 58.2856L39.8796 59.0863L39.4949 59.1487L39.2557 57.5889Z" fill="#838383"/>
<path d="M41.2835 58.3688C41.3771 58.4208 41.5226 58.4728 41.6474 58.4416C41.7826 58.4104 41.8346 58.3376 41.8138 58.2232C41.793 58.1296 41.7202 58.088 41.5954 58.1192L41.4083 58.1608L41.3355 57.8593L41.4915 57.8281C41.6058 57.7969 41.6578 57.7137 41.637 57.6305C41.6162 57.5369 41.533 57.4849 41.4187 57.5161C41.3251 57.5369 41.2107 57.6097 41.1275 57.7137L40.9195 57.4745C41.0547 57.2873 41.2315 57.2041 41.4083 57.1625C41.637 57.1105 41.9386 57.1833 42.001 57.4849C42.0426 57.6617 41.9698 57.7865 41.8762 57.8697C42.0322 57.8905 42.157 57.984 42.1986 58.1504C42.2714 58.452 42.053 58.6808 41.7618 58.7536C41.5538 58.8056 41.3251 58.7744 41.1379 58.6496L41.2835 58.3688Z" fill="#838383"/>
<path d="M42.9369 56.7882L43.3321 56.6426L43.7688 57.1937C43.8312 57.2769 43.9352 57.4121 43.9352 57.4121C43.9352 57.4121 43.9248 57.2457 43.9248 57.1417L43.9144 56.4346L44.3095 56.289L44.9647 57.7345L44.6007 57.8593L44.3199 57.2041C44.2679 57.0897 44.2264 56.9546 44.2264 56.9546C44.2264 56.9546 44.2368 57.1313 44.2368 57.2353V57.7241L43.9248 57.8385L43.6128 57.4641C43.5504 57.3809 43.436 57.2457 43.436 57.2457C43.436 57.2457 43.4984 57.3809 43.5296 57.4953L43.7272 58.1816L43.3632 58.3168L42.9369 56.7882Z" fill="#838383"/>
<path d="M45.3182 57.0274C45.3286 56.9442 45.3286 56.913 45.3286 56.913C45.1207 56.8922 44.9855 56.7674 44.9023 56.5906C44.7983 56.3722 44.8503 56.1746 44.9751 56.0395C45.0271 55.9875 45.0895 55.9459 45.235 55.8835L45.7342 55.6547L46.3893 57.1001L46.0358 57.2561L45.8174 56.7674L45.6926 56.8298L45.6406 57.4433L45.2454 57.6201L45.3182 57.0274ZM45.703 56.4762L45.5366 56.1122L45.4222 56.1642C45.339 56.2058 45.287 56.237 45.2662 56.2786C45.2454 56.3202 45.2558 56.3826 45.2766 56.4346C45.339 56.5594 45.4326 56.5906 45.547 56.5386L45.703 56.4762Z" fill="#838383"/>
<path d="M46.7533 55.1036C46.9405 54.9996 47.1692 54.958 47.3772 55.0204L47.3564 55.3635C47.2212 55.3323 47.0548 55.3427 46.9301 55.4155C46.6493 55.5715 46.6389 55.8211 46.7533 56.0291C46.8677 56.237 47.1068 56.3826 47.3772 56.237C47.5124 56.1642 47.606 56.0083 47.658 55.8627L47.9699 56.0187C47.9179 56.2162 47.7932 56.4138 47.5332 56.5594C47.086 56.7986 46.6389 56.6426 46.4101 56.237C46.1917 55.8107 46.3165 55.3427 46.7533 55.1036Z" fill="#838383"/>
<path d="M47.8556 54.49L48.1987 54.2717L49.509 55.3115L49.1762 55.5299L48.9162 55.3011L48.5003 55.5715L48.6043 55.9043L48.2715 56.1227L47.8556 54.49ZM48.6667 55.0828L48.4275 54.8748C48.3443 54.802 48.2299 54.6772 48.2299 54.6772C48.2299 54.6772 48.2923 54.8436 48.3235 54.9372L48.4171 55.2491L48.6667 55.0828Z" fill="#838383"/>
<path d="M50.3721 53.6685C50.2265 53.4917 50.2473 53.2318 50.4241 53.0862C50.6009 52.9406 50.8608 52.9614 51.0064 53.1382C51.152 53.315 51.1312 53.5749 50.9544 53.7205C50.7776 53.8661 50.5177 53.8349 50.3721 53.6685Z" fill="#838383"/>
<path d="M47.0756 19.3523H26.8395C26.3299 19.6434 25.0093 20.101 24.4893 20.413C24.063 20.6625 22.6487 22.0664 22.4719 22.2432V27.4322H28.1185L22.1288 50.2993C22.8047 50.6321 24.9469 52.8366 25.1964 53.0758C25.3108 53.1798 29.1792 54.9372 29.2312 54.9684L30.739 49.3114H41.5019V55.3947H43.436C43.5712 55.1972 45.2662 54.4588 45.9318 54.2509C46.0358 54.2197 48.6355 52.6078 49.5922 51.7343V21.2449C49.3634 21.0473 47.6996 19.7786 47.0756 19.3523ZM41.5019 41.2211H32.8188L36.4376 27.4218H41.5019V41.2211Z" fill="#838383"/>
</svg>
