<svg width="64" height="64" viewBox="0 0 64 64" fill="none" xmlns="http://www.w3.org/2000/svg">
<path d="M51.1998 6.40015H43.7332H20.2665H12.7998C10.4436 6.40015 8.5332 8.31052 8.5332 10.6668V58.6668C8.5332 61.023 10.4436 62.9334 12.7998 62.9334H51.1998C53.5561 62.9334 55.4665 61.023 55.4665 58.6668V10.6668C55.4665 8.31052 53.5561 6.40015 51.1998 6.40015Z" fill="#4CAE09"/>
<path d="M49.0666 10.6665H43.7332V12.7999H31.9999H20.2666V10.6665H14.9332C13.7546 10.6665 12.7998 11.6211 12.7998 12.7999V56.5333C12.7998 57.7119 13.7544 58.6666 14.9332 58.6666H49.0666C50.2452 58.6666 51.1999 57.712 51.1999 56.5333V12.7999C51.1999 11.6213 50.2453 10.6665 49.0666 10.6665Z" fill="#FFF2C4"/>
<circle cx="23" cy="48" r="3" fill="white"/>
<circle cx="41" cy="39" r="3" fill="white"/>
<path d="M38.3051 4.26665C37.1627 4.26665 36.095 3.7184 35.4176 2.7989C34.6442 1.7494 33.4047 1.06665 32 1.06665C30.5952 1.06665 29.3557 1.74928 28.5824 2.7989C27.905 3.7184 26.8372 4.26665 25.6949 4.26665H22.9652C21.4751 4.26665 20.2666 5.47515 20.2666 6.96528V12.8H43.7332V6.9654C43.7332 5.47528 42.5247 4.26678 41.0346 4.26678H38.3051V4.26665Z" fill="#C97B20"/>
<path d="M33.0721 9.6H30.9281C30.3425 9.6 29.8667 9.12425 29.8667 8.53863V6.39463C29.8667 5.809 30.3425 5.33325 30.9281 5.33325H33.0721C33.6577 5.33325 34.1335 5.809 34.1335 6.39463V8.53863C34.1335 9.12425 33.6577 9.6 33.0721 9.6Z" fill="white"/>
<path d="M26.6667 28.8C26.3936 28.8 26.1206 28.6955 25.9126 28.4875L17.3792 19.9541C16.9621 19.537 16.9621 18.8629 17.3792 18.4459C17.7964 18.0288 18.4705 18.0288 18.8875 18.4459L27.4209 26.9793C27.838 27.3964 27.838 28.0705 27.4209 28.4875C27.2129 28.6955 26.9399 28.8 26.6667 28.8Z" fill="#292929"/>
<path d="M18.1334 28.8C17.8603 28.8 17.5873 28.6955 17.3793 28.4875C16.9621 28.0704 16.9621 27.3963 17.3793 26.9793L25.9126 18.4459C26.3298 18.0288 27.0039 18.0288 27.4209 18.4459C27.838 18.863 27.838 19.5371 27.4209 19.9541L18.8875 28.4875C18.6795 28.6955 18.4064 28.8 18.1334 28.8Z" fill="#292929"/>
<path d="M45.8668 54.3999C45.5937 54.3999 45.3207 54.2954 45.1127 54.0874L40.846 49.8208C40.4289 49.4037 40.4289 48.7296 40.846 48.3126C41.2632 47.8956 41.9373 47.8954 42.3543 48.3126L46.6209 52.5792C47.0381 52.9963 47.0381 53.6704 46.6209 54.0874C46.4129 54.2954 46.1399 54.3999 45.8668 54.3999Z" fill="#292929"/>
<path d="M41.6002 54.3999C41.327 54.3999 41.054 54.2954 40.846 54.0874C40.4289 53.6702 40.4289 52.9961 40.846 52.5791L45.1127 48.3124C45.5298 47.8952 46.2039 47.8952 46.6209 48.3124C47.0379 48.7295 47.038 49.4036 46.6209 49.8206L42.3543 54.0874C42.1463 54.2954 41.8733 54.3999 41.6002 54.3999Z" fill="#292929"/>
<path d="M23.4668 52.2666C21.1137 52.2666 19.2002 50.353 19.2002 48C19.2002 45.6469 21.1138 43.7334 23.4668 43.7334C25.8199 43.7334 27.7334 45.647 27.7334 48C27.7336 50.3531 25.8199 52.2666 23.4668 52.2666ZM23.4668 45.8666C22.2903 45.8666 21.3334 46.8234 21.3334 48C21.3334 49.1765 22.2902 50.1334 23.4668 50.1334C24.6433 50.1334 25.6002 49.1766 25.6002 48C25.6002 46.8235 24.6434 45.8666 23.4668 45.8666Z" fill="#292929"/>
<path d="M40.5337 43.7334C38.1806 43.7334 36.2671 41.8198 36.2671 39.4668C36.2671 37.1137 38.1807 35.2002 40.5337 35.2002C42.8867 35.2002 44.8003 37.1138 44.8003 39.4668C44.8003 41.8198 42.8867 43.7334 40.5337 43.7334ZM40.5337 37.3334C39.3572 37.3334 38.4003 38.2902 38.4003 39.4668C38.4003 40.6433 39.3571 41.6002 40.5337 41.6002C41.7102 41.6002 42.6671 40.6434 42.6671 39.4668C42.667 38.2902 41.7102 37.3334 40.5337 37.3334Z" fill="#292929"/>
<path d="M23.4665 38.3999C22.8778 38.3999 22.3999 37.9231 22.3999 37.3332C22.3999 36.7434 22.8778 36.2666 23.4665 36.2666C31.7012 36.2666 38.3999 29.568 38.3999 21.3332C38.3999 20.7434 38.8778 20.2666 39.4665 20.2666C40.0553 20.2666 40.5332 20.7434 40.5332 21.3332C40.5333 30.7434 32.8767 38.3999 23.4665 38.3999Z" fill="#292929"/>
<path d="M43.7335 26.6666C43.4604 26.6666 43.1874 26.5621 42.9794 26.3541L39.4669 22.8416L35.9544 26.3541C35.5373 26.7712 34.8631 26.7712 34.4461 26.3541C34.029 25.9369 34.029 25.2628 34.4461 24.8458L38.7128 20.5792C39.1299 20.1621 39.804 20.1621 40.221 20.5792L44.4876 24.8458C44.9048 25.2629 44.9048 25.9371 44.4876 26.3541C44.2797 26.5621 44.0065 26.6666 43.7335 26.6666Z" fill="#292929"/>
<path d="M43.7336 13.8666H20.2668C19.6781 13.8666 19.2002 13.3899 19.2002 12.8V6.96537C19.2002 4.88962 20.8887 3.2 22.9656 3.2H25.6952C26.4888 3.2 27.2472 2.81387 27.7239 2.16637C28.7223 0.810625 30.3213 0 32.0002 0C33.6791 0 35.2781 0.810625 36.2764 2.16637C36.7532 2.81387 37.5117 3.2 38.3052 3.2H41.0348C43.1116 3.2 44.8002 4.88962 44.8002 6.96537V12.8C44.8002 13.3899 44.3223 13.8666 43.7336 13.8666ZM21.3336 11.7334H42.6669V6.96537C42.6669 6.06612 41.9342 5.33337 41.0349 5.33337H38.3053C36.8366 5.33337 35.4359 4.623 34.5592 3.4315C33.9512 2.60588 33.0189 2.13337 32.0003 2.13337C30.9817 2.13337 30.0494 2.60588 29.4424 3.4315C28.5646 4.623 27.1641 5.33337 25.6952 5.33337H22.9656C22.0663 5.33337 21.3336 6.06612 21.3336 6.96537V11.7334Z" fill="#292929"/>
<path d="M51.2002 64H12.8002C9.85942 64 7.4668 61.6075 7.4668 58.6666V10.6666C7.4668 7.72588 9.8593 5.33325 12.8002 5.33325H20.2668C20.8555 5.33325 21.3334 5.81 21.3334 6.39988V11.7333H42.6668V6.4C42.6668 5.81013 43.1447 5.33338 43.7334 5.33338H51.2002C54.1409 5.33338 56.5335 7.72588 56.5335 10.6668V58.6668C56.5335 61.6075 54.1409 64 51.2002 64ZM12.8002 7.46663C11.0359 7.46663 9.60017 8.90238 9.60017 10.6666V58.6666C9.60017 60.4309 11.0359 61.8666 12.8002 61.8666H51.2002C52.9644 61.8666 54.4002 60.4309 54.4002 58.6666V10.6666C54.4002 8.90238 52.9644 7.46663 51.2002 7.46663H44.8002V12.8C44.8002 13.3899 44.3223 13.8666 43.7335 13.8666H20.2668C19.678 13.8666 19.2002 13.3899 19.2002 12.8V7.46663H12.8002Z" fill="#292929"/>
<path d="M49.0666 59.7332H14.9334C13.1691 59.7332 11.7334 58.2975 11.7334 56.5332V12.7999C11.7334 11.0356 13.1691 9.59985 14.9334 9.59985H20.2668C20.8555 9.59985 21.3334 10.0766 21.3334 10.6665V11.7331H42.6668V10.6665C42.6668 10.0766 43.1446 9.59985 43.7334 9.59985H49.0668C50.831 9.59985 52.2668 11.0356 52.2668 12.7999V56.5332C52.2666 58.2975 50.8309 59.7332 49.0666 59.7332ZM14.9334 11.7332C14.3456 11.7332 13.8668 12.2111 13.8668 12.7999V56.5332C13.8668 57.122 14.3456 57.5999 14.9334 57.5999H49.0668C49.6545 57.5999 50.1334 57.122 50.1334 56.5332V12.7999C50.1334 12.2111 49.6545 11.7332 49.0668 11.7332H44.8V12.7999C44.8 13.3897 44.3221 13.8665 43.7334 13.8665H20.2666C19.6779 13.8665 19.2 13.3897 19.2 12.7999V11.7332H14.9334Z" fill="#292929"/>
<path d="M33.0723 10.6666H30.9283C29.7549 10.6666 28.8003 9.71198 28.8003 8.5386V6.3946C28.8003 5.22123 29.7549 4.2666 30.9283 4.2666H33.0723C34.2457 4.2666 35.2003 5.22123 35.2003 6.3946V8.5386C35.2003 9.71198 34.2457 10.6666 33.0723 10.6666ZM33.0723 8.53335V9.59998V8.53335ZM33.0669 6.3946L30.9283 6.39998L30.9337 8.5386L33.068 8.53323L33.0669 6.3946Z" fill="#292929"/>
</svg>
