<svg width="64" height="64" viewBox="0 0 64 64" fill="none" xmlns="http://www.w3.org/2000/svg">
<path d="M14.3047 27.2732H40.8284V40.2306H14.3047V27.2732Z" fill="#FEA02C"/>
<path d="M23.4453 35.197V31.2378H18.2891V33.5092L23.4453 35.197Z" fill="#FF5D5D"/>
<path d="M14.6645 57.9025C18.9903 50.8145 24.8053 44.9446 31.5687 40.5945L31.8283 40.2306C23.3688 34.9462 13.4734 32.0146 3.17188 32.0146V60.8276H12.8787L14.6645 57.9025Z" fill="#4CAE09"/>
<path d="M12.8789 60.8275L14.6646 57.9024C24.4855 41.8111 41.9766 31.9949 60.8282 31.9949V60.8275H12.8789Z" fill="#75D52A"/>
<path d="M14.3047 27.2733L20.8672 20.6719L27.4297 27.2733H14.3047Z" fill="#FE8F8D"/>
<path d="M40.8284 27.2733L34.2659 20.6719H20.8672L27.4297 27.2733H40.8284Z" fill="#FF5D5D"/>
<path d="M49.742 28.6436C40.9942 21.6096 40.9942 10.2054 49.742 3.17188C58.4899 10.2054 58.4899 21.6096 49.742 28.6436Z" fill="#75D52A"/>
<path d="M9.49987 26.6287C2.88611 21.3109 2.88611 12.6889 9.49987 7.37109C16.1136 12.6889 16.1136 21.3109 9.49987 26.6287Z" fill="#75D52A"/>
<path d="M24.2926 46.0089C17.8578 42.6151 10.6123 40.7451 3.17188 40.7451V50.1787C8.26998 50.1787 13.2523 51.2874 17.8033 53.3267" fill="#75D52A"/>
<path d="M23.1577 60.8275C31.5151 48.3819 45.7726 40.7253 60.8279 40.7253V50.1589C51.1984 50.1589 41.9814 54.114 35.3044 60.8275H23.1577Z" fill="#4CAE09"/>
<path d="M60.8279 48.9871C51.0409 48.9871 41.4352 53.0016 34.4736 60.0013C34.0167 60.4604 34.019 61.2025 34.4777 61.6584C34.7066 61.8859 35.0051 61.9994 35.3044 61.9994C35.6052 61.9994 35.9059 61.8845 36.1353 61.6543C42.6602 55.0936 51.6603 51.3308 60.8279 51.3308C61.4752 51.3308 61.9998 50.8062 61.9998 50.1589C61.9998 49.5121 61.4752 48.9871 60.8279 48.9871Z" fill="#292929"/>
<path d="M36.3907 47.9018C36.0281 47.3653 35.2998 47.2243 34.7638 47.5869C29.7527 50.9716 25.5206 55.2068 22.1845 60.1745C21.8238 60.7119 21.9666 61.4402 22.504 61.8009C22.705 61.9355 22.9315 62 23.1563 62C23.5335 62 23.9043 61.8178 24.1304 61.4814C27.2972 56.765 31.3159 52.7436 36.0757 49.5287C36.6118 49.1666 36.7528 48.4383 36.3907 47.9018Z" fill="#292929"/>
<path d="M60.8284 39.5535C55.5893 39.5535 50.4037 40.4484 45.416 42.2135C44.8058 42.4291 44.4862 43.0988 44.7023 43.709C44.8721 44.1901 45.3244 44.4904 45.8069 44.4904C45.9364 44.4904 46.0683 44.4685 46.1978 44.4227C50.9338 42.7468 55.8562 41.8972 60.8284 41.8972C61.4756 41.8972 62.0002 41.3726 62.0002 40.7253C62.0002 40.0781 61.4756 39.5535 60.8284 39.5535Z" fill="#292929"/>
<path d="M18.7903 53.9592C26.4999 43.9072 37.6602 36.9277 49.9749 34.312C49.9772 34.3116 49.9795 34.3111 49.9813 34.3107C53.5203 33.5595 57.1535 33.1676 60.828 33.1676C61.4748 33.1676 61.9999 32.643 61.9999 31.9962C61.9999 31.3489 61.4748 30.8243 60.828 30.8243C57.4959 30.8243 54.1767 31.1292 50.9138 31.7257V29.1961C55.1494 25.6104 57.4744 20.9119 57.4744 15.9086C57.4744 10.7354 54.9892 5.88818 50.4761 2.2595C50.0472 1.9148 49.4361 1.9148 49.0072 2.2595C44.4946 5.88818 42.0089 10.7354 42.0089 15.9086C42.0089 20.9119 44.3343 25.6104 48.5696 29.1961V32.205C46.343 32.7117 44.1485 33.3576 41.9998 34.1353V27.2739C41.9998 26.9517 41.8697 26.6601 41.6592 26.4481V26.4477L35.0967 19.8463C34.8765 19.6252 34.5776 19.5007 34.2654 19.5007H20.8671C20.5554 19.5007 20.256 19.6252 20.0363 19.8463L13.4738 26.4477V26.4481C13.2632 26.6601 13.1328 26.9517 13.1328 27.2744V31.7495C12.3161 31.5998 11.4958 31.468 10.6719 31.3553V27.1778C13.8748 24.4225 15.6322 20.8291 15.6322 17.0008C15.6322 13.0014 13.7151 9.25777 10.2342 6.45855C9.80531 6.11386 9.19465 6.11386 8.76573 6.45855C5.2849 9.25731 3.36779 13.0014 3.36779 17.0008C3.36779 20.8286 5.12514 24.4221 8.32811 27.1773V31.0857C6.61928 30.926 4.89901 30.8436 3.17187 30.8436C2.5246 30.8436 2 31.3682 2 32.0154C2 32.6627 2.5246 33.1873 3.17187 33.1873C12.5423 33.1873 21.7076 35.6666 29.7876 40.3701C27.8517 41.6857 26.0028 43.1226 24.2523 44.6694C17.7058 41.3341 10.432 39.574 3.17187 39.574C2.52505 39.574 2 40.0986 2 40.7459C2 41.3932 2.52505 41.9178 3.17187 41.9178C9.77784 41.9178 16.3971 43.454 22.4107 46.3713C20.6291 48.0948 18.9638 49.9387 17.4271 51.8878C12.8687 49.9762 8.07771 49.0076 3.17187 49.0076C2.52505 49.0076 2 49.5322 2 50.1795C2 50.8267 2.52505 51.3513 3.17187 51.3513C7.56639 51.3513 11.863 52.1845 15.9673 53.8251C15.1575 54.9503 14.388 56.1061 13.6642 57.2926L11.8785 60.2182C11.5411 60.7703 11.716 61.4917 12.2681 61.8286C12.459 61.9453 12.6695 62.0007 12.8778 62.0007C13.2724 62.0007 13.6583 61.8007 13.8789 61.439L15.6647 58.5135C16.5958 56.9878 17.6019 55.5197 18.6745 54.1103C18.7166 54.0636 18.7559 54.0137 18.7903 53.9592ZM44.3531 15.9086C44.3531 11.7434 46.2588 7.79797 49.7419 4.70624C53.225 7.79797 55.1307 11.7434 55.1307 15.9086C55.1307 19.5789 53.6493 23.0795 50.9138 25.9748V17.0008C50.9138 16.3535 50.3892 15.829 49.7419 15.829C49.0946 15.829 48.57 16.3535 48.57 17.0008V25.9748C45.834 23.0795 44.3531 19.5789 44.3531 15.9086ZM5.71154 17.0008C5.71154 14.0116 7.04958 11.1726 9.49998 8.91674C11.9504 11.1721 13.2884 14.0116 13.2884 17.0008C13.2884 19.4714 12.3734 21.8398 10.6719 23.8613V16.0633C10.6719 15.4161 10.1473 14.8915 9.49998 14.8915C8.85316 14.8915 8.32811 15.4161 8.32811 16.0633V23.8613C6.62661 21.8398 5.71154 19.4714 5.71154 17.0008ZM38.0108 26.1021H27.9171L23.6847 21.8444H33.7783L38.0108 26.1021ZM20.8671 22.3347L24.6126 26.1021H17.1222L20.8671 22.3347ZM15.4765 28.4458H26.2578V35.8982C25.7144 35.6482 25.1678 35.4065 24.6171 35.1745V31.2386C24.6171 30.5918 24.0925 30.0667 23.4453 30.0667H18.289C17.6422 30.0667 17.1172 30.5918 17.1172 31.2386V32.632C16.5724 32.4901 16.0258 32.3556 15.4765 32.2301V28.4458ZM22.2734 34.2498C21.3441 33.9074 20.4066 33.5897 19.4609 33.2981V32.4105H22.2734V34.2498ZM28.6015 37.0449V28.4458H39.6565V35.0449C37.6492 35.8767 35.6877 36.8261 33.7861 37.8936C33.1782 38.2346 32.5776 38.5889 31.9839 38.9524C30.8761 38.2758 29.7482 37.6395 28.6015 37.0449Z" fill="#292929"/>
<path d="M49.7417 13.7187C50.0498 13.7187 50.3524 13.5933 50.5702 13.375C50.7881 13.1571 50.9136 12.8549 50.9136 12.5469C50.9136 12.2383 50.7886 11.9362 50.5702 11.7183C50.3524 11.5 50.0498 11.375 49.7417 11.375C49.4336 11.375 49.131 11.5 48.9136 11.7183C48.6953 11.9362 48.5698 12.2383 48.5698 12.5469C48.5698 12.8549 48.6953 13.1571 48.9136 13.375C49.131 13.5929 49.4336 13.7187 49.7417 13.7187Z" fill="#292929"/>
<path d="M39.5699 44.805C39.3524 45.0229 39.2266 45.325 39.2266 45.6331C39.2266 45.9425 39.352 46.2437 39.5699 46.4616C39.7882 46.68 40.0904 46.8049 40.3984 46.8049C40.707 46.8049 41.0091 46.68 41.227 46.4616C41.4449 46.2437 41.5703 45.9425 41.5703 45.6331C41.5703 45.325 41.4449 45.0229 41.227 44.805C41.0091 44.5866 40.707 44.4612 40.3984 44.4612C40.0904 44.4612 39.7882 44.5866 39.5699 44.805Z" fill="#292929"/>
</svg>
