<svg width="64" height="64" viewBox="0 0 64 64" fill="none" xmlns="http://www.w3.org/2000/svg">
<g clip-path="url(#clip0)">
<path fill-rule="evenodd" clip-rule="evenodd" d="M32.0003 12.358L37.8645 16.6567C40.2997 18.4419 43.3474 15.4866 41.3393 12.94L34.1546 3.82809C33.5761 3.09444 32.8335 2.63306 32.0003 2.63306C31.1672 2.63306 30.4245 3.09444 29.846 3.82809L22.6613 12.94C20.6532 15.4867 23.7009 18.4419 26.1361 16.6567L32.0003 12.358Z" fill="#9EE013"/>
<path fill-rule="evenodd" clip-rule="evenodd" d="M35.7988 22.1636C35.7988 20.0657 34.0981 18.365 32.0002 18.365C26.9614 18.5651 26.9629 25.7628 32.0002 25.9621C34.0981 25.9622 35.7988 24.2615 35.7988 22.1636Z" fill="#FFDCD5"/>
<path fill-rule="evenodd" clip-rule="evenodd" d="M10.6083 27.9001L16.5088 23.6514C18.9591 21.887 17.0903 18.0752 14.0477 19.198L3.16154 23.2154C2.28502 23.5388 1.61675 24.1026 1.35936 24.895C1.10186 25.6874 1.31111 26.5363 1.83013 27.3131L8.27582 36.962C10.0772 39.6587 13.8297 37.6734 12.8845 34.8057L10.6083 27.9001Z" fill="#86DB70"/>
<path fill-rule="evenodd" clip-rule="evenodd" d="M21.1078 27.3175C16.2526 25.951 14.032 32.7976 18.7601 34.5429C20.7554 35.1911 22.8984 34.0992 23.5466 32.104C24.195 30.1087 23.1031 27.9658 21.1078 27.3175Z" fill="#FFDCD5"/>
<path fill-rule="evenodd" clip-rule="evenodd" d="M26.7757 42.0416C25.0784 40.8086 22.7029 41.1848 21.4699 42.882C18.6701 47.0761 24.494 51.3056 27.6161 47.3475C28.8492 45.6502 28.473 43.2747 26.7757 42.0416Z" fill="#FFDCD5"/>
<path fill-rule="evenodd" clip-rule="evenodd" d="M26.0501 53.0168L18.7792 53.0478L16.5617 46.123C15.641 43.2475 11.4382 43.8469 11.5658 47.0875L12.0226 58.6823C12.0593 59.6158 12.3891 60.4256 13.0631 60.9154C13.7371 61.4051 14.6092 61.4684 15.5083 61.2149L26.6768 58.0663C29.7982 57.1861 29.0696 53.0039 26.0501 53.0168Z" fill="#A0E5A5"/>
<path fill-rule="evenodd" clip-rule="evenodd" d="M37.2245 42.0417C35.5273 43.2748 35.1511 45.6503 36.3842 47.3475C37.6174 49.0446 39.9928 49.421 41.6901 48.1879C45.6495 45.0631 41.4157 39.2425 37.2245 42.0417Z" fill="#FFDCD5"/>
<path fill-rule="evenodd" clip-rule="evenodd" d="M45.2213 53.0479L37.9503 53.017C34.9308 53.0041 34.2023 57.1864 37.3237 58.0664L48.4921 61.2151C49.3914 61.4686 50.2634 61.4052 50.9374 60.9155C51.6113 60.4258 51.9412 59.6161 51.9778 58.6825L52.4346 47.0877C52.5622 43.8471 48.3595 43.2477 47.4387 46.1233L45.2213 53.0479Z" fill="#61AE25"/>
<path fill-rule="evenodd" clip-rule="evenodd" d="M40.4538 32.1042C41.102 34.0994 43.245 35.1913 45.2403 34.5431C49.9717 32.7948 47.7437 25.9506 42.8927 27.3177C40.8974 27.966 39.8055 30.1089 40.4538 32.1042Z" fill="#FFDCD5"/>
<path fill-rule="evenodd" clip-rule="evenodd" d="M53.392 27.9001L51.1157 34.8057C50.1704 37.6733 53.9228 39.6587 55.7243 36.962L62.1701 27.3131C62.6892 26.5362 62.8983 25.6872 62.6408 24.8949C62.3834 24.1026 61.7151 23.5388 60.8386 23.2154L49.9524 19.198C46.9099 18.0752 45.041 21.887 47.4913 23.6514L53.392 27.9001Z" fill="#0BF5A1"/>
<path d="M26.8752 17.6651L32.0002 13.908L37.1254 17.6651C37.8478 18.1947 38.6632 18.4554 39.4658 18.4554C40.4561 18.4553 41.4269 18.0583 42.1789 17.2794C43.5316 15.8782 43.5901 13.7757 42.321 12.1662L35.1362 3.05422C33.4398 0.837658 30.5607 0.837783 28.8644 3.05422L21.6797 12.1661C20.4106 13.7755 20.469 15.8781 21.8218 17.2793C23.1832 18.6896 25.2614 18.8478 26.8752 17.6651ZM23.6429 13.714L30.8277 4.60202C31.5526 3.65211 32.4495 3.65387 33.1731 4.60202L40.358 13.714C41.1039 14.6599 40.5637 15.353 40.3805 15.5428C40.0133 15.9231 39.3278 16.1797 38.6037 15.6487L32.7395 11.3498C32.2996 11.0273 31.7013 11.0273 31.2615 11.3498L25.3974 15.6487C24.6738 16.1794 23.988 15.9232 23.6206 15.5428C23.437 15.353 22.897 14.6601 23.6429 13.714Z" fill="#292929"/>
<path d="M37.0487 22.1636C37.0487 19.3798 34.7839 17.115 32.0001 17.115C25.3024 17.3924 25.3044 26.9359 32.0001 27.2122C34.7839 27.2123 37.0487 24.9473 37.0487 22.1636ZM32.0001 24.7122C30.5948 24.7122 29.4515 23.5689 29.4515 22.1636C29.5914 18.7827 34.4091 18.7837 34.5485 22.1636C34.5486 23.5689 33.4054 24.7122 32.0001 24.7122Z" fill="#292929"/>
<path d="M12.1435 39.1013C13.9053 38.2422 14.6983 36.3149 14.0718 34.4144L12.0824 28.3792L17.2393 24.6659C18.8632 23.4967 19.3546 21.4711 18.4342 19.7407C17.5199 18.0212 15.5377 17.3161 13.615 18.0254C12.9673 18.2644 12.636 18.9833 12.875 19.6309C13.114 20.2787 13.8325 20.6096 14.4806 20.3709C15.6108 19.9536 16.103 20.6816 16.2269 20.9146C16.4751 21.3815 16.5066 22.1127 15.7784 22.6371L9.87793 26.8858C9.43529 27.2045 9.25041 27.7735 9.42129 28.2916L11.6976 35.1971C11.9785 36.0493 11.5231 36.6223 11.048 36.8542C10.8108 36.9698 9.98456 37.2694 9.31554 36.2678L2.86985 26.6188C2.63797 26.2716 2.39371 25.7576 2.54859 25.2815C2.70335 24.8051 3.20273 24.5329 3.5945 24.3883C4.24227 24.1494 4.57365 23.4305 4.33464 22.7829C4.09576 22.135 3.37649 21.8039 2.72922 22.0427C1.44168 22.5178 0.533282 23.3935 0.170771 24.5088C-0.191614 25.6242 0.028642 26.8668 0.791039 28.0075L7.2366 37.6566C8.02725 38.8399 9.24141 39.488 10.4961 39.4879C11.0481 39.4879 11.6082 39.3621 12.1435 39.1013Z" fill="#292929"/>
<path d="M15.1326 29.3702C14.716 30.6527 14.8236 32.0208 15.4359 33.2222C17.446 37.1859 23.3285 36.7737 24.7358 32.4903C25.5959 29.8427 24.1418 26.989 21.4942 26.1286C18.8469 25.2691 15.9929 26.7227 15.1326 29.3702ZM17.5103 30.1427C17.9446 28.8063 19.3853 28.0718 20.7215 28.5064C22.0581 28.9407 22.7921 30.3813 22.358 31.7176C21.9237 33.0542 20.4833 33.7883 19.1466 33.3539C18.4991 33.1436 17.9723 32.6938 17.6635 32.0871C17.3543 31.4808 17.3001 30.7902 17.5103 30.1427Z" fill="#292929"/>
<path d="M26.0639 51.7671H26.0449L19.6904 51.7941L17.7523 45.7421C17.142 43.8364 15.3676 42.7433 13.4373 43.0837C11.5192 43.4222 10.2362 45.0889 10.3168 47.1369L10.7735 58.7318C10.8275 60.1029 11.3796 61.2377 12.3283 61.9271C13.3112 62.6544 14.6506 62.7676 15.8472 62.4184L27.0159 59.2698C31.4308 58.0416 30.5955 51.7937 26.0639 51.7671ZM26.3377 56.8635L15.169 60.0121C14.767 60.1256 14.2028 60.1986 13.7978 59.9046C13.3927 59.6102 13.288 59.0509 13.2715 58.6335L12.8149 47.0387C12.7675 45.8349 13.6117 45.5919 13.8716 45.546C14.4789 45.4586 15.0878 45.6762 15.3712 46.5048L17.5887 53.4295C17.7544 53.9474 18.2358 54.2983 18.7791 54.2983H18.7843L26.0554 54.2674H26.0638C26.9552 54.2674 27.3572 54.8753 27.4306 55.3973C27.4675 55.6584 27.4972 56.5366 26.3377 56.8635Z" fill="#292929"/>
<path d="M23.7532 40.1284C22.4213 40.3394 21.2512 41.0564 20.4587 42.1473C18.8182 44.3096 19.3472 47.6497 21.5756 49.1992C23.7481 50.8423 27.0752 50.3091 28.6275 48.0822C30.268 45.9199 29.739 42.5798 27.5106 41.0304C26.4196 40.2379 25.0857 39.917 23.7532 40.1284ZM27.0602 44.7161C27.1668 45.3885 27.005 46.0621 26.6047 46.6128C26.2046 47.1636 25.614 47.5256 24.9416 47.632C24.2688 47.7384 23.5956 47.5769 23.0449 47.1766C23.0449 47.1766 23.0449 47.1766 23.0449 47.1765C22.4942 46.7765 22.1321 46.1858 22.0258 45.5134C21.9191 44.8412 22.0809 44.1675 22.4812 43.6167C22.8813 43.0661 23.4721 42.7041 24.1443 42.5976C24.8092 42.4911 25.4905 42.6516 26.041 43.0531C26.5918 43.4531 26.9537 44.0438 27.0602 44.7161Z" fill="#292929"/>
<path d="M50.5631 43.0834C48.6329 42.7432 46.8583 43.836 46.2481 45.7418L44.31 51.7937L37.9554 51.7667H37.9366C33.4024 51.7944 32.5717 58.0427 36.9843 59.2695L48.1528 62.418C49.3495 62.7673 50.6893 62.6542 51.6721 61.9267C52.6208 61.2373 53.1729 60.1025 53.2269 58.7314L53.6835 47.1366C53.7643 45.0885 52.4811 43.4219 50.5631 43.0834ZM51.1855 47.0382L50.7288 58.6331C50.7123 59.0505 50.6077 59.6096 50.2026 59.904C49.7977 60.1985 49.2334 60.1249 48.8311 60.0116L37.6628 56.863C36.5033 56.5361 36.5329 55.658 36.5697 55.3967C36.643 54.8747 37.0449 54.2668 37.9364 54.2668H37.9449L45.2159 54.2977H45.2212C45.7646 54.2977 46.2458 53.9466 46.4116 53.4289L48.629 46.5042C48.9026 45.6494 49.6082 45.4532 50.1287 45.5454C50.3887 45.5914 51.2328 45.8344 51.1855 47.0382Z" fill="#292929"/>
<path d="M40.2474 40.1284C38.9154 39.9176 37.581 40.2379 36.49 41.0305C35.399 41.8231 34.682 42.9931 34.4711 44.3251C33.7827 48.7583 38.7829 51.8273 42.4251 49.1992C44.6772 47.563 45.1782 44.3996 43.542 42.1474C42.7492 41.0565 41.5793 40.3393 40.2474 40.1284ZM40.9555 47.1768C40.4048 47.5768 39.7315 47.7385 39.0589 47.6322C38.3865 47.5257 37.7958 47.1638 37.3956 46.613C36.9956 46.0624 36.8338 45.3887 36.9403 44.7163C37.0468 44.044 37.4087 43.4533 37.9595 43.0531C38.5101 42.6518 39.1913 42.4913 39.8561 42.5978C40.5284 42.7044 41.1192 43.0663 41.5192 43.6169C42.3452 44.7538 42.0925 46.3507 40.9555 47.1768Z" fill="#292929"/>
<path d="M63.8299 24.5088C63.4675 23.3935 62.5589 22.5176 61.2714 22.0426L50.3852 18.0252C48.4622 17.3157 46.4809 18.0211 45.5662 19.7404C44.6458 21.4711 45.137 23.4964 46.761 24.6658L51.918 28.379L49.9286 34.4142C49.3021 36.3148 50.0951 38.2421 51.857 39.1011C53.6163 39.9569 55.6268 39.3563 56.7639 37.6562L63.2096 28.0074C63.972 26.8664 64.1923 25.6238 63.8299 24.5088ZM61.1307 26.6187L54.685 36.2676C54.0158 37.2692 53.1898 36.9699 52.9528 36.854C52.4774 36.6223 52.0222 36.0493 52.303 35.197L54.5794 28.2914C54.7501 27.7733 54.5654 27.2044 54.1227 26.8856L48.2222 22.637C47.4939 22.1126 47.5255 21.3813 47.7738 20.9144C48.0218 20.4152 48.6856 20.036 49.52 20.3708L60.4063 24.3882C60.798 24.5327 61.2976 24.8051 61.4523 25.2814C61.6069 25.7575 61.3628 26.2713 61.1307 26.6187Z" fill="#292929"/>
<path d="M48.5647 33.2225C49.1768 32.0209 49.2846 30.6529 48.8678 29.3704V29.3705C48.4512 28.0879 47.5599 27.0444 46.3584 26.4321C45.157 25.82 43.7888 25.7124 42.5064 26.1289C39.8588 26.9892 38.4048 29.843 39.2648 32.4907C39.6815 33.7732 40.5728 34.8165 41.7744 35.4289C42.9783 36.0427 44.3489 36.1476 45.6263 35.732C46.909 35.3153 47.9524 34.424 48.5647 33.2225ZM41.6425 31.718C41.2082 30.3816 41.9422 28.9408 43.2788 28.5067C43.9237 28.2969 44.6156 28.3499 45.2233 28.6598C45.83 28.9688 46.2797 29.4956 46.4901 30.143V30.1431C46.7006 30.7905 46.6462 31.481 46.3371 32.0876C46.0281 32.6942 45.5013 33.144 44.8538 33.3544C43.5172 33.7885 42.0767 33.0543 41.6425 31.718Z" fill="#292929"/>
<path d="M8.60475 22.4568C10.2632 22.3907 10.262 20.0223 8.60475 19.9568H8.60375C6.94525 20.023 6.9475 22.3914 8.60475 22.4568Z" fill="#292929"/>
</g>
<defs>
<clipPath id="clip0">
<rect width="64" height="64" fill="white"/>
</clipPath>
</defs>
</svg>
